<svg width="320" height="320" viewBox="0 0 320 320" fill="none" xmlns="http://www.w3.org/2000/svg">
<path d="M299.84 188.622C295.72 216.942 271.219 236.762 247.509 244.042C246.289 244.423 245.089 244.762 243.879 245.062H243.869C240.469 245.932 237.109 246.532 233.859 246.852C225.389 247.682 219.36 246.472 214.2 244.592C213.28 244.262 212.389 243.902 211.52 243.542C202.359 239.662 195.259 234.322 179.969 236.502C164.859 238.652 154.059 246.792 141.849 255.052H141.84C140.97 255.642 140.09 256.232 139.21 256.822H139.2C130.16 262.812 120.17 268.632 107.04 272.052C101.49 273.502 88.8495 276.112 73.3695 273.622C67.2695 272.642 44.3495 268.962 27.4795 249.932C21.9595 243.712 17.5995 236.422 14.5195 228.642H14.5095L13.5696 226.122C7.79955 210.002 7.39953 192.062 13.2995 177.202C23.1695 152.312 43.4395 154.202 52.6695 126.532C55.8695 116.922 55.3595 110.822 55.0395 104.822C55.0195 104.362 54.9895 103.912 54.9695 103.452C54.7395 98.0725 54.9095 92.5525 58.2995 84.4525C64.8595 68.7925 79.4295 53.0925 99.8495 46.7525C112.689 42.7625 125.79 43.1025 137.2 46.0425C137.86 46.2125 138.51 46.3925 139.16 46.5825C150.43 49.8325 159.9 55.6025 165.58 62.1525C173.29 71.0425 180.439 88.7125 181.359 92.3225C181.389 92.4125 181.5 92.8525 181.68 93.4425C182.09 94.7925 183.259 98.2125 186.099 101.942C186.099 101.942 187.89 104.282 190.08 106.212C206.86 121.002 226.2 111.762 247.54 114.562C248.19 114.642 248.839 114.743 249.499 114.853C254.699 115.713 260.01 117.352 265.44 120.272C276.8 126.382 286.7 137.062 293.07 149.812C293.53 150.762 293.98 151.713 294.41 152.673C299.37 163.823 301.63 176.332 299.84 188.622Z" fill="#D0E0F9"/>
<path d="M294.41 152.67C293.31 158.89 291.61 165 289.39 170.9C284.71 183.38 277.82 194.98 269.31 205.23C268.73 205.92 268.15 206.61 267.56 207.29C266.59 208.4 265.6 209.5 264.57 210.58C256.85 218.85 248.01 226.02 238.46 232.08C230.77 236.97 222.63 241.12 214.2 244.59C213.28 244.26 212.39 243.9 211.52 243.54C221.91 239.31 231.91 234.09 241.19 227.79C250.09 221.76 258.26 214.7 265.4 206.67C266.35 205.61 267.28 204.53 268.18 203.43C268.98 202.47 269.77 201.49 270.54 200.5C278.57 190.16 284.97 178.47 289.08 166.02C290.83 160.74 292.18 155.31 293.07 149.82C293.53 150.76 293.98 151.71 294.41 152.67Z" fill="white"/>
<path d="M141.84 255.055C140.97 255.645 140.09 256.235 139.21 256.825H139.2C133.4 257.615 127.55 258.115 121.69 258.335C108.67 258.835 95.5602 257.915 82.7302 255.625C70.7302 253.495 58.9602 250.145 47.6202 245.685C36.7302 241.385 26.2502 236.085 16.3502 229.825C15.7402 229.435 15.1303 229.045 14.5203 228.645H14.5103L13.5703 226.125C15.9603 227.695 18.3803 229.205 20.8303 230.665C30.8503 236.625 41.4102 241.675 52.3602 245.665C63.7702 249.825 75.5803 252.835 87.5803 254.685C100.37 256.655 113.38 257.245 126.3 256.555C131.51 256.275 136.68 255.755 141.84 255.055Z" fill="white"/>
<path d="M139.159 46.579C138.179 47.819 137.179 49.049 136.179 50.249C129.999 57.699 123.169 64.6091 115.809 70.9091C108.419 77.2291 100.519 82.9491 92.1888 87.9691C83.8988 92.9691 75.1988 97.2991 66.1888 100.849C62.5288 102.299 58.8088 103.639 55.0388 104.819C55.0188 104.359 54.9887 103.909 54.9688 103.449C59.6287 101.909 64.2388 100.189 68.7688 98.249C77.5688 94.469 86.0688 89.989 94.1588 84.829C102.229 79.679 109.899 73.889 117.029 67.499C124.169 61.099 130.779 54.119 136.749 46.619C136.899 46.429 137.049 46.2391 137.199 46.0391C137.859 46.2091 138.509 46.389 139.159 46.579Z" fill="white"/>
<path d="M268.179 203.432C267.999 204.722 267.799 206.013 267.559 207.293C267.179 209.323 266.719 211.333 266.169 213.323C264.579 219.063 262.229 224.602 259.099 229.682C256.179 234.422 252.659 238.783 248.779 242.773C248.359 243.203 247.939 243.623 247.509 244.043C246.289 244.423 245.089 244.762 243.879 245.062C246.039 243.023 248.109 240.883 250.059 238.643C257.059 230.553 262.039 220.963 264.569 210.593C264.739 209.893 264.889 209.202 265.039 208.503C265.169 207.893 265.289 207.283 265.399 206.673C267.489 195.223 266.939 183.393 265.389 171.913C264.559 165.773 263.419 159.673 262.209 153.603C261.139 148.213 260.009 142.842 258.509 137.552C256.159 129.292 252.839 121.282 247.539 114.562C248.189 114.642 248.839 114.743 249.499 114.853C252.069 117.893 254.149 121.393 255.859 124.943C258.249 129.903 259.979 135.153 261.379 140.463C262.859 146.053 264.049 151.723 265.149 157.403C266.359 163.633 267.409 169.903 268.119 176.223C269.119 185.233 269.399 194.432 268.179 203.432Z" fill="white"/>
<path d="M181.098 64.596C174.848 70.796 182.988 97.476 202.228 106.476C220.008 114.786 244.068 106.506 245.498 97.726C247.008 88.446 223.408 77.646 210.998 71.966C197.168 65.636 185.458 60.276 181.098 64.606V64.596Z" fill="#D0E0F9"/>
<path d="M195.159 191.8C201.149 189.19 207.139 186.57 213.129 183.96C210.789 176.88 208.459 169.81 206.119 162.73C208.009 160.28 209.899 157.82 211.789 155.37C209.289 152.19 206.799 149.02 204.299 145.84C206.069 143.23 207.839 140.61 209.609 138C214.469 139.52 228.149 144.51 236.909 158.26C239.289 161.99 244.679 170.46 243.779 181.84C243.149 189.85 239.689 195.43 238.779 196.84C234.889 202.84 230.059 205.72 225.779 208.28C221.669 210.74 211.409 216.68 197.559 215.72C191.749 215.32 187.089 213.83 184.039 212.61C183.459 211.21 182.879 209.8 182.309 208.4C187.499 207.91 192.679 207.41 197.869 206.92L192.389 200.4C193.829 199.69 195.269 198.99 196.719 198.28C196.199 196.12 195.679 193.96 195.159 191.8Z" fill="white"/>
<path d="M79.7998 152.1C82.4198 154.37 85.0298 156.64 87.6498 158.91C86.0998 167.88 84.5598 176.85 83.0098 185.83C89.6898 189.99 96.3698 194.16 103.05 198.32C102.21 201.58 101.37 204.84 100.53 208.1C104.28 209.14 108.04 210.17 111.79 211.21C111.74 212.54 111.69 213.88 111.64 215.21C107.33 216.46 100.71 217.92 92.5598 217.88C86.8198 217.85 74.1997 217.63 61.5997 209.83C56.0797 206.41 48.9798 202.02 45.6998 193.22C42.5698 184.83 44.6898 177.19 45.7098 173.47C50.0998 157.62 63.2998 149.05 69.2998 145.16C77.2298 140.02 84.7198 137.56 89.6998 136.32C86.3998 141.58 83.0898 146.84 79.7898 152.1H79.7998Z" fill="white"/>
<path d="M52.918 203.612C55.928 206.022 64.5979 212.292 75.6479 211.102C78.9479 210.742 84.218 210.172 87.318 205.992C90.508 201.682 90.2679 195.052 86.8779 188.992C92.2779 192.102 97.678 195.222 103.068 198.332C102.228 201.592 101.388 204.852 100.548 208.112C104.138 209.222 107.728 210.332 111.318 211.432C111.278 212.542 111.248 213.652 111.208 214.762C105.948 216.512 95.668 219.142 82.918 217.212C67.548 214.882 57.238 207.232 52.918 203.612Z" fill="#A4A5F4"/>
<path d="M195.49 191.733C197.53 193.483 202.57 197.343 210.05 198.293C221.85 199.783 230.22 192.813 231.61 191.623C242.73 182.053 241.49 167.653 241.35 166.273C242.73 168.983 246.79 177.843 243.84 187.953C241.89 194.623 237.83 198.593 234.51 201.843C223.55 212.553 210.23 214.603 206.29 215.063C196.73 216.183 188.86 214.263 184.07 212.623C183.49 211.223 182.91 209.813 182.34 208.413C187.53 207.923 192.71 207.423 197.9 206.933L192.42 200.413C194.05 199.773 195.68 199.133 197.31 198.483C196.71 196.233 196.12 193.983 195.52 191.733H195.49Z" fill="#A4A5F4"/>
<path d="M98.3789 194.731C101.819 195.671 107.069 196.601 113.079 195.341C117.269 194.471 118.999 193.131 123.599 191.841C127.979 190.611 131.799 190.521 139.269 190.401C158.049 190.081 157.119 192.811 168.849 192.261C171.529 192.131 175.709 191.791 179.299 194.281C180.939 195.411 183.149 197.631 183.709 198.181C186.289 200.751 187.059 202.091 188.909 202.641C190.659 203.161 192.339 202.681 193.429 202.231C194.689 203.731 195.949 205.231 197.209 206.731C192.239 207.291 187.279 207.851 182.309 208.411C182.889 209.811 183.469 211.221 184.039 212.621C178.799 213.561 175.079 215.301 172.649 216.731C170.019 218.271 169.309 219.201 162.039 224.901C157.559 228.411 155.299 230.171 154.259 230.571C147.689 233.081 141.029 230.511 137.869 229.291C135.779 228.481 134.079 227.811 132.589 226.121C131.049 224.381 131.199 223.221 129.809 222.511C129.089 222.141 127.989 221.911 123.529 223.401C118.899 224.951 118.529 225.731 117.199 225.671C115.299 225.591 112.689 223.851 109.759 216.341C110.559 215.991 111.349 215.641 112.149 215.281C112.209 213.871 112.259 212.471 112.319 211.061C108.539 210.021 104.759 208.991 100.989 207.951C101.769 204.691 102.549 201.431 103.319 198.171C101.669 197.021 100.019 195.871 98.3789 194.731Z" fill="white"/>
<path d="M127.628 207.715C125.898 199.935 137.688 186.605 150.568 186.555C162.598 186.505 174.338 198.015 173.038 205.425C172.968 205.805 172.888 206.075 172.788 206.375C170.488 213.525 160.338 217.375 152.898 218.155C142.848 219.205 129.818 215.495 127.718 208.095C127.668 207.905 127.638 207.775 127.618 207.715H127.628Z" fill="#F7C532"/>
<path d="M83.0588 186.333C84.5888 177.193 86.1188 168.063 87.6488 158.923C85.0288 156.653 82.4188 154.383 79.7988 152.113C83.0088 146.663 86.2088 141.213 89.4188 135.773C91.8588 135.443 94.3088 135.103 96.7488 134.773C95.6488 138.933 94.5589 143.103 93.4589 147.263C96.4189 147.683 99.3789 148.113 102.339 148.533C100.269 154.963 98.1988 161.393 96.1288 167.833C101.259 171.553 106.389 175.273 111.519 179.003C110.789 184.503 110.069 189.993 109.339 195.493C107.499 195.933 104.619 196.353 101.299 195.673C98.9188 195.183 97.2688 194.313 95.8588 193.563C92.6588 191.863 88.3088 189.463 83.0488 186.353L83.0588 186.333Z" fill="#D0E0F9"/>
<path d="M181.719 195.36C181.299 191.12 180.879 186.88 180.449 182.65C185.169 180.76 189.889 178.88 194.609 176.99C193.029 174.08 191.449 171.16 189.869 168.25C192.189 166.31 194.509 164.37 196.829 162.43C194.219 157.8 191.599 153.18 188.989 148.55C192.789 146.87 196.599 145.19 200.399 143.51C199.999 141.96 199.599 140.42 199.209 138.87C202.679 138.58 206.149 138.29 209.629 138C207.859 140.61 206.089 143.23 204.319 145.84C206.819 149.02 209.309 152.19 211.809 155.37C209.679 157.7 207.559 160.03 205.429 162.36C207.999 169.56 210.569 176.76 213.139 183.96C207.069 186.53 200.989 189.1 194.919 191.66C195.389 193.55 195.849 195.43 196.319 197.32C195.159 198.33 193.999 199.34 192.839 200.36C193.179 200.95 193.509 201.54 193.849 202.13C192.869 202.51 191.079 203.03 188.929 202.64C187.939 202.46 185.229 201.97 184.369 200.08C183.949 199.15 184.309 198.6 183.759 197.47C183.239 196.39 182.359 195.74 181.729 195.37L181.719 195.36Z" fill="#D0E0F9"/>
<path d="M209.278 137.883C235.008 146.693 248.238 170.243 243.348 187.953C239.138 203.223 222.038 212.113 209.278 214.623C198.438 216.753 189.348 214.553 184.538 212.993C183.798 211.463 183.058 209.933 182.318 208.403C187.508 207.913 192.688 207.413 197.878 206.923L192.398 200.403C194.028 199.763 195.658 199.123 197.288 198.473C196.498 196.203 195.708 193.933 194.918 191.663C200.988 189.093 207.068 186.523 213.138 183.963L205.728 162.183C207.748 159.913 209.778 157.643 211.798 155.373C209.178 152.213 206.568 149.053 203.948 145.893C205.728 143.223 207.508 140.563 209.278 137.893C206.028 138.223 202.768 138.553 199.518 138.883C199.808 140.433 200.098 141.983 200.388 143.523C196.588 145.203 192.788 146.883 188.978 148.563C191.598 153.403 194.208 158.243 196.828 163.083C194.508 164.813 192.188 166.543 189.868 168.273C191.448 171.183 193.028 174.103 194.608 177.013C189.818 179.033 185.028 181.063 180.238 183.083C180.728 187.183 181.228 191.283 181.718 195.383" stroke="black" stroke-width="1.6" stroke-linecap="round" stroke-linejoin="round"/>
<path d="M109.349 195.483C109.869 189.923 110.389 184.373 110.909 178.813L95.909 168.483C98.209 161.853 100.499 155.223 102.799 148.593L93.4689 147.263C94.7689 143.073 96.0589 138.893 97.3589 134.703C59.4089 139.943 39.479 171.503 44.689 190.633C49.539 208.433 78.6089 224.353 111.649 215.223C111.699 213.893 111.749 212.553 111.799 211.223C108.049 210.183 104.289 209.153 100.539 208.113C101.379 204.853 102.219 201.593 103.059 198.333C96.389 194.333 89.729 190.333 83.059 186.333C84.589 177.193 86.1189 168.063 87.6489 158.923C85.0289 156.653 82.419 154.383 79.799 152.113C83.099 146.853 86.409 141.593 89.709 136.333" stroke="black" stroke-width="1.6" stroke-linecap="round" stroke-linejoin="round"/>
<path d="M97.6895 194.484C100.409 195.504 104.729 196.694 109.799 196.044C114.859 195.394 117.049 193.394 122.469 191.934C125.649 191.084 130.519 190.254 137.029 191.044" stroke="black" stroke-width="1.6" stroke-linecap="round" stroke-linejoin="round"/>
<path d="M127.628 207.715C125.898 199.935 137.688 186.605 150.568 186.555C162.598 186.505 174.338 198.015 173.038 205.425C172.968 205.805 172.888 206.075 172.788 206.375C170.488 213.525 160.338 217.375 152.898 218.155C142.848 219.205 129.818 215.495 127.718 208.095C127.668 207.905 127.638 207.775 127.618 207.715H127.628Z" stroke="black" stroke-width="1.6" stroke-linecap="round" stroke-linejoin="round"/>
<path d="M165.299 191.945C166.509 192.015 168.279 192.155 170.409 192.455C176.529 193.315 179.589 193.745 181.969 195.955C184.189 198.025 183.579 199.515 185.749 201.065C188.269 202.865 191.539 202.605 193.849 202.125" stroke="black" stroke-width="1.6" stroke-linecap="round" stroke-linejoin="round"/>
<path d="M109.738 215.502C111.958 222.932 114.598 225.192 116.848 225.612C121.278 226.452 125.398 220.402 129.408 222.172C130.878 222.822 131.178 224.002 132.188 225.392C136.258 231.012 146.618 232.762 153.748 230.612C161.008 228.432 160.798 223.452 170.078 218.052C175.548 214.872 180.818 213.582 184.548 212.992" stroke="black" stroke-width="1.6" stroke-linecap="round" stroke-linejoin="round"/>
<path d="M66.2683 203.102C61.4683 202.092 57.1484 198.412 55.7084 193.662C55.0084 191.322 54.6283 187.472 56.1483 186.662C57.7483 185.812 59.5383 189.292 65.0383 191.442C69.8783 193.332 72.0983 192.042 74.1483 194.332C75.8183 196.192 76.4683 199.422 75.1483 201.442C73.1183 204.562 67.3983 203.352 66.2583 203.112L66.2683 203.102Z" fill="#D0E0F9"/>
<path d="M51.9397 181.652C50.7297 180.612 51.1297 177.682 52.8297 176.982C53.9197 176.532 55.5996 176.982 56.1596 178.312C56.7296 179.642 55.8397 181.042 54.8297 181.642C53.9797 182.142 52.6897 182.292 51.9397 181.642V181.652Z" fill="#D0E0F9"/>
<path d="M133.53 202.02C134.76 197.38 139.18 195.16 142.49 193.5C145 192.24 150.85 189.31 153.3 191.5C155 193.01 153.27 195.35 155.23 197.72C156.17 198.86 158.46 199.58 163.01 200.98C166.43 202.03 167.22 202.1 167.82 202.98C169.11 204.85 168.03 208.08 166.86 209.94C162.82 216.35 151.08 216.92 143.08 214.24C140.55 213.39 134.96 211.52 133.52 206.83C132.85 204.65 133.34 202.7 133.52 202.02H133.53Z" fill="#F4CF70"/>
<path d="M138.419 201.214C137.999 199.304 141.189 196.884 142.719 197.584C143.889 198.124 144.429 200.654 143.309 202.104C142.619 203.004 141.559 203.134 141.459 203.144C140.059 203.294 138.659 202.294 138.419 201.214Z" fill="white"/>
<path d="M133.569 205.933C132.969 200.753 137.619 197.193 141.529 194.773C143.619 193.473 145.959 192.273 148.369 191.683C149.659 191.373 151.019 191.223 152.249 191.813C153.479 192.403 153.959 193.363 154.259 194.623C154.779 196.763 155.859 198.663 158.079 199.383C158.129 199.393 158.159 199.323 158.109 199.303C156.999 198.823 155.999 198.053 155.329 197.033C154.989 196.513 154.749 195.933 154.609 195.333C154.459 194.683 154.429 194.013 154.189 193.383C153.379 191.333 150.889 190.723 148.909 191.013C146.289 191.403 143.789 192.563 141.529 193.903C139.269 195.243 137.199 196.683 135.469 198.513C133.589 200.503 132.269 203.243 133.079 206.003C133.159 206.263 133.609 206.233 133.579 205.933H133.569Z" fill="black"/>
<path d="M164.62 201.621C165.52 201.711 166.22 202.481 166.5 203.301C166.67 203.791 166.8 204.311 166.79 204.841C166.78 205.411 166.61 205.991 166.43 206.531C166.43 206.561 166.47 206.571 166.48 206.541C166.69 205.931 166.85 205.321 166.95 204.681C167.04 204.111 167.04 203.541 166.81 203.011C166.44 202.141 165.61 201.461 164.63 201.461C164.52 201.461 164.53 201.611 164.63 201.621H164.62Z" fill="black"/>
<path d="M165.52 208.96C163.75 211.15 161.42 212.56 158.74 213.36C155.64 214.29 152.39 214.23 149.19 214.37C149.07 214.37 149.07 214.55 149.19 214.56C152.49 214.66 155.92 214.56 159.1 213.57C161.62 212.79 164.16 211.29 165.59 209.01C165.62 208.97 165.55 208.92 165.52 208.96Z" fill="black"/>
<path d="M184.129 127.595C184.109 132.335 184.569 137.765 182.879 141.985C181.389 145.675 176.819 145.665 175.339 141.985C173.939 138.505 174.089 134.155 174.459 130.045C168.709 131.055 162.569 131.155 158.189 128.575C156.339 127.485 155.639 124.955 156.759 123.105C159.639 118.295 164.359 108.245 170.389 106.935C170.999 106.795 171.819 107.115 171.939 107.805C172.699 112.255 169.379 117.825 166.469 122.495C168.629 122.465 170.919 122.005 172.759 121.765C173.579 121.655 174.389 121.535 175.209 121.405C175.319 119.305 175.559 116.975 175.979 114.455C176.399 111.955 176.939 109.685 177.519 107.675C178.579 103.795 184.759 104.145 184.959 108.665C185.069 111.075 184.999 113.475 184.849 115.885C186.859 120.545 191.389 125.105 184.129 127.595Z" fill="black"/>
<path d="M122.908 127.595C122.888 132.335 123.348 137.765 121.658 141.985C120.168 145.675 115.598 145.665 114.118 141.985C112.718 138.505 112.868 134.155 113.238 130.045C107.488 131.055 101.348 131.155 96.9684 128.575C95.1184 127.485 94.4183 124.955 95.5383 123.105C98.4183 118.295 103.138 108.245 109.168 106.935C109.778 106.795 110.598 107.115 110.718 107.805C111.478 112.255 108.158 117.825 105.248 122.495C107.408 122.465 109.698 122.005 111.538 121.765C112.358 121.655 113.168 121.535 113.988 121.405C114.098 119.305 114.338 116.975 114.758 114.455C115.178 111.955 115.718 109.685 116.298 107.675C117.358 103.795 123.538 104.145 123.738 108.665C123.848 111.075 123.778 113.475 123.628 115.885C125.638 120.545 130.168 125.105 122.908 127.595Z" fill="black"/>
<path d="M153.949 120.646C153.469 113.026 146.269 104.066 138.929 110.736C132.589 108.616 129.509 121.656 129.479 125.846C129.429 133.186 133.969 142.906 142.909 140.976C151.179 139.186 154.399 127.946 153.949 120.646ZM141.229 132.736C135.059 133.956 136.319 120.896 138.549 114.826C138.889 115.256 139.359 115.556 139.959 115.646C147.149 116.726 147.969 131.406 141.229 132.736Z" fill="black"/>
</svg>
