<svg width="150" height="150" viewBox="0 0 150 150" fill="none" xmlns="http://www.w3.org/2000/svg">
<rect width="150" height="150" fill="white"/>
<path d="M93.8219 60.5472C85.9257 60.5472 77.8879 60.2264 70.3691 58.1321C62.9917 56.0849 56.2181 52.1132 50.1804 47.5189C46.2275 44.5283 42.6332 42.1415 37.5011 42.5C32.4804 42.7717 27.6792 44.6465 23.803 47.8491C17.2747 53.5661 18.2559 64.1604 20.8691 71.5755C24.7936 82.7736 36.737 90.5755 46.8879 95.6227C58.6143 101.481 71.5011 104.887 84.4162 106.84C95.737 108.566 110.284 109.811 120.095 102.425C129.105 95.6227 131.577 80.1132 129.369 69.6415C128.833 66.548 127.186 63.7567 124.737 61.7925C118.407 57.1604 108.963 60.2547 101.85 60.4057C99.2087 60.4623 96.52 60.5283 93.8219 60.5472Z" fill="#F2F2F2"/>
<path d="M74.8787 125.198C94.0054 125.198 109.511 124.231 109.511 123.038C109.511 121.845 94.0054 120.877 74.8787 120.877C55.7519 120.877 40.2466 121.845 40.2466 123.038C40.2466 124.231 55.7519 125.198 74.8787 125.198Z" fill="#F2F2F2"/>
<path d="M26.0107 39.7453L38.2749 38.7075C39.8042 38.5736 41.3331 38.9691 42.6057 39.8278C43.8783 40.6865 44.8172 41.9562 45.2655 43.4245L57.0202 82.7642L54.7183 86.8868C54.127 87.949 53.8352 89.1518 53.8738 90.3669C53.9124 91.582 54.2801 92.7638 54.9375 93.7863C55.595 94.8089 56.5177 95.6338 57.6072 96.1732C58.6967 96.7126 59.9121 96.9462 61.124 96.8491L108.199 92.8491" stroke="#BABABA" stroke-linecap="round" stroke-linejoin="round"/>
<path d="M47.02 49.3962L101.737 44.7547C102.276 44.7085 102.819 44.7843 103.324 44.9764C103.83 45.1685 104.286 45.472 104.658 45.8643C105.031 46.2567 105.31 46.7279 105.476 47.243C105.641 47.758 105.689 48.3037 105.614 48.8396L101.907 75.6038C101.794 76.4068 101.415 77.1486 100.83 77.7098C100.244 78.2711 99.4874 78.6192 98.6804 78.6981L57.02 82.7642L47.02 49.3962Z" fill="white" stroke="#BABABA" stroke-linecap="round" stroke-linejoin="round"/>
<path d="M66.3597 105.868C68.8137 105.868 70.8031 103.879 70.8031 101.425C70.8031 98.9705 68.8137 96.9811 66.3597 96.9811C63.9056 96.9811 61.9163 98.9705 61.9163 101.425C61.9163 103.879 63.9056 105.868 66.3597 105.868Z" fill="white" stroke="#BABABA" stroke-linecap="round" stroke-linejoin="round"/>
<path d="M97.303 103.245C99.757 103.245 101.746 101.256 101.746 98.8019C101.746 96.3479 99.757 94.3585 97.303 94.3585C94.849 94.3585 92.8596 96.3479 92.8596 98.8019C92.8596 101.256 94.849 103.245 97.303 103.245Z" fill="white" stroke="#BABABA" stroke-linecap="round" stroke-linejoin="round"/>
<path d="M35.7224 37.6453L24.1602 38.6264C23.1582 38.7114 22.4149 39.5926 22.4999 40.5945C22.5849 41.5965 23.4661 42.3398 24.4681 42.2548L36.0303 41.2738C37.0323 41.1887 37.7756 40.3076 37.6906 39.3056C37.6056 38.3036 36.7244 37.5603 35.7224 37.6453Z" fill="#D2D2D2"/>
<path d="M70.0579 70.066C70.2835 68.3443 71.0909 66.7514 72.3462 65.5516C73.6016 64.3518 75.2293 63.6172 76.9595 63.4696C78.6897 63.322 80.4183 63.7704 81.8587 64.7402C83.2991 65.7101 84.3647 67.1432 84.8786 68.8019" stroke="#BABABA" stroke-linecap="round" stroke-linejoin="round"/>
<path d="M85.0012 59.8868C85.5847 59.8868 86.0578 59.4138 86.0578 58.8302C86.0578 58.2467 85.5847 57.7736 85.0012 57.7736C84.4176 57.7736 83.9446 58.2467 83.9446 58.8302C83.9446 59.4138 84.4176 59.8868 85.0012 59.8868Z" fill="#BABABA"/>
<path d="M68.2558 61.3019C68.8394 61.3019 69.3124 60.8289 69.3124 60.2453C69.3124 59.6618 68.8394 59.1887 68.2558 59.1887C67.6723 59.1887 67.1992 59.6618 67.1992 60.2453C67.1992 60.8289 67.6723 61.3019 68.2558 61.3019Z" fill="#BABABA"/>
<path d="M38.4917 100.113V104.179" stroke="#BABABA" stroke-linecap="round" stroke-linejoin="round"/>
<path d="M36.4636 102.142H40.5202" stroke="#BABABA" stroke-linecap="round" stroke-linejoin="round"/>
<path d="M103.312 24.5283V28.5849" stroke="#BABABA" stroke-linecap="round" stroke-linejoin="round"/>
<path d="M101.284 26.5566H105.341" stroke="#BABABA" stroke-linecap="round" stroke-linejoin="round"/>
<path d="M55.2842 36.6509V40.7076" stroke="#BABABA" stroke-linecap="round" stroke-linejoin="round"/>
<path d="M53.2463 38.6792H57.3124" stroke="#BABABA" stroke-linecap="round" stroke-linejoin="round"/>
<path d="M113.435 51.566C113.967 51.566 114.397 51.1352 114.397 50.6038C114.397 50.0723 113.967 49.6415 113.435 49.6415C112.904 49.6415 112.473 50.0723 112.473 50.6038C112.473 51.1352 112.904 51.566 113.435 51.566Z" fill="white" stroke="#BABABA" stroke-linecap="round" stroke-linejoin="round"/>
<path d="M77.4729 42.9151C77.9835 42.9151 78.3974 42.5012 78.3974 41.9906C78.3974 41.48 77.9835 41.066 77.4729 41.066C76.9623 41.066 76.5483 41.48 76.5483 41.9906C76.5483 42.5012 76.9623 42.9151 77.4729 42.9151Z" fill="#CFCFCF"/>
<path d="M83.6804 110.009C84.191 110.009 84.6049 109.596 84.6049 109.085C84.6049 108.574 84.191 108.16 83.6804 108.16C83.1698 108.16 82.7559 108.574 82.7559 109.085C82.7559 109.596 83.1698 110.009 83.6804 110.009Z" fill="#CFCFCF"/>
</svg>
