<svg width="195" height="216" viewBox="0 0 195 216" fill="none" xmlns="http://www.w3.org/2000/svg">
<g filter="url(#filter0_f_48_9314)">
<rect x="25" y="179" width="124" height="12" fill="#1B3554"/>
</g>
<rect x="26" y="15" width="124" height="79" fill="#E0E5EC"/>
<path fill-rule="evenodd" clip-rule="evenodd" d="M26 15V135H6V62.4366L16.0016 47.0864L26 15Z" fill="#CFD4DC"/>
<path fill-rule="evenodd" clip-rule="evenodd" d="M149 15V135H169V62.4366L158.998 47.0864L149 15Z" fill="#CFD4DC"/>
<path d="M6 62H169V198C169 200.761 166.761 203 164 203H11C8.23858 203 6 200.761 6 198V62Z" fill="white"/>
<path opacity="0.5" fill-rule="evenodd" clip-rule="evenodd" d="M55 117.548C55 116.848 55.3594 116.197 55.9811 115.876C57.3648 115.161 60.0086 114 62.5778 114C65.146 114 67.7143 115.161 69.0525 115.875C69.6555 116.197 70 116.835 70 117.519C70 119.129 68.1457 120.185 66.6307 119.639C65.4137 119.201 63.9827 118.846 62.54 118.846C61.0687 118.846 59.5975 119.215 58.3503 119.665C56.8381 120.211 55 119.155 55 117.548Z" fill="#1B3554"/>
<path opacity="0.5" fill-rule="evenodd" clip-rule="evenodd" d="M106 117.548C106 116.848 106.359 116.197 106.981 115.876C108.365 115.161 111.009 114 113.578 114C116.146 114 118.714 115.161 120.053 115.875C120.656 116.197 121 116.835 121 117.519C121 119.129 119.146 120.185 117.631 119.639C116.414 119.201 114.983 118.846 113.54 118.846C112.069 118.846 110.597 119.215 109.35 119.665C107.838 120.211 106 119.155 106 117.548Z" fill="#1B3554"/>
<ellipse opacity="0.5" cx="88" cy="138.003" rx="16" ry="7.00303" fill="#1B3554"/>
<circle opacity="0.149343" cx="51" cy="77" r="6" fill="#1B3554"/>
<circle opacity="0.149343" cx="124" cy="77" r="6" fill="#1B3554"/>
<path d="M51 76.6926V39.5C51 19.3416 67.3416 3 87.5 3C107.658 3 124 19.3416 124 39.5V76.6926" stroke="#5E7085" stroke-width="5" stroke-linecap="round" stroke-linejoin="round"/>
<g filter="url(#filter1_d_48_9314)">
<circle cx="168.6" cy="175.6" r="17.6" fill="url(#paint0_linear_48_9314)"/>
</g>
<path d="M164.739 183.224H173.433V181.183H168.241C170.283 179.458 173.152 177.135 173.152 174.16C173.152 171.925 171.761 170.288 168.998 170.288C166.692 170.288 164.809 171.644 164.721 174.583H167.115C167.132 173.228 167.784 172.383 168.963 172.383C170.177 172.383 170.688 173.157 170.688 174.301C170.688 176.66 167.643 178.93 164.739 181.394V183.224Z" fill="white"/>
<defs>
<filter id="filter0_f_48_9314" x="0.813055" y="154.813" width="172.374" height="60.3739" filterUnits="userSpaceOnUse" color-interpolation-filters="sRGB">
<feFlood flood-opacity="0" result="BackgroundImageFix"/>
<feBlend mode="normal" in="SourceGraphic" in2="BackgroundImageFix" result="shape"/>
<feGaussianBlur stdDeviation="12.0935" result="effect1_foregroundBlur_48_9314"/>
</filter>
<filter id="filter1_d_48_9314" x="143" y="152" width="51.1992" height="51.2" filterUnits="userSpaceOnUse" color-interpolation-filters="sRGB">
<feFlood flood-opacity="0" result="BackgroundImageFix"/>
<feColorMatrix in="SourceAlpha" type="matrix" values="0 0 0 0 0 0 0 0 0 0 0 0 0 0 0 0 0 0 127 0" result="hardAlpha"/>
<feOffset dy="2"/>
<feGaussianBlur stdDeviation="4"/>
<feColorMatrix type="matrix" values="0 0 0 0 1 0 0 0 0 0.415686 0 0 0 0 0.596078 0 0 0 0.3 0"/>
<feBlend mode="normal" in2="BackgroundImageFix" result="effect1_dropShadow_48_9314"/>
<feBlend mode="normal" in="SourceGraphic" in2="effect1_dropShadow_48_9314" result="shape"/>
</filter>
<linearGradient id="paint0_linear_48_9314" x1="168.6" y1="140.4" x2="133.4" y2="175.6" gradientUnits="userSpaceOnUse">
<stop stop-color="#FF8960"/>
<stop offset="1" stop-color="#FF62A5"/>
</linearGradient>
</defs>
</svg>
