<svg width="320" height="320" viewBox="0 0 320 320" fill="none" xmlns="http://www.w3.org/2000/svg">
<path d="M307.048 158.033C307.048 158.033 307.058 158.053 307.048 158.063C306.368 159.483 305.638 160.883 304.878 162.253C302.278 166.903 299.238 171.253 295.778 175.133C293.858 177.293 291.858 179.253 289.808 181.043C289.248 181.533 288.678 182.013 288.108 182.463C258.908 206.233 218.488 197.773 192.778 235.333C187.528 242.993 189.068 243.333 182.748 252.053C174.778 263.023 149.278 298.173 111.848 296.193C109.268 296.053 106.678 295.743 104.108 295.273C103.348 295.133 102.588 294.983 101.828 294.813C81.7682 290.353 63.1182 276.163 54.9982 258.073C43.2382 231.863 62.6182 217.623 51.6482 189.183C40.8882 161.283 17.9582 165.253 7.50817 139.013C-3.62183 111.073 5.03813 67.9229 35.5981 47.3829C40.3881 44.1729 45.5781 41.6029 50.9781 39.6429C51.8181 39.3429 52.6782 39.0529 53.5282 38.7729C75.1182 31.8129 99.5582 34.4029 115.188 44.7129C115.558 44.9629 115.938 45.2129 116.318 45.4829C116.578 45.6629 116.838 45.8429 117.108 46.0329C124.958 51.7129 134.098 61.1029 157.998 77.4829C164.018 81.6029 167.028 83.6629 168.028 84.1729C183.858 92.1329 199.398 86.4828 216.048 79.8829C216.608 79.6628 217.168 79.4329 217.738 79.2129C234.158 72.6829 251.698 65.6629 271.698 70.1229C274.948 70.8529 296.698 76.0128 307.818 94.2029C318.488 111.653 317.098 137.233 307.048 158.033Z" fill="#D0E0F9"/>
<path d="M114.618 273.083C112.338 280.983 108.748 288.483 104.108 295.273C103.348 295.133 102.588 294.983 101.828 294.813C108.568 284.963 113.148 273.693 114.778 261.733C116.328 250.313 115.268 238.553 111.768 227.573C108.248 216.513 102.118 206.683 94.4776 198.003C79.5476 181.043 60.2777 168.553 45.6977 151.243C38.7277 142.963 32.8577 133.623 29.7977 123.173C26.3177 111.263 26.4677 98.3434 28.0277 86.1234C29.4777 74.7034 32.8977 63.6834 39.0577 53.9134C42.3777 48.6434 46.3876 43.8134 50.9776 39.6434C51.8176 39.3434 52.6777 39.0534 53.5277 38.7734C46.0677 45.5934 39.9777 54.1234 35.9177 63.3634C30.9477 74.6734 29.2277 87.2434 29.0177 99.5034C28.8177 111.773 30.8677 123.753 36.6977 134.643C41.9577 144.483 49.3977 152.943 57.3877 160.653C73.5477 176.263 92.7377 189.223 105.078 208.393C117.248 227.303 120.858 251.453 114.618 273.083Z" fill="white"/>
<path d="M289.808 181.044C289.248 181.534 288.678 182.014 288.108 182.464C268.008 173.074 245.538 170.854 223.678 169.004C200.498 167.044 176.788 165.224 155.378 155.344C146.278 151.144 137.698 145.564 130.668 138.374C123.068 130.604 117.828 121.144 114.878 110.714C111.588 99.1144 110.528 86.7444 111.128 74.7244C111.628 64.7644 113.358 54.9744 116.318 45.4844C116.578 45.6644 116.838 45.8444 117.108 46.0344C116.958 46.5944 116.818 47.1544 116.678 47.7144C113.678 59.7244 112.268 72.0444 112.758 84.4244C113.228 96.5544 115.218 109.084 120.358 120.174C129.108 139.104 147.408 151.184 166.618 157.754C189.998 165.734 215.038 165.864 239.358 168.474C256.518 170.304 274.148 173.524 289.808 181.044Z" fill="white"/>
<path d="M307.049 158.031C307.049 158.031 307.059 158.051 307.049 158.061C306.369 159.481 305.639 160.881 304.879 162.251C304.889 162.071 304.899 161.901 304.909 161.721C305.159 155.841 304.639 149.941 303.309 144.211C302.019 138.691 300.109 133.121 296.959 128.361C293.799 123.581 289.169 120.251 284.209 117.531C278.929 114.631 273.409 112.121 267.859 109.791C262.059 107.351 256.149 105.161 250.159 103.221C241.069 100.281 231.129 98.0509 223.609 91.8009C219.879 88.7209 217.169 84.6109 216.049 79.8809C216.609 79.6609 217.169 79.4309 217.739 79.2109C218.139 80.7809 218.709 82.3109 219.479 83.7509C221.629 87.7609 225.019 90.7609 228.909 93.0309C232.979 95.4109 237.439 97.0209 241.919 98.4509C247.239 100.161 252.609 101.721 257.869 103.621C263.799 105.751 269.649 108.151 275.379 110.781C280.629 113.191 285.999 115.671 290.719 119.051C293.029 120.711 295.189 122.601 296.989 124.811C298.809 127.061 300.289 129.561 301.499 132.191C303.919 137.501 305.509 143.211 306.349 148.971C306.779 151.971 307.019 155.001 307.049 158.031Z" fill="white"/>
<path d="M187.545 140.767C189.285 136.657 192.145 130.957 196.825 124.967C198.345 123.027 205.395 114.207 218.065 106.827C222.115 104.467 229.785 100.477 239.885 98.7173C244.125 97.9773 251.755 96.7273 254.265 100.387C254.375 100.547 254.925 101.367 255.015 102.477C255.345 106.377 249.765 110.787 241.635 113.847C241.635 113.847 237.995 115.217 233.055 118.037C228.785 120.477 222.495 124.127 216.645 130.897C214.485 133.397 211.625 137.197 209.125 142.437C201.935 141.877 194.745 141.327 187.555 140.767H187.545Z" fill="#A4A5F4"/>
<path d="M191.144 133.48C191.634 133.12 197.394 129.03 204.034 131.43C208.634 133.09 210.784 136.84 211.324 137.86C210.694 139.35 210.074 140.84 209.444 142.33C208.934 140.68 208.154 139.57 207.434 138.82C203.784 135 196.374 134.9 188.834 138.41C189.604 136.77 190.364 135.12 191.134 133.48H191.144Z" fill="#D0E0F9"/>
<path d="M159.368 210.243C205.142 199.801 239.006 177.12 235.005 159.583C231.005 142.045 190.655 136.293 144.881 146.734C99.1071 157.176 65.243 179.858 69.2436 197.395C73.2441 214.932 113.594 220.685 159.368 210.243Z" fill="#D0E0F9"/>
<path d="M233.304 181.264C223.654 211.504 183.324 222.844 170.794 226.374C162.984 228.574 156.234 229.634 152.404 230.234C142.084 231.834 130.394 233.564 115.974 231.534C109.294 230.594 103.634 229.794 96.714 226.654C80.174 219.124 70.324 204.514 71.274 203.484C71.594 203.154 73.3041 203.924 79.2441 208.484C79.4541 208.654 79.674 208.824 79.894 208.994C79.884 208.914 79.8741 208.824 79.8641 208.734C82.5141 209.784 85.5339 210.844 88.8839 211.794C96.764 214.014 105.964 215.494 119.824 215.224C127.334 215.064 152.944 214.064 186.324 202.124C212.534 192.754 221.234 184.614 225.624 179.784C227.764 177.424 229.584 175.084 231.094 172.924C231.174 173.124 231.244 173.304 231.294 173.464C232.404 171.444 233.484 169.414 234.574 167.394C234.694 167.154 234.834 166.924 234.954 166.694C235.094 166.454 235.214 166.224 235.334 165.984C235.534 172.814 234.334 177.964 233.284 181.264H233.304Z" fill="#D0E0F9"/>
<path d="M231.104 172.93C229.594 175.1 227.774 177.43 225.634 179.79C221.244 184.62 212.544 192.76 186.334 202.13C152.944 214.07 127.334 215.08 119.834 215.23C105.974 215.5 96.7742 214.02 88.8942 211.8C85.5442 210.85 82.5243 209.79 79.8743 208.74C79.7643 207.95 79.6643 206.91 79.7043 205.69C80.3443 183.44 122.394 166.36 148.614 160.43C175.824 154.29 220.964 152.28 230.544 171.66C230.784 172.12 230.964 172.55 231.104 172.92V172.93Z" fill="#A4A5F4"/>
<path d="M101.595 181.751C105.755 179.791 109.875 177.741 114.125 175.961C118.375 174.181 122.685 172.611 127.035 171.181C131.385 169.751 135.695 168.521 140.085 167.421C144.705 166.271 149.395 165.201 154.155 164.831C156.425 164.651 158.705 164.641 160.965 164.901C163.065 165.141 165.015 165.691 166.995 166.411C168.975 167.131 170.835 168.131 172.475 169.421C174.115 170.711 175.435 172.181 176.895 173.581C178.355 174.981 179.905 176.261 181.715 177.131C183.525 178.001 185.435 178.471 187.415 178.701C191.485 179.171 195.605 178.621 199.685 178.551C201.745 178.511 203.835 178.551 205.855 178.991C207.455 179.331 209.275 179.921 210.425 181.151C211.395 182.181 212.055 183.581 212.185 184.991C212.365 186.881 211.695 188.611 210.475 190.051C209.855 190.771 209.045 191.311 208.205 191.721C207.755 191.941 208.145 192.601 208.595 192.391C210.235 191.641 211.735 190.361 212.525 188.721C213.315 187.081 213.515 185.141 212.925 183.351C212.535 182.191 211.865 181.021 210.955 180.181C209.575 178.911 207.625 178.261 205.825 177.921C201.605 177.131 197.305 177.661 193.045 177.741C188.785 177.821 184.485 177.511 180.925 175.041C179.205 173.851 177.755 172.301 176.275 170.841C174.795 169.381 173.165 167.921 171.325 166.821C167.645 164.621 163.335 163.711 159.085 163.521C154.095 163.291 149.145 164.181 144.305 165.291C139.465 166.401 135.135 167.611 130.625 169.061C121.645 171.961 112.945 175.641 104.555 179.981C103.535 180.511 102.535 181.081 101.545 181.671C101.485 181.701 101.545 181.791 101.595 181.761V181.751Z" fill="black"/>
<path d="M88.2435 170.387C86.8835 171.357 86.3634 173.267 86.3834 174.867C86.4034 176.547 87.1034 178.147 88.2634 179.357C89.4234 180.567 91.0934 181.387 92.8334 181.367C94.9734 181.347 96.8734 180.697 98.7934 179.807C98.9134 179.747 98.8334 179.537 98.7034 179.587C97.0134 180.227 95.1835 180.857 93.3535 180.857C91.7535 180.857 90.0634 180.177 88.9034 179.077C87.7434 177.977 87.0935 176.587 87.0035 175.047C86.9035 173.347 87.5934 171.957 88.3234 170.467C88.3434 170.417 88.2935 170.347 88.2435 170.387Z" fill="black"/>
<path d="M131.075 164.335C132.285 165.285 133.835 164.235 134.905 163.565C136.435 162.625 137.955 161.675 139.485 160.735C142.575 158.845 145.745 157.035 149.105 155.655C152.465 154.275 155.745 153.405 159.235 153.285C163.085 153.155 166.885 153.945 170.655 154.665C172.685 155.045 174.725 155.385 176.785 155.555C178.845 155.725 180.875 155.755 182.855 155.265C182.965 155.235 182.945 155.055 182.825 155.055C180.955 155.165 179.095 155.235 177.235 155.085C175.375 154.935 173.545 154.605 171.705 154.275C168.175 153.645 164.645 152.854 161.045 152.744C154.115 152.544 147.715 155.335 141.845 158.765C140.165 159.745 138.515 160.774 136.875 161.825C136.035 162.365 135.185 162.905 134.345 163.445C133.415 164.035 132.295 164.715 131.175 164.185C131.095 164.145 130.985 164.255 131.075 164.315V164.335Z" fill="black"/>
<path d="M222.475 147.023C221.985 147.143 221.775 147.543 221.655 148.013C221.475 148.733 221.435 149.553 221.485 150.283C221.595 151.753 222.485 152.783 223.725 153.513C226.565 155.183 230.025 155.463 233.225 154.943C233.455 154.903 233.355 154.553 233.125 154.593C230.385 155.023 227.475 154.883 224.915 153.733C223.785 153.223 222.585 152.533 222.055 151.363C221.745 150.683 221.725 149.933 221.765 149.193C221.795 148.533 221.765 147.453 222.505 147.153C222.575 147.123 222.555 147.013 222.475 147.033V147.023Z" fill="black"/>
<path d="M248.664 125.374C248.164 125.614 247.764 125.214 247.694 124.744C247.614 124.224 247.864 123.724 248.094 123.274C248.504 122.494 249.044 121.814 249.694 121.224C250.904 120.134 252.614 119.264 254.274 119.184C254.574 119.174 254.854 119.204 254.984 119.504C255.114 119.804 255.064 120.164 254.994 120.464C254.814 121.244 254.304 121.974 253.774 122.564C252.664 123.824 251.174 124.674 249.524 124.994C249.114 125.074 248.554 125.194 248.154 124.994C247.734 124.794 247.644 124.214 247.634 123.804C247.604 122.814 247.964 121.744 248.554 120.944C248.684 120.764 248.424 120.514 248.254 120.644C247.264 121.344 246.694 122.344 246.604 123.554C246.514 124.764 246.994 126.034 248.304 126.234C249.444 126.404 250.694 126.044 251.724 125.594C252.754 125.144 253.754 124.434 254.534 123.584C255.254 122.804 255.954 121.794 256.164 120.734C256.364 119.764 256.204 118.584 255.174 118.154C254.574 117.904 253.894 118.024 253.274 118.154C252.714 118.274 252.164 118.454 251.634 118.674C250.574 119.124 249.614 119.794 248.804 120.604C247.924 121.494 246.964 122.714 246.804 123.984C246.734 124.594 246.914 125.224 247.494 125.524C247.894 125.734 248.364 125.824 248.754 125.554C248.874 125.474 248.774 125.304 248.644 125.364L248.664 125.374Z" fill="black"/>
<path d="M242.823 91.2271C242.813 90.1171 242.633 88.5371 243.753 87.8571C244.783 87.2371 245.933 88.2471 246.303 89.1771C246.673 90.1071 246.543 91.2571 245.733 91.9271C245.083 92.4671 243.993 92.6471 243.293 92.0871C242.923 91.7971 242.703 91.3271 242.653 90.8671C242.623 90.6271 242.633 90.3571 242.683 90.1171C242.743 89.8671 242.883 89.6671 242.943 89.4171C242.963 89.3071 242.873 89.2071 242.763 89.2371C242.233 89.3771 241.963 90.1271 241.933 90.6171C241.893 91.1971 242.073 91.8271 242.423 92.2971C243.233 93.3971 244.703 93.5371 245.853 92.9071C247.113 92.2071 247.583 90.7271 247.203 89.3671C246.823 88.0071 245.533 86.7371 244.063 87.0471C243.293 87.2071 242.753 87.8571 242.503 88.5671C242.193 89.4571 242.363 90.3871 242.623 91.2571C242.653 91.3771 242.843 91.3571 242.833 91.2271H242.823Z" fill="black"/>
<path d="M94.345 165.76C94.095 166.2 94.115 166.79 94.065 167.29C94.005 167.95 93.965 168.62 93.925 169.28C93.845 170.52 93.785 171.77 93.755 173.01C93.695 175.58 93.675 178.16 93.695 180.73C93.695 181.05 94.175 181.05 94.185 180.73C94.295 178.16 94.405 175.59 94.505 173.01C94.555 171.77 94.575 170.52 94.595 169.28C94.595 168.62 94.615 167.95 94.615 167.29C94.615 166.78 94.675 166.23 94.475 165.76C94.455 165.71 94.375 165.72 94.345 165.76Z" fill="black"/>
<path d="M97.3339 164.276C97.1239 165.586 97.0838 166.926 97.0138 168.246C96.9338 169.646 96.8538 171.046 96.7838 172.446L96.5939 176.526L96.4939 178.626C96.4639 179.306 96.3539 180.016 96.4639 180.676C96.5139 180.976 96.9738 180.946 97.0338 180.676C97.1838 180.056 97.1338 179.376 97.1638 178.746L97.2339 176.766L97.3739 172.566C97.4239 171.206 97.4539 169.846 97.4839 168.486C97.5139 167.126 97.5939 165.686 97.4839 164.286C97.4839 164.206 97.3439 164.176 97.3339 164.266V164.276Z" fill="black"/>
<path d="M187.545 140.767C189.285 136.657 192.145 130.957 196.825 124.967C198.345 123.027 205.395 114.197 218.065 106.827C222.115 104.467 229.785 100.477 239.885 98.7173C244.125 97.9773 251.755 96.7273 254.265 100.387C254.375 100.547 254.925 101.367 255.015 102.477C255.345 106.377 249.765 110.787 241.635 113.847C241.635 113.847 237.995 115.217 233.055 118.037C228.785 120.477 222.495 124.127 216.645 130.897C214.485 133.397 211.635 137.197 209.125 142.437" stroke="black" stroke-width="1.6" stroke-linecap="round" stroke-linejoin="round"/>
<path d="M191.145 133.475C193.035 132.435 196.105 131.145 199.975 131.125C201.735 131.125 207.705 131.095 210.255 134.875C211.005 135.985 211.245 137.105 211.335 137.845" stroke="black" stroke-width="1.6" stroke-linecap="round" stroke-linejoin="round"/>
<path d="M198.604 130.608C199.094 130.568 199.324 130.288 199.614 129.918C199.984 129.458 200.324 128.978 200.674 128.488C201.374 127.508 202.064 126.528 202.814 125.588C204.274 123.748 205.954 122.038 207.274 120.088C207.434 119.848 207.114 119.538 206.874 119.688C204.834 120.968 203.224 122.908 201.764 124.798C201.034 125.738 200.324 126.688 199.674 127.688C199.334 128.218 199.004 128.758 198.734 129.328C198.524 129.768 198.364 130.128 198.564 130.588C198.564 130.598 198.594 130.618 198.604 130.618V130.608Z" fill="black"/>
<path d="M250.113 100.849C250.023 101.149 250.113 101.479 250.093 101.789C250.073 102.069 249.993 102.359 249.883 102.619C249.613 103.219 249.173 103.699 248.703 104.139C248.193 104.609 247.683 105.049 247.153 105.489C246.883 105.719 246.613 105.959 246.363 106.209C246.093 106.469 245.793 106.689 245.523 106.939C245.423 107.029 245.523 107.209 245.653 107.169C245.833 107.119 245.993 107.039 246.173 106.959C246.373 106.869 246.593 106.809 246.793 106.729C247.173 106.579 247.553 106.399 247.893 106.169C248.553 105.729 249.243 105.279 249.813 104.729C250.383 104.179 250.853 103.549 251.073 102.789C251.263 102.129 251.353 101.049 250.703 100.599C250.483 100.449 250.173 100.599 250.103 100.839L250.113 100.849Z" fill="black"/>
<path d="M215.273 115.555C214.403 115.275 213.343 114.525 213.453 113.925C213.593 113.185 215.513 112.645 216.963 113.235C217.723 113.545 218.653 114.285 218.533 114.865C218.373 115.585 216.633 115.995 215.273 115.555Z" stroke="black" stroke-linecap="round" stroke-linejoin="round"/>
<path d="M221.705 111.298C220.835 111.018 219.775 110.268 219.885 109.668C220.025 108.928 221.945 108.388 223.395 108.978C224.155 109.288 225.085 110.028 224.965 110.608C224.805 111.328 223.065 111.738 221.705 111.298Z" stroke="black" stroke-linecap="round" stroke-linejoin="round"/>
<path d="M228.324 107.329C227.454 107.049 226.394 106.299 226.504 105.699C226.644 104.959 228.564 104.419 230.014 105.009C230.774 105.319 231.704 106.059 231.584 106.639C231.424 107.359 229.684 107.769 228.324 107.329Z" stroke="black" stroke-linecap="round" stroke-linejoin="round"/>
<path d="M159.368 210.243C205.142 199.801 239.006 177.12 235.005 159.583C231.005 142.045 190.655 136.293 144.881 146.734C99.1071 157.176 65.243 179.858 69.2436 197.395C73.2441 214.932 113.594 220.685 159.368 210.243Z" stroke="black" stroke-width="1.6" stroke-linecap="round" stroke-linejoin="round"/>
<path d="M79.9038 208.993C76.5938 191.543 107.124 169.903 148.614 160.433C189.364 151.133 225.674 157.003 231.304 173.473" stroke="black" stroke-width="1.6" stroke-linecap="round" stroke-linejoin="round"/>
<path d="M188.524 138.564C191.354 137.154 195.554 135.684 200.474 136.104C202.894 136.304 206.514 136.614 208.064 139.244C208.724 140.364 208.794 141.564 208.754 142.384C206.014 141.794 202.884 141.294 199.404 141.024C195.124 140.694 191.284 140.784 188.004 141.064L188.534 138.574L188.524 138.564Z" stroke="black" stroke-width="1.6" stroke-linecap="round" stroke-linejoin="round"/>
<path d="M235.015 159.484C235.725 163.254 236.345 169.074 235.025 175.874C232.765 187.514 226.165 195.004 222.965 198.634C199.485 225.304 136.325 238.364 104.555 229.374C100.955 228.354 93.8046 226.264 86.3246 220.594C77.3346 213.784 72.5946 205.394 70.2246 200.194" stroke="black" stroke-width="1.6" stroke-linecap="round" stroke-linejoin="round"/>
<path d="M93.4144 199.595C93.5444 203.655 97.5844 206.455 99.0144 207.455C108.114 213.775 121.744 211.075 127.354 205.695C128.055 205.025 128.514 204.425 128.354 203.935C127.634 201.685 115.565 207.525 105.115 202.685C99.7145 200.185 96.1545 195.475 94.2445 196.745C93.3345 197.355 93.3844 198.925 93.4044 199.585L93.4144 199.595Z" fill="#D0E0F9"/>
<path d="M205.333 170.878C202.843 171.038 200.263 171.168 197.783 170.758C197.283 170.678 196.703 170.568 196.263 170.308C196.143 170.238 195.873 170.078 195.823 169.938C195.723 169.658 195.853 169.238 196.053 169.038C196.263 168.828 196.543 168.688 196.793 168.548C197.823 167.988 198.933 167.588 200.073 167.308C202.313 166.748 204.673 166.618 206.983 166.668C208.203 166.698 209.423 166.808 210.603 167.148C211.253 167.338 212.303 167.618 211.733 168.508C211.413 168.998 210.503 169.308 209.993 169.498C207.363 170.468 204.383 170.768 201.603 170.928C201.483 170.928 201.483 171.108 201.603 171.118C203.203 171.178 204.783 171.088 206.363 170.838C207.813 170.608 209.323 170.298 210.673 169.688C211.403 169.358 212.963 168.478 212.173 167.468C211.923 167.148 211.513 167.008 211.143 166.888C210.413 166.638 209.663 166.488 208.903 166.398C206.093 166.058 203.053 166.228 200.293 166.878C199.363 167.098 193.773 168.668 195.763 170.418C196.783 171.318 198.763 171.268 200.033 171.328C201.823 171.408 203.603 171.338 205.363 171.018C205.443 171.008 205.423 170.878 205.343 170.878H205.333Z" fill="black"/>
<path d="M188.385 166.249C187.765 166.269 187.155 166.229 186.545 166.119C186.015 166.029 185.315 165.919 185.035 165.389C184.425 164.249 186.785 163.959 187.415 163.889C188.465 163.769 189.835 163.709 190.745 164.329C191.235 164.659 191.335 165.209 190.815 165.569C190.405 165.849 189.875 165.969 189.395 166.069C188.065 166.339 186.735 166.179 185.415 165.969C185.335 165.959 185.265 166.069 185.355 166.119C186.665 166.789 188.225 166.789 189.635 166.479C190.215 166.349 190.905 166.179 191.325 165.739C191.695 165.349 191.735 164.789 191.405 164.359C191.025 163.859 190.365 163.639 189.775 163.519C189.045 163.379 188.275 163.379 187.535 163.469C186.635 163.569 184.605 163.779 184.565 165.039C184.545 165.729 185.175 166.179 185.785 166.319C186.625 166.509 187.535 166.479 188.375 166.379C188.445 166.379 188.445 166.269 188.375 166.269L188.385 166.249Z" fill="black"/>
<path d="M86.0534 214.65C85.7434 215.24 92.3934 220.41 101.103 224.01C121.713 232.53 142.483 227.53 142.463 226.8C142.443 226.24 130.283 228.58 112.643 224.34C97.0033 220.59 86.4334 213.92 86.0534 214.64V214.65Z" fill="#A4A5F4"/>
</svg>
