<svg width="492" height="492" viewBox="0 0 492 492" fill="none" xmlns="http://www.w3.org/2000/svg">
<mask id="mask0_2002_1311" style="mask-type:alpha" maskUnits="userSpaceOnUse" x="84" y="84" width="316" height="322">
<path d="M396.624 215.735C398.526 226.269 399.55 237.241 399.55 248.653C399.55 297.665 381.993 338.923 351.562 366.94C324.935 391.519 288.505 405.93 245.053 405.93C182.142 405.93 127.717 369.866 101.236 317.27C90.3361 295.544 84.1182 270.965 84.1182 244.996C84.1082 219.899 89.9703 195.148 101.236 172.721C127.717 120.125 182.142 84.061 245.053 84.061C288.432 84.061 324.862 100.008 352.733 125.977L306.574 172.136C289.895 156.189 268.681 148.069 245.053 148.069C203.137 148.069 167.658 176.379 155.003 214.418C151.784 224.074 149.955 234.389 149.955 244.996C149.955 255.603 151.784 265.917 155.003 275.573C167.658 313.612 203.137 341.922 245.053 341.922C266.706 341.922 285.14 336.216 299.551 326.56C316.595 315.148 327.934 298.104 331.665 277.987H245.053V215.735H396.624Z" fill="#D9D9D9"/>
</mask>
<g mask="url(#mask0_2002_1311)">
<g filter="url(#filter0_f_2002_1311)">
<path d="M400.565 249.668C400.565 238.257 399.54 227.284 397.638 216.75H246.067V279.002H332.679C328.949 299.119 317.61 316.164 300.566 327.575V367.955H352.577C383.008 339.938 400.565 298.68 400.565 249.668Z" fill="#4285F4"/>
<path d="M246.067 406.945C289.52 406.945 325.95 392.534 352.577 367.955L300.566 327.575C286.155 337.231 267.72 342.937 246.067 342.937C204.151 342.937 168.673 314.627 156.017 276.588H102.25V318.285C128.732 370.881 183.157 406.945 246.067 406.945Z" fill="#34A853"/>
<path d="M156.017 276.589C152.798 266.933 150.97 256.618 150.97 246.011C150.97 235.404 152.798 225.09 156.017 215.434V173.737H102.25C90.985 196.163 85.1229 220.914 85.1328 246.011C85.1328 271.98 91.3508 296.559 102.25 318.285L156.017 276.589Z" fill="#FBBC05"/>
<path d="M246.067 149.084C269.696 149.084 290.91 157.204 307.588 173.152L353.747 126.993C325.876 101.024 289.447 85.0764 246.067 85.0764C183.157 85.0764 128.732 121.14 102.25 173.737L156.017 215.433C168.673 177.394 204.151 149.084 246.067 149.084Z" fill="#EA4335"/>
</g>
<g filter="url(#filter1_f_2002_1311)">
<path d="M400.565 249.668C400.565 238.257 399.54 227.284 397.638 216.75H246.067V279.002H332.679C328.949 299.119 317.61 316.164 300.566 327.575V367.955H352.577C383.008 339.938 400.565 298.68 400.565 249.668Z" fill="#4285F4"/>
<path d="M246.067 406.945C289.52 406.945 325.95 392.534 352.577 367.955L300.566 327.575C286.155 337.231 267.72 342.937 246.067 342.937C204.151 342.937 168.673 314.627 156.017 276.588H102.25V318.285C128.732 370.881 183.157 406.945 246.067 406.945Z" fill="#34A853"/>
<path d="M156.017 276.589C152.798 266.933 150.97 256.618 150.97 246.011C150.97 235.404 152.798 225.09 156.017 215.434V173.737H102.25C90.985 196.163 85.1229 220.914 85.1328 246.011C85.1328 271.98 91.3508 296.559 102.25 318.285L156.017 276.589Z" fill="#FBBC05"/>
<path d="M246.067 149.084C269.696 149.084 290.91 157.204 307.588 173.152L353.747 126.993C325.876 101.024 289.447 85.0764 246.067 85.0764C183.157 85.0764 128.732 121.14 102.25 173.737L156.017 215.433C168.673 177.394 204.151 149.084 246.067 149.084Z" fill="#EA4335"/>
</g>
<g filter="url(#filter2_f_2002_1311)">
<path d="M400.565 249.668C400.565 238.257 399.54 227.284 397.638 216.75H246.067V279.002H332.679C328.949 299.119 317.61 316.164 300.566 327.575V367.955H352.577C383.008 339.938 400.565 298.68 400.565 249.668Z" fill="#4285F4"/>
<path d="M246.067 406.945C289.52 406.945 325.95 392.534 352.577 367.955L300.566 327.575C286.155 337.231 267.72 342.937 246.067 342.937C204.151 342.937 168.673 314.627 156.017 276.588H102.25V318.285C128.732 370.881 183.157 406.945 246.067 406.945Z" fill="#34A853"/>
<path d="M156.017 276.589C152.798 266.933 150.97 256.618 150.97 246.011C150.97 235.404 152.798 225.09 156.017 215.434V173.737H102.25C90.985 196.163 85.1229 220.914 85.1328 246.011C85.1328 271.98 91.3508 296.559 102.25 318.285L156.017 276.589Z" fill="#FBBC05"/>
<path d="M246.067 149.084C269.696 149.084 290.91 157.204 307.588 173.152L353.747 126.993C325.876 101.024 289.447 85.0764 246.067 85.0764C183.157 85.0764 128.732 121.14 102.25 173.737L156.017 215.433C168.673 177.394 204.151 149.084 246.067 149.084Z" fill="#EA4335"/>
</g>
<g filter="url(#filter3_f_2002_1311)">
<path d="M400.565 249.668C400.565 238.257 399.54 227.284 397.638 216.75H246.067V279.002H332.679C328.949 299.119 317.61 316.164 300.566 327.575V367.955H352.577C383.008 339.938 400.565 298.68 400.565 249.668Z" fill="#4285F4"/>
<path d="M246.067 406.945C289.52 406.945 325.95 392.534 352.577 367.955L300.566 327.575C286.155 337.231 267.72 342.937 246.067 342.937C204.151 342.937 168.673 314.627 156.017 276.588H102.25V318.285C128.732 370.881 183.157 406.945 246.067 406.945Z" fill="#34A853"/>
<path d="M156.017 276.589C152.798 266.933 150.97 256.618 150.97 246.011C150.97 235.404 152.798 225.09 156.017 215.434V173.737H102.25C90.985 196.163 85.1229 220.914 85.1328 246.011C85.1328 271.98 91.3508 296.559 102.25 318.285L156.017 276.589Z" fill="#FBBC05"/>
<path d="M246.067 149.084C269.696 149.084 290.91 157.204 307.588 173.152L353.747 126.993C325.876 101.024 289.447 85.0764 246.067 85.0764C183.157 85.0764 128.732 121.14 102.25 173.737L156.017 215.433C168.673 177.394 204.151 149.084 246.067 149.084Z" fill="#EA4335"/>
</g>
<g filter="url(#filter4_f_2002_1311)">
<path d="M400.565 249.668C400.565 238.257 399.54 227.284 397.638 216.75H246.067V279.002H332.679C328.949 299.119 317.61 316.164 300.566 327.575V367.955H352.577C383.008 339.938 400.565 298.68 400.565 249.668Z" fill="#4285F4"/>
<path d="M246.067 406.945C289.52 406.945 325.95 392.534 352.577 367.955L300.566 327.575C286.155 337.231 267.72 342.937 246.067 342.937C204.151 342.937 168.673 314.627 156.017 276.588H102.25V318.285C128.732 370.881 183.157 406.945 246.067 406.945Z" fill="#34A853"/>
<path d="M156.017 276.589C152.798 266.933 150.97 256.618 150.97 246.011C150.97 235.404 152.798 225.09 156.017 215.434V173.737H102.25C90.985 196.163 85.1229 220.914 85.1328 246.011C85.1328 271.98 91.3508 296.559 102.25 318.285L156.017 276.589Z" fill="#FBBC05"/>
<path d="M246.067 149.084C269.696 149.084 290.91 157.204 307.588 173.152L353.747 126.993C325.876 101.024 289.447 85.0764 246.067 85.0764C183.157 85.0764 128.732 121.14 102.25 173.737L156.017 215.433C168.673 177.394 204.151 149.084 246.067 149.084Z" fill="#EA4335"/>
</g>
<g filter="url(#filter5_f_2002_1311)">
<path d="M400.565 249.668C400.565 238.257 399.54 227.284 397.638 216.75H246.067V279.002H332.679C328.949 299.119 317.61 316.164 300.566 327.575V367.955H352.577C383.008 339.938 400.565 298.68 400.565 249.668Z" fill="#4285F4"/>
<path d="M246.067 406.945C289.52 406.945 325.95 392.534 352.577 367.955L300.566 327.575C286.155 337.231 267.72 342.937 246.067 342.937C204.151 342.937 168.673 314.627 156.017 276.588H102.25V318.285C128.732 370.881 183.157 406.945 246.067 406.945Z" fill="#34A853"/>
<path d="M156.017 276.589C152.798 266.933 150.97 256.618 150.97 246.011C150.97 235.404 152.798 225.09 156.017 215.434V173.737H102.25C90.985 196.163 85.1229 220.914 85.1328 246.011C85.1328 271.98 91.3508 296.559 102.25 318.285L156.017 276.589Z" fill="#FBBC05"/>
<path d="M246.067 149.084C269.696 149.084 290.91 157.204 307.588 173.152L353.747 126.993C325.876 101.024 289.447 85.0764 246.067 85.0764C183.157 85.0764 128.732 121.14 102.25 173.737L156.017 215.433C168.673 177.394 204.151 149.084 246.067 149.084Z" fill="#EA4335"/>
</g>
<g filter="url(#filter6_f_2002_1311)">
<path d="M400.565 249.668C400.565 238.257 399.54 227.284 397.638 216.75H246.067V279.002H332.679C328.949 299.119 317.61 316.164 300.566 327.575V367.955H352.577C383.008 339.938 400.565 298.68 400.565 249.668Z" fill="#4285F4"/>
<path d="M246.067 406.945C289.52 406.945 325.95 392.534 352.577 367.955L300.566 327.575C286.155 337.231 267.72 342.937 246.067 342.937C204.151 342.937 168.673 314.627 156.017 276.588H102.25V318.285C128.732 370.881 183.157 406.945 246.067 406.945Z" fill="#34A853"/>
<path d="M156.017 276.589C152.798 266.933 150.97 256.618 150.97 246.011C150.97 235.404 152.798 225.09 156.017 215.434V173.737H102.25C90.985 196.163 85.1229 220.914 85.1328 246.011C85.1328 271.98 91.3508 296.559 102.25 318.285L156.017 276.589Z" fill="#FBBC05"/>
<path d="M246.067 149.084C269.696 149.084 290.91 157.204 307.588 173.152L353.747 126.993C325.876 101.024 289.447 85.0764 246.067 85.0764C183.157 85.0764 128.732 121.14 102.25 173.737L156.017 215.433C168.673 177.394 204.151 149.084 246.067 149.084Z" fill="#EA4335"/>
</g>
<g filter="url(#filter7_f_2002_1311)">
<path d="M400.565 249.668C400.565 238.257 399.54 227.284 397.638 216.75H246.067V279.002H332.679C328.949 299.119 317.61 316.164 300.566 327.575V367.955H352.577C383.008 339.938 400.565 298.68 400.565 249.668Z" fill="#4285F4"/>
<path d="M246.067 406.945C289.52 406.945 325.95 392.534 352.577 367.955L300.566 327.575C286.155 337.231 267.72 342.937 246.067 342.937C204.151 342.937 168.673 314.627 156.017 276.588H102.25V318.285C128.732 370.881 183.157 406.945 246.067 406.945Z" fill="#34A853"/>
<path d="M156.017 276.589C152.798 266.933 150.97 256.618 150.97 246.011C150.97 235.404 152.798 225.09 156.017 215.434V173.737H102.25C90.985 196.163 85.1229 220.914 85.1328 246.011C85.1328 271.98 91.3508 296.559 102.25 318.285L156.017 276.589Z" fill="#FBBC05"/>
<path d="M246.067 149.084C269.696 149.084 290.91 157.204 307.588 173.152L353.747 126.993C325.876 101.024 289.447 85.0764 246.067 85.0764C183.157 85.0764 128.732 121.14 102.25 173.737L156.017 215.433C168.673 177.394 204.151 149.084 246.067 149.084Z" fill="#EA4335"/>
</g>
<g filter="url(#filter8_f_2002_1311)">
<path d="M400.565 249.668C400.565 238.257 399.54 227.284 397.638 216.75H246.067V279.002H332.679C328.949 299.119 317.61 316.164 300.566 327.575V367.955H352.577C383.008 339.938 400.565 298.68 400.565 249.668Z" fill="#4285F4"/>
<path d="M246.067 406.945C289.52 406.945 325.95 392.534 352.577 367.955L300.566 327.575C286.155 337.231 267.72 342.937 246.067 342.937C204.151 342.937 168.673 314.627 156.017 276.588H102.25V318.285C128.732 370.881 183.157 406.945 246.067 406.945Z" fill="#34A853"/>
<path d="M156.017 276.589C152.798 266.933 150.97 256.618 150.97 246.011C150.97 235.404 152.798 225.09 156.017 215.434V173.737H102.25C90.985 196.163 85.1229 220.914 85.1328 246.011C85.1328 271.98 91.3508 296.559 102.25 318.285L156.017 276.589Z" fill="#FBBC05"/>
<path d="M246.067 149.084C269.696 149.084 290.91 157.204 307.588 173.152L353.747 126.993C325.876 101.024 289.447 85.0764 246.067 85.0764C183.157 85.0764 128.732 121.14 102.25 173.737L156.017 215.433C168.673 177.394 204.151 149.084 246.067 149.084Z" fill="#EA4335"/>
</g>
<g filter="url(#filter9_f_2002_1311)">
<path d="M400.565 249.668C400.565 238.257 399.54 227.284 397.638 216.75H246.067V279.002H332.679C328.949 299.119 317.61 316.164 300.566 327.575V367.955H352.577C383.008 339.938 400.565 298.68 400.565 249.668Z" fill="#4285F4"/>
<path d="M246.067 406.945C289.52 406.945 325.95 392.534 352.577 367.955L300.566 327.575C286.155 337.231 267.72 342.937 246.067 342.937C204.151 342.937 168.673 314.627 156.017 276.588H102.25V318.285C128.732 370.881 183.157 406.945 246.067 406.945Z" fill="#34A853"/>
<path d="M156.017 276.589C152.798 266.933 150.97 256.618 150.97 246.011C150.97 235.404 152.798 225.09 156.017 215.434V173.737H102.25C90.985 196.163 85.1229 220.914 85.1328 246.011C85.1328 271.98 91.3508 296.559 102.25 318.285L156.017 276.589Z" fill="#FBBC05"/>
<path d="M246.067 149.084C269.696 149.084 290.91 157.204 307.588 173.152L353.747 126.993C325.876 101.024 289.447 85.0764 246.067 85.0764C183.157 85.0764 128.732 121.14 102.25 173.737L156.017 215.433C168.673 177.394 204.151 149.084 246.067 149.084Z" fill="#EA4335"/>
</g>
<g filter="url(#filter10_f_2002_1311)">
<path d="M400.565 249.668C400.565 238.257 399.54 227.284 397.638 216.75H246.067V279.002H332.679C328.949 299.119 317.61 316.164 300.566 327.575V367.955H352.577C383.008 339.938 400.565 298.68 400.565 249.668Z" fill="#4285F4"/>
<path d="M246.067 406.945C289.52 406.945 325.95 392.534 352.577 367.955L300.566 327.575C286.155 337.231 267.72 342.937 246.067 342.937C204.151 342.937 168.673 314.627 156.017 276.588H102.25V318.285C128.732 370.881 183.157 406.945 246.067 406.945Z" fill="#34A853"/>
<path d="M156.017 276.589C152.798 266.933 150.97 256.618 150.97 246.011C150.97 235.404 152.798 225.09 156.017 215.434V173.737H102.25C90.985 196.163 85.1229 220.914 85.1328 246.011C85.1328 271.98 91.3508 296.559 102.25 318.285L156.017 276.589Z" fill="#FBBC05"/>
<path d="M246.067 149.084C269.696 149.084 290.91 157.204 307.588 173.152L353.747 126.993C325.876 101.024 289.447 85.0764 246.067 85.0764C183.157 85.0764 128.732 121.14 102.25 173.737L156.017 215.433C168.673 177.394 204.151 149.084 246.067 149.084Z" fill="#EA4335"/>
</g>
<g filter="url(#filter11_f_2002_1311)">
<path d="M400.565 249.668C400.565 238.257 399.54 227.284 397.638 216.75H246.067V279.002H332.679C328.949 299.119 317.61 316.164 300.566 327.575V367.955H352.577C383.008 339.938 400.565 298.68 400.565 249.668Z" fill="#4285F4"/>
<path d="M246.067 406.945C289.52 406.945 325.95 392.534 352.577 367.955L300.566 327.575C286.155 337.231 267.72 342.937 246.067 342.937C204.151 342.937 168.673 314.627 156.017 276.588H102.25V318.285C128.732 370.881 183.157 406.945 246.067 406.945Z" fill="#34A853"/>
<path d="M156.017 276.589C152.798 266.933 150.97 256.618 150.97 246.011C150.97 235.404 152.798 225.09 156.017 215.434V173.737H102.25C90.985 196.163 85.1229 220.914 85.1328 246.011C85.1328 271.98 91.3508 296.559 102.25 318.285L156.017 276.589Z" fill="#FBBC05"/>
<path d="M246.067 149.084C269.696 149.084 290.91 157.204 307.588 173.152L353.747 126.993C325.876 101.024 289.447 85.0764 246.067 85.0764C183.157 85.0764 128.732 121.14 102.25 173.737L156.017 215.433C168.673 177.394 204.151 149.084 246.067 149.084Z" fill="#EA4335"/>
</g>
<g filter="url(#filter12_f_2002_1311)">
<path d="M400.565 249.668C400.565 238.257 399.54 227.284 397.638 216.75H246.067V279.002H332.679C328.949 299.119 317.61 316.164 300.566 327.575V367.955H352.577C383.008 339.938 400.565 298.68 400.565 249.668Z" fill="#4285F4"/>
<path d="M246.067 406.945C289.52 406.945 325.95 392.534 352.577 367.955L300.566 327.575C286.155 337.231 267.72 342.937 246.067 342.937C204.151 342.937 168.673 314.627 156.017 276.588H102.25V318.285C128.732 370.881 183.157 406.945 246.067 406.945Z" fill="#34A853"/>
<path d="M156.017 276.589C152.798 266.933 150.97 256.618 150.97 246.011C150.97 235.404 152.798 225.09 156.017 215.434V173.737H102.25C90.985 196.163 85.1229 220.914 85.1328 246.011C85.1328 271.98 91.3508 296.559 102.25 318.285L156.017 276.589Z" fill="#FBBC05"/>
<path d="M246.067 149.084C269.696 149.084 290.91 157.204 307.588 173.152L353.747 126.993C325.876 101.024 289.447 85.0764 246.067 85.0764C183.157 85.0764 128.732 121.14 102.25 173.737L156.017 215.433C168.673 177.394 204.151 149.084 246.067 149.084Z" fill="#EA4335"/>
</g>
<g filter="url(#filter13_f_2002_1311)">
<path d="M400.565 249.668C400.565 238.257 399.54 227.284 397.638 216.75H246.067V279.002H332.679C328.949 299.119 317.61 316.164 300.566 327.575V367.955H352.577C383.008 339.938 400.565 298.68 400.565 249.668Z" fill="#4285F4"/>
<path d="M246.067 406.945C289.52 406.945 325.95 392.534 352.577 367.955L300.566 327.575C286.155 337.231 267.72 342.937 246.067 342.937C204.151 342.937 168.673 314.627 156.017 276.588H102.25V318.285C128.732 370.881 183.157 406.945 246.067 406.945Z" fill="#34A853"/>
<path d="M156.017 276.589C152.798 266.933 150.97 256.618 150.97 246.011C150.97 235.404 152.798 225.09 156.017 215.434V173.737H102.25C90.985 196.163 85.1229 220.914 85.1328 246.011C85.1328 271.98 91.3508 296.559 102.25 318.285L156.017 276.589Z" fill="#FBBC05"/>
<path d="M246.067 149.084C269.696 149.084 290.91 157.204 307.588 173.152L353.747 126.993C325.876 101.024 289.447 85.0764 246.067 85.0764C183.157 85.0764 128.732 121.14 102.25 173.737L156.017 215.433C168.673 177.394 204.151 149.084 246.067 149.084Z" fill="#EA4335"/>
</g>
<g filter="url(#filter14_f_2002_1311)">
<path d="M400.565 249.668C400.565 238.257 399.54 227.284 397.638 216.75H246.067V279.002H332.679C328.949 299.119 317.61 316.164 300.566 327.575V367.955H352.577C383.008 339.938 400.565 298.68 400.565 249.668Z" fill="#4285F4"/>
<path d="M246.067 406.945C289.52 406.945 325.95 392.534 352.577 367.955L300.566 327.575C286.155 337.231 267.72 342.937 246.067 342.937C204.151 342.937 168.673 314.627 156.017 276.588H102.25V318.285C128.732 370.881 183.157 406.945 246.067 406.945Z" fill="#34A853"/>
<path d="M156.017 276.589C152.798 266.933 150.97 256.618 150.97 246.011C150.97 235.404 152.798 225.09 156.017 215.434V173.737H102.25C90.985 196.163 85.1229 220.914 85.1328 246.011C85.1328 271.98 91.3508 296.559 102.25 318.285L156.017 276.589Z" fill="#FBBC05"/>
<path d="M246.067 149.084C269.696 149.084 290.91 157.204 307.588 173.152L353.747 126.993C325.876 101.024 289.447 85.0764 246.067 85.0764C183.157 85.0764 128.732 121.14 102.25 173.737L156.017 215.433C168.673 177.394 204.151 149.084 246.067 149.084Z" fill="#EA4335"/>
</g>
<g filter="url(#filter15_f_2002_1311)">
<path d="M400.565 249.668C400.565 238.257 399.54 227.284 397.638 216.75H246.067V279.002H332.679C328.949 299.119 317.61 316.164 300.566 327.575V367.955H352.577C383.008 339.938 400.565 298.68 400.565 249.668Z" fill="#4285F4"/>
<path d="M246.067 406.945C289.52 406.945 325.95 392.534 352.577 367.955L300.566 327.575C286.155 337.231 267.72 342.937 246.067 342.937C204.151 342.937 168.673 314.627 156.017 276.588H102.25V318.285C128.732 370.881 183.157 406.945 246.067 406.945Z" fill="#34A853"/>
<path d="M156.017 276.589C152.798 266.933 150.97 256.618 150.97 246.011C150.97 235.404 152.798 225.09 156.017 215.434V173.737H102.25C90.985 196.163 85.1229 220.914 85.1328 246.011C85.1328 271.98 91.3508 296.559 102.25 318.285L156.017 276.589Z" fill="#FBBC05"/>
<path d="M246.067 149.084C269.696 149.084 290.91 157.204 307.588 173.152L353.747 126.993C325.876 101.024 289.447 85.0764 246.067 85.0764C183.157 85.0764 128.732 121.14 102.25 173.737L156.017 215.433C168.673 177.394 204.151 149.084 246.067 149.084Z" fill="#EA4335"/>
</g>
<g filter="url(#filter16_f_2002_1311)">
<path d="M400.565 249.668C400.565 238.257 399.54 227.284 397.638 216.75H246.067V279.002H332.679C328.949 299.119 317.61 316.164 300.566 327.575V367.955H352.577C383.008 339.938 400.565 298.68 400.565 249.668Z" fill="#4285F4"/>
<path d="M246.067 406.945C289.52 406.945 325.95 392.534 352.577 367.955L300.566 327.575C286.155 337.231 267.72 342.937 246.067 342.937C204.151 342.937 168.673 314.627 156.017 276.588H102.25V318.285C128.732 370.881 183.157 406.945 246.067 406.945Z" fill="#34A853"/>
<path d="M156.017 276.589C152.798 266.933 150.97 256.618 150.97 246.011C150.97 235.404 152.798 225.09 156.017 215.434V173.737H102.25C90.985 196.163 85.1229 220.914 85.1328 246.011C85.1328 271.98 91.3508 296.559 102.25 318.285L156.017 276.589Z" fill="#FBBC05"/>
<path d="M246.067 149.084C269.696 149.084 290.91 157.204 307.588 173.152L353.747 126.993C325.876 101.024 289.447 85.0764 246.067 85.0764C183.157 85.0764 128.732 121.14 102.25 173.737L156.017 215.433C168.673 177.394 204.151 149.084 246.067 149.084Z" fill="#EA4335"/>
</g>
<g filter="url(#filter17_f_2002_1311)">
<path d="M400.565 249.668C400.565 238.257 399.54 227.284 397.638 216.75H246.067V279.002H332.679C328.949 299.119 317.61 316.164 300.566 327.575V367.955H352.577C383.008 339.938 400.565 298.68 400.565 249.668Z" fill="#4285F4"/>
<path d="M246.067 406.945C289.52 406.945 325.95 392.534 352.577 367.955L300.566 327.575C286.155 337.231 267.72 342.937 246.067 342.937C204.151 342.937 168.673 314.627 156.017 276.588H102.25V318.285C128.732 370.881 183.157 406.945 246.067 406.945Z" fill="#34A853"/>
<path d="M156.017 276.589C152.798 266.933 150.97 256.618 150.97 246.011C150.97 235.404 152.798 225.09 156.017 215.434V173.737H102.25C90.985 196.163 85.1229 220.914 85.1328 246.011C85.1328 271.98 91.3508 296.559 102.25 318.285L156.017 276.589Z" fill="#FBBC05"/>
<path d="M246.067 149.084C269.696 149.084 290.91 157.204 307.588 173.152L353.747 126.993C325.876 101.024 289.447 85.0764 246.067 85.0764C183.157 85.0764 128.732 121.14 102.25 173.737L156.017 215.433C168.673 177.394 204.151 149.084 246.067 149.084Z" fill="#EA4335"/>
</g>
<g filter="url(#filter18_f_2002_1311)">
<path d="M400.565 249.668C400.565 238.257 399.54 227.284 397.638 216.75H246.067V279.002H332.679C328.949 299.119 317.61 316.164 300.566 327.575V367.955H352.577C383.008 339.938 400.565 298.68 400.565 249.668Z" fill="#4285F4"/>
<path d="M246.067 406.945C289.52 406.945 325.95 392.534 352.577 367.955L300.566 327.575C286.155 337.231 267.72 342.937 246.067 342.937C204.151 342.937 168.673 314.627 156.017 276.588H102.25V318.285C128.732 370.881 183.157 406.945 246.067 406.945Z" fill="#34A853"/>
<path d="M156.017 276.589C152.798 266.933 150.97 256.618 150.97 246.011C150.97 235.404 152.798 225.09 156.017 215.434V173.737H102.25C90.985 196.163 85.1229 220.914 85.1328 246.011C85.1328 271.98 91.3508 296.559 102.25 318.285L156.017 276.589Z" fill="#FBBC05"/>
<path d="M246.067 149.084C269.696 149.084 290.91 157.204 307.588 173.152L353.747 126.993C325.876 101.024 289.447 85.0764 246.067 85.0764C183.157 85.0764 128.732 121.14 102.25 173.737L156.017 215.433C168.673 177.394 204.151 149.084 246.067 149.084Z" fill="#EA4335"/>
</g>
<g filter="url(#filter19_f_2002_1311)">
<path d="M400.565 249.668C400.565 238.257 399.54 227.284 397.638 216.75H246.067V279.002H332.679C328.949 299.119 317.61 316.164 300.566 327.575V367.955H352.577C383.008 339.938 400.565 298.68 400.565 249.668Z" fill="#4285F4"/>
<path d="M246.067 406.945C289.52 406.945 325.95 392.534 352.577 367.955L300.566 327.575C286.155 337.231 267.72 342.937 246.067 342.937C204.151 342.937 168.673 314.627 156.017 276.588H102.25V318.285C128.732 370.881 183.157 406.945 246.067 406.945Z" fill="#34A853"/>
<path d="M156.017 276.589C152.798 266.933 150.97 256.618 150.97 246.011C150.97 235.404 152.798 225.09 156.017 215.434V173.737H102.25C90.985 196.163 85.1229 220.914 85.1328 246.011C85.1328 271.98 91.3508 296.559 102.25 318.285L156.017 276.589Z" fill="#FBBC05"/>
<path d="M246.067 149.084C269.696 149.084 290.91 157.204 307.588 173.152L353.747 126.993C325.876 101.024 289.447 85.0764 246.067 85.0764C183.157 85.0764 128.732 121.14 102.25 173.737L156.017 215.433C168.673 177.394 204.151 149.084 246.067 149.084Z" fill="#EA4335"/>
</g>
<g filter="url(#filter20_f_2002_1311)">
<path d="M400.565 249.668C400.565 238.257 399.54 227.284 397.638 216.75H246.067V279.002H332.679C328.949 299.119 317.61 316.164 300.566 327.575V367.955H352.577C383.008 339.938 400.565 298.68 400.565 249.668Z" fill="#4285F4"/>
<path d="M246.067 406.945C289.52 406.945 325.95 392.534 352.577 367.955L300.566 327.575C286.155 337.231 267.72 342.937 246.067 342.937C204.151 342.937 168.673 314.627 156.017 276.588H102.25V318.285C128.732 370.881 183.157 406.945 246.067 406.945Z" fill="#34A853"/>
<path d="M156.017 276.589C152.798 266.933 150.97 256.618 150.97 246.011C150.97 235.404 152.798 225.09 156.017 215.434V173.737H102.25C90.985 196.163 85.1229 220.914 85.1328 246.011C85.1328 271.98 91.3508 296.559 102.25 318.285L156.017 276.589Z" fill="#FBBC05"/>
<path d="M246.067 149.084C269.696 149.084 290.91 157.204 307.588 173.152L353.747 126.993C325.876 101.024 289.447 85.0764 246.067 85.0764C183.157 85.0764 128.732 121.14 102.25 173.737L156.017 215.433C168.673 177.394 204.151 149.084 246.067 149.084Z" fill="#EA4335"/>
</g>
<g filter="url(#filter21_f_2002_1311)">
<path d="M400.565 249.668C400.565 238.257 399.54 227.284 397.638 216.75H246.067V279.002H332.679C328.949 299.119 317.61 316.164 300.566 327.575V367.955H352.577C383.008 339.938 400.565 298.68 400.565 249.668Z" fill="#4285F4"/>
<path d="M246.067 406.945C289.52 406.945 325.95 392.534 352.577 367.955L300.566 327.575C286.155 337.231 267.72 342.937 246.067 342.937C204.151 342.937 168.673 314.627 156.017 276.588H102.25V318.285C128.732 370.881 183.157 406.945 246.067 406.945Z" fill="#34A853"/>
<path d="M156.017 276.589C152.798 266.933 150.97 256.618 150.97 246.011C150.97 235.404 152.798 225.09 156.017 215.434V173.737H102.25C90.985 196.163 85.1229 220.914 85.1328 246.011C85.1328 271.98 91.3508 296.559 102.25 318.285L156.017 276.589Z" fill="#FBBC05"/>
<path d="M246.067 149.084C269.696 149.084 290.91 157.204 307.588 173.152L353.747 126.993C325.876 101.024 289.447 85.0764 246.067 85.0764C183.157 85.0764 128.732 121.14 102.25 173.737L156.017 215.433C168.673 177.394 204.151 149.084 246.067 149.084Z" fill="#EA4335"/>
</g>
<g filter="url(#filter22_f_2002_1311)">
<path d="M400.565 249.668C400.565 238.257 399.54 227.284 397.638 216.75H246.067V279.002H332.679C328.949 299.119 317.61 316.164 300.566 327.575V367.955H352.577C383.008 339.938 400.565 298.68 400.565 249.668Z" fill="#4285F4"/>
<path d="M246.067 406.945C289.52 406.945 325.95 392.534 352.577 367.955L300.566 327.575C286.155 337.231 267.72 342.937 246.067 342.937C204.151 342.937 168.673 314.627 156.017 276.588H102.25V318.285C128.732 370.881 183.157 406.945 246.067 406.945Z" fill="#34A853"/>
<path d="M156.017 276.589C152.798 266.933 150.97 256.618 150.97 246.011C150.97 235.404 152.798 225.09 156.017 215.434V173.737H102.25C90.985 196.163 85.1229 220.914 85.1328 246.011C85.1328 271.98 91.3508 296.559 102.25 318.285L156.017 276.589Z" fill="#FBBC05"/>
<path d="M246.067 149.084C269.696 149.084 290.91 157.204 307.588 173.152L353.747 126.993C325.876 101.024 289.447 85.0764 246.067 85.0764C183.157 85.0764 128.732 121.14 102.25 173.737L156.017 215.433C168.673 177.394 204.151 149.084 246.067 149.084Z" fill="#EA4335"/>
</g>
<g filter="url(#filter23_f_2002_1311)">
<path d="M400.565 249.668C400.565 238.257 399.54 227.284 397.638 216.75H246.067V279.002H332.679C328.949 299.119 317.61 316.164 300.566 327.575V367.955H352.577C383.008 339.938 400.565 298.68 400.565 249.668Z" fill="#4285F4"/>
<path d="M246.067 406.945C289.52 406.945 325.95 392.534 352.577 367.955L300.566 327.575C286.155 337.231 267.72 342.937 246.067 342.937C204.151 342.937 168.673 314.627 156.017 276.588H102.25V318.285C128.732 370.881 183.157 406.945 246.067 406.945Z" fill="#34A853"/>
<path d="M156.017 276.589C152.798 266.933 150.97 256.618 150.97 246.011C150.97 235.404 152.798 225.09 156.017 215.434V173.737H102.25C90.985 196.163 85.1229 220.914 85.1328 246.011C85.1328 271.98 91.3508 296.559 102.25 318.285L156.017 276.589Z" fill="#FBBC05"/>
<path d="M246.067 149.084C269.696 149.084 290.91 157.204 307.588 173.152L353.747 126.993C325.876 101.024 289.447 85.0764 246.067 85.0764C183.157 85.0764 128.732 121.14 102.25 173.737L156.017 215.433C168.673 177.394 204.151 149.084 246.067 149.084Z" fill="#EA4335"/>
</g>
<g filter="url(#filter24_f_2002_1311)">
<path d="M400.565 249.668C400.565 238.257 399.54 227.284 397.638 216.75H246.067V279.002H332.679C328.949 299.119 317.61 316.164 300.566 327.575V367.955H352.577C383.008 339.938 400.565 298.68 400.565 249.668Z" fill="#4285F4"/>
<path d="M246.067 406.945C289.52 406.945 325.95 392.534 352.577 367.955L300.566 327.575C286.155 337.231 267.72 342.937 246.067 342.937C204.151 342.937 168.673 314.627 156.017 276.588H102.25V318.285C128.732 370.881 183.157 406.945 246.067 406.945Z" fill="#34A853"/>
<path d="M156.017 276.589C152.798 266.933 150.97 256.618 150.97 246.011C150.97 235.404 152.798 225.09 156.017 215.434V173.737H102.25C90.985 196.163 85.1229 220.914 85.1328 246.011C85.1328 271.98 91.3508 296.559 102.25 318.285L156.017 276.589Z" fill="#FBBC05"/>
<path d="M246.067 149.084C269.696 149.084 290.91 157.204 307.588 173.152L353.747 126.993C325.876 101.024 289.447 85.0764 246.067 85.0764C183.157 85.0764 128.732 121.14 102.25 173.737L156.017 215.433C168.673 177.394 204.151 149.084 246.067 149.084Z" fill="#EA4335"/>
</g>
<g filter="url(#filter25_f_2002_1311)">
<path d="M400.565 249.668C400.565 238.257 399.54 227.284 397.638 216.75H246.067V279.002H332.679C328.949 299.119 317.61 316.164 300.566 327.575V367.955H352.577C383.008 339.938 400.565 298.68 400.565 249.668Z" fill="#4285F4"/>
<path d="M246.067 406.945C289.52 406.945 325.95 392.534 352.577 367.955L300.566 327.575C286.155 337.231 267.72 342.937 246.067 342.937C204.151 342.937 168.673 314.627 156.017 276.588H102.25V318.285C128.732 370.881 183.157 406.945 246.067 406.945Z" fill="#34A853"/>
<path d="M156.017 276.589C152.798 266.933 150.97 256.618 150.97 246.011C150.97 235.404 152.798 225.09 156.017 215.434V173.737H102.25C90.985 196.163 85.1229 220.914 85.1328 246.011C85.1328 271.98 91.3508 296.559 102.25 318.285L156.017 276.589Z" fill="#FBBC05"/>
<path d="M246.067 149.084C269.696 149.084 290.91 157.204 307.588 173.152L353.747 126.993C325.876 101.024 289.447 85.0764 246.067 85.0764C183.157 85.0764 128.732 121.14 102.25 173.737L156.017 215.433C168.673 177.394 204.151 149.084 246.067 149.084Z" fill="#EA4335"/>
</g>
<g filter="url(#filter26_f_2002_1311)">
<path d="M400.565 249.668C400.565 238.257 399.54 227.284 397.638 216.75H246.067V279.002H332.679C328.949 299.119 317.61 316.164 300.566 327.575V367.955H352.577C383.008 339.938 400.565 298.68 400.565 249.668Z" fill="#4285F4"/>
<path d="M246.067 406.945C289.52 406.945 325.95 392.534 352.577 367.955L300.566 327.575C286.155 337.231 267.72 342.937 246.067 342.937C204.151 342.937 168.673 314.627 156.017 276.588H102.25V318.285C128.732 370.881 183.157 406.945 246.067 406.945Z" fill="#34A853"/>
<path d="M156.017 276.589C152.798 266.933 150.97 256.618 150.97 246.011C150.97 235.404 152.798 225.09 156.017 215.434V173.737H102.25C90.985 196.163 85.1229 220.914 85.1328 246.011C85.1328 271.98 91.3508 296.559 102.25 318.285L156.017 276.589Z" fill="#FBBC05"/>
<path d="M246.067 149.084C269.696 149.084 290.91 157.204 307.588 173.152L353.747 126.993C325.876 101.024 289.447 85.0764 246.067 85.0764C183.157 85.0764 128.732 121.14 102.25 173.737L156.017 215.433C168.673 177.394 204.151 149.084 246.067 149.084Z" fill="#EA4335"/>
</g>
<g filter="url(#filter27_f_2002_1311)">
<path d="M400.565 249.668C400.565 238.257 399.54 227.284 397.638 216.75H246.067V279.002H332.679C328.949 299.119 317.61 316.164 300.566 327.575V367.955H352.577C383.008 339.938 400.565 298.68 400.565 249.668Z" fill="#4285F4"/>
<path d="M246.067 406.945C289.52 406.945 325.95 392.534 352.577 367.955L300.566 327.575C286.155 337.231 267.72 342.937 246.067 342.937C204.151 342.937 168.673 314.627 156.017 276.588H102.25V318.285C128.732 370.881 183.157 406.945 246.067 406.945Z" fill="#34A853"/>
<path d="M156.017 276.589C152.798 266.933 150.97 256.618 150.97 246.011C150.97 235.404 152.798 225.09 156.017 215.434V173.737H102.25C90.985 196.163 85.1229 220.914 85.1328 246.011C85.1328 271.98 91.3508 296.559 102.25 318.285L156.017 276.589Z" fill="#FBBC05"/>
<path d="M246.067 149.084C269.696 149.084 290.91 157.204 307.588 173.152L353.747 126.993C325.876 101.024 289.447 85.0764 246.067 85.0764C183.157 85.0764 128.732 121.14 102.25 173.737L156.017 215.433C168.673 177.394 204.151 149.084 246.067 149.084Z" fill="#EA4335"/>
</g>
<g filter="url(#filter28_f_2002_1311)">
<path d="M400.565 249.668C400.565 238.257 399.54 227.284 397.638 216.75H246.067V279.002H332.679C328.949 299.119 317.61 316.164 300.566 327.575V367.955H352.577C383.008 339.938 400.565 298.68 400.565 249.668Z" fill="#4285F4"/>
<path d="M246.067 406.945C289.52 406.945 325.95 392.534 352.577 367.955L300.566 327.575C286.155 337.231 267.72 342.937 246.067 342.937C204.151 342.937 168.673 314.627 156.017 276.588H102.25V318.285C128.732 370.881 183.157 406.945 246.067 406.945Z" fill="#34A853"/>
<path d="M156.017 276.589C152.798 266.933 150.97 256.618 150.97 246.011C150.97 235.404 152.798 225.09 156.017 215.434V173.737H102.25C90.985 196.163 85.1229 220.914 85.1328 246.011C85.1328 271.98 91.3508 296.559 102.25 318.285L156.017 276.589Z" fill="#FBBC05"/>
<path d="M246.067 149.084C269.696 149.084 290.91 157.204 307.588 173.152L353.747 126.993C325.876 101.024 289.447 85.0764 246.067 85.0764C183.157 85.0764 128.732 121.14 102.25 173.737L156.017 215.433C168.673 177.394 204.151 149.084 246.067 149.084Z" fill="#EA4335"/>
</g>
<g filter="url(#filter29_f_2002_1311)">
<path d="M400.565 249.668C400.565 238.257 399.54 227.284 397.638 216.75H246.067V279.002H332.679C328.949 299.119 317.61 316.164 300.566 327.575V367.955H352.577C383.008 339.938 400.565 298.68 400.565 249.668Z" fill="#4285F4"/>
<path d="M246.067 406.945C289.52 406.945 325.95 392.534 352.577 367.955L300.566 327.575C286.155 337.231 267.72 342.937 246.067 342.937C204.151 342.937 168.673 314.627 156.017 276.588H102.25V318.285C128.732 370.881 183.157 406.945 246.067 406.945Z" fill="#34A853"/>
<path d="M156.017 276.589C152.798 266.933 150.97 256.618 150.97 246.011C150.97 235.404 152.798 225.09 156.017 215.434V173.737H102.25C90.985 196.163 85.1229 220.914 85.1328 246.011C85.1328 271.98 91.3508 296.559 102.25 318.285L156.017 276.589Z" fill="#FBBC05"/>
<path d="M246.067 149.084C269.696 149.084 290.91 157.204 307.588 173.152L353.747 126.993C325.876 101.024 289.447 85.0764 246.067 85.0764C183.157 85.0764 128.732 121.14 102.25 173.737L156.017 215.433C168.673 177.394 204.151 149.084 246.067 149.084Z" fill="#EA4335"/>
</g>
<g filter="url(#filter30_f_2002_1311)">
<path d="M400.565 249.668C400.565 238.257 399.54 227.284 397.638 216.75H246.067V279.002H332.679C328.949 299.119 317.61 316.164 300.566 327.575V367.955H352.577C383.008 339.938 400.565 298.68 400.565 249.668Z" fill="#4285F4"/>
<path d="M246.067 406.945C289.52 406.945 325.95 392.534 352.577 367.955L300.566 327.575C286.155 337.231 267.72 342.937 246.067 342.937C204.151 342.937 168.673 314.627 156.017 276.588H102.25V318.285C128.732 370.881 183.157 406.945 246.067 406.945Z" fill="#34A853"/>
<path d="M156.017 276.589C152.798 266.933 150.97 256.618 150.97 246.011C150.97 235.404 152.798 225.09 156.017 215.434V173.737H102.25C90.985 196.163 85.1229 220.914 85.1328 246.011C85.1328 271.98 91.3508 296.559 102.25 318.285L156.017 276.589Z" fill="#FBBC05"/>
<path d="M246.067 149.084C269.696 149.084 290.91 157.204 307.588 173.152L353.747 126.993C325.876 101.024 289.447 85.0764 246.067 85.0764C183.157 85.0764 128.732 121.14 102.25 173.737L156.017 215.433C168.673 177.394 204.151 149.084 246.067 149.084Z" fill="#EA4335"/>
</g>
<g filter="url(#filter31_f_2002_1311)">
<path d="M400.565 249.668C400.565 238.257 399.54 227.284 397.638 216.75H246.067V279.002H332.679C328.949 299.119 317.61 316.164 300.566 327.575V367.955H352.577C383.008 339.938 400.565 298.68 400.565 249.668Z" fill="#4285F4"/>
<path d="M246.067 406.945C289.52 406.945 325.95 392.534 352.577 367.955L300.566 327.575C286.155 337.231 267.72 342.937 246.067 342.937C204.151 342.937 168.673 314.627 156.017 276.588H102.25V318.285C128.732 370.881 183.157 406.945 246.067 406.945Z" fill="#34A853"/>
<path d="M156.017 276.589C152.798 266.933 150.97 256.618 150.97 246.011C150.97 235.404 152.798 225.09 156.017 215.434V173.737H102.25C90.985 196.163 85.1229 220.914 85.1328 246.011C85.1328 271.98 91.3508 296.559 102.25 318.285L156.017 276.589Z" fill="#FBBC05"/>
<path d="M246.067 149.084C269.696 149.084 290.91 157.204 307.588 173.152L353.747 126.993C325.876 101.024 289.447 85.0764 246.067 85.0764C183.157 85.0764 128.732 121.14 102.25 173.737L156.017 215.433C168.673 177.394 204.151 149.084 246.067 149.084Z" fill="#EA4335"/>
</g>
<g filter="url(#filter32_f_2002_1311)">
<path d="M400.565 249.668C400.565 238.257 399.54 227.284 397.638 216.75H246.067V279.002H332.679C328.949 299.119 317.61 316.164 300.566 327.575V367.955H352.577C383.008 339.938 400.565 298.68 400.565 249.668Z" fill="#4285F4"/>
<path d="M246.067 406.945C289.52 406.945 325.95 392.534 352.577 367.955L300.566 327.575C286.155 337.231 267.72 342.937 246.067 342.937C204.151 342.937 168.673 314.627 156.017 276.588H102.25V318.285C128.732 370.881 183.157 406.945 246.067 406.945Z" fill="#34A853"/>
<path d="M156.017 276.589C152.798 266.933 150.97 256.618 150.97 246.011C150.97 235.404 152.798 225.09 156.017 215.434V173.737H102.25C90.985 196.163 85.1229 220.914 85.1328 246.011C85.1328 271.98 91.3508 296.559 102.25 318.285L156.017 276.589Z" fill="#FBBC05"/>
<path d="M246.067 149.084C269.696 149.084 290.91 157.204 307.588 173.152L353.747 126.993C325.876 101.024 289.447 85.0764 246.067 85.0764C183.157 85.0764 128.732 121.14 102.25 173.737L156.017 215.433C168.673 177.394 204.151 149.084 246.067 149.084Z" fill="#EA4335"/>
</g>
<g filter="url(#filter33_f_2002_1311)">
<path d="M400.565 249.668C400.565 238.257 399.54 227.284 397.638 216.75H246.067V279.002H332.679C328.949 299.119 317.61 316.164 300.566 327.575V367.955H352.577C383.008 339.938 400.565 298.68 400.565 249.668Z" fill="#4285F4"/>
<path d="M246.067 406.945C289.52 406.945 325.95 392.534 352.577 367.955L300.566 327.575C286.155 337.231 267.72 342.937 246.067 342.937C204.151 342.937 168.673 314.627 156.017 276.588H102.25V318.285C128.732 370.881 183.157 406.945 246.067 406.945Z" fill="#34A853"/>
<path d="M156.017 276.589C152.798 266.933 150.97 256.618 150.97 246.011C150.97 235.404 152.798 225.09 156.017 215.434V173.737H102.25C90.985 196.163 85.1229 220.914 85.1328 246.011C85.1328 271.98 91.3508 296.559 102.25 318.285L156.017 276.589Z" fill="#FBBC05"/>
<path d="M246.067 149.084C269.696 149.084 290.91 157.204 307.588 173.152L353.747 126.993C325.876 101.024 289.447 85.0764 246.067 85.0764C183.157 85.0764 128.732 121.14 102.25 173.737L156.017 215.433C168.673 177.394 204.151 149.084 246.067 149.084Z" fill="#EA4335"/>
</g>
<g filter="url(#filter34_f_2002_1311)">
<path d="M400.565 249.668C400.565 238.257 399.54 227.284 397.638 216.75H246.067V279.002H332.679C328.949 299.119 317.61 316.164 300.566 327.575V367.955H352.577C383.008 339.938 400.565 298.68 400.565 249.668Z" fill="#4285F4"/>
<path d="M246.067 406.945C289.52 406.945 325.95 392.534 352.577 367.955L300.566 327.575C286.155 337.231 267.72 342.937 246.067 342.937C204.151 342.937 168.673 314.627 156.017 276.588H102.25V318.285C128.732 370.881 183.157 406.945 246.067 406.945Z" fill="#34A853"/>
<path d="M156.017 276.589C152.798 266.933 150.97 256.618 150.97 246.011C150.97 235.404 152.798 225.09 156.017 215.434V173.737H102.25C90.985 196.163 85.1229 220.914 85.1328 246.011C85.1328 271.98 91.3508 296.559 102.25 318.285L156.017 276.589Z" fill="#FBBC05"/>
<path d="M246.067 149.084C269.696 149.084 290.91 157.204 307.588 173.152L353.747 126.993C325.876 101.024 289.447 85.0764 246.067 85.0764C183.157 85.0764 128.732 121.14 102.25 173.737L156.017 215.433C168.673 177.394 204.151 149.084 246.067 149.084Z" fill="#EA4335"/>
</g>
<g filter="url(#filter35_f_2002_1311)">
<path d="M400.565 249.668C400.565 238.257 399.54 227.284 397.638 216.75H246.067V279.002H332.679C328.949 299.119 317.61 316.164 300.566 327.575V367.955H352.577C383.008 339.938 400.565 298.68 400.565 249.668Z" fill="#4285F4"/>
<path d="M246.067 406.945C289.52 406.945 325.95 392.534 352.577 367.955L300.566 327.575C286.155 337.231 267.72 342.937 246.067 342.937C204.151 342.937 168.673 314.627 156.017 276.588H102.25V318.285C128.732 370.881 183.157 406.945 246.067 406.945Z" fill="#34A853"/>
<path d="M156.017 276.589C152.798 266.933 150.97 256.618 150.97 246.011C150.97 235.404 152.798 225.09 156.017 215.434V173.737H102.25C90.985 196.163 85.1229 220.914 85.1328 246.011C85.1328 271.98 91.3508 296.559 102.25 318.285L156.017 276.589Z" fill="#FBBC05"/>
<path d="M246.067 149.084C269.696 149.084 290.91 157.204 307.588 173.152L353.747 126.993C325.876 101.024 289.447 85.0764 246.067 85.0764C183.157 85.0764 128.732 121.14 102.25 173.737L156.017 215.433C168.673 177.394 204.151 149.084 246.067 149.084Z" fill="#EA4335"/>
</g>
<g filter="url(#filter36_f_2002_1311)">
<path d="M400.565 249.668C400.565 238.257 399.54 227.284 397.638 216.75H246.067V279.002H332.679C328.949 299.119 317.61 316.164 300.566 327.575V367.955H352.577C383.008 339.938 400.565 298.68 400.565 249.668Z" fill="#4285F4"/>
<path d="M246.067 406.945C289.52 406.945 325.95 392.534 352.577 367.955L300.566 327.575C286.155 337.231 267.72 342.937 246.067 342.937C204.151 342.937 168.673 314.627 156.017 276.588H102.25V318.285C128.732 370.881 183.157 406.945 246.067 406.945Z" fill="#34A853"/>
<path d="M156.017 276.589C152.798 266.933 150.97 256.618 150.97 246.011C150.97 235.404 152.798 225.09 156.017 215.434V173.737H102.25C90.985 196.163 85.1229 220.914 85.1328 246.011C85.1328 271.98 91.3508 296.559 102.25 318.285L156.017 276.589Z" fill="#FBBC05"/>
<path d="M246.067 149.084C269.696 149.084 290.91 157.204 307.588 173.152L353.747 126.993C325.876 101.024 289.447 85.0764 246.067 85.0764C183.157 85.0764 128.732 121.14 102.25 173.737L156.017 215.433C168.673 177.394 204.151 149.084 246.067 149.084Z" fill="#EA4335"/>
</g>
<g filter="url(#filter37_f_2002_1311)">
<path d="M400.565 249.668C400.565 238.257 399.54 227.284 397.638 216.75H246.067V279.002H332.679C328.949 299.119 317.61 316.164 300.566 327.575V367.955H352.577C383.008 339.938 400.565 298.68 400.565 249.668Z" fill="#4285F4"/>
<path d="M246.067 406.945C289.52 406.945 325.95 392.534 352.577 367.955L300.566 327.575C286.155 337.231 267.72 342.937 246.067 342.937C204.151 342.937 168.673 314.627 156.017 276.588H102.25V318.285C128.732 370.881 183.157 406.945 246.067 406.945Z" fill="#34A853"/>
<path d="M156.017 276.589C152.798 266.933 150.97 256.618 150.97 246.011C150.97 235.404 152.798 225.09 156.017 215.434V173.737H102.25C90.985 196.163 85.1229 220.914 85.1328 246.011C85.1328 271.98 91.3508 296.559 102.25 318.285L156.017 276.589Z" fill="#FBBC05"/>
<path d="M246.067 149.084C269.696 149.084 290.91 157.204 307.588 173.152L353.747 126.993C325.876 101.024 289.447 85.0764 246.067 85.0764C183.157 85.0764 128.732 121.14 102.25 173.737L156.017 215.433C168.673 177.394 204.151 149.084 246.067 149.084Z" fill="#EA4335"/>
</g>
<g filter="url(#filter38_f_2002_1311)">
<path d="M400.565 249.668C400.565 238.257 399.54 227.284 397.638 216.75H246.067V279.002H332.679C328.949 299.119 317.61 316.164 300.566 327.575V367.955H352.577C383.008 339.938 400.565 298.68 400.565 249.668Z" fill="#4285F4"/>
<path d="M246.067 406.945C289.52 406.945 325.95 392.534 352.577 367.955L300.566 327.575C286.155 337.231 267.72 342.937 246.067 342.937C204.151 342.937 168.673 314.627 156.017 276.588H102.25V318.285C128.732 370.881 183.157 406.945 246.067 406.945Z" fill="#34A853"/>
<path d="M156.017 276.589C152.798 266.933 150.97 256.618 150.97 246.011C150.97 235.404 152.798 225.09 156.017 215.434V173.737H102.25C90.985 196.163 85.1229 220.914 85.1328 246.011C85.1328 271.98 91.3508 296.559 102.25 318.285L156.017 276.589Z" fill="#FBBC05"/>
<path d="M246.067 149.084C269.696 149.084 290.91 157.204 307.588 173.152L353.747 126.993C325.876 101.024 289.447 85.0764 246.067 85.0764C183.157 85.0764 128.732 121.14 102.25 173.737L156.017 215.433C168.673 177.394 204.151 149.084 246.067 149.084Z" fill="#EA4335"/>
</g>
<g filter="url(#filter39_f_2002_1311)">
<path d="M400.565 249.668C400.565 238.257 399.54 227.284 397.638 216.75H246.067V279.002H332.679C328.949 299.119 317.61 316.164 300.566 327.575V367.955H352.577C383.008 339.938 400.565 298.68 400.565 249.668Z" fill="#4285F4"/>
<path d="M246.067 406.945C289.52 406.945 325.95 392.534 352.577 367.955L300.566 327.575C286.155 337.231 267.72 342.937 246.067 342.937C204.151 342.937 168.673 314.627 156.017 276.588H102.25V318.285C128.732 370.881 183.157 406.945 246.067 406.945Z" fill="#34A853"/>
<path d="M156.017 276.589C152.798 266.933 150.97 256.618 150.97 246.011C150.97 235.404 152.798 225.09 156.017 215.434V173.737H102.25C90.985 196.163 85.1229 220.914 85.1328 246.011C85.1328 271.98 91.3508 296.559 102.25 318.285L156.017 276.589Z" fill="#FBBC05"/>
<path d="M246.067 149.084C269.696 149.084 290.91 157.204 307.588 173.152L353.747 126.993C325.876 101.024 289.447 85.0764 246.067 85.0764C183.157 85.0764 128.732 121.14 102.25 173.737L156.017 215.433C168.673 177.394 204.151 149.084 246.067 149.084Z" fill="#EA4335"/>
</g>
<g filter="url(#filter40_f_2002_1311)">
<path d="M400.565 249.668C400.565 238.257 399.54 227.284 397.638 216.75H246.067V279.002H332.679C328.949 299.119 317.61 316.164 300.566 327.575V367.955H352.577C383.008 339.938 400.565 298.68 400.565 249.668Z" fill="#4285F4"/>
<path d="M246.067 406.945C289.52 406.945 325.95 392.534 352.577 367.955L300.566 327.575C286.155 337.231 267.72 342.937 246.067 342.937C204.151 342.937 168.673 314.627 156.017 276.588H102.25V318.285C128.732 370.881 183.157 406.945 246.067 406.945Z" fill="#34A853"/>
<path d="M156.017 276.589C152.798 266.933 150.97 256.618 150.97 246.011C150.97 235.404 152.798 225.09 156.017 215.434V173.737H102.25C90.985 196.163 85.1229 220.914 85.1328 246.011C85.1328 271.98 91.3508 296.559 102.25 318.285L156.017 276.589Z" fill="#FBBC05"/>
<path d="M246.067 149.084C269.696 149.084 290.91 157.204 307.588 173.152L353.747 126.993C325.876 101.024 289.447 85.0764 246.067 85.0764C183.157 85.0764 128.732 121.14 102.25 173.737L156.017 215.433C168.673 177.394 204.151 149.084 246.067 149.084Z" fill="#EA4335"/>
</g>
<g filter="url(#filter41_f_2002_1311)">
<path d="M400.565 249.668C400.565 238.257 399.54 227.284 397.638 216.75H246.067V279.002H332.679C328.949 299.119 317.61 316.164 300.566 327.575V367.955H352.577C383.008 339.938 400.565 298.68 400.565 249.668Z" fill="#4285F4"/>
<path d="M246.067 406.945C289.52 406.945 325.95 392.534 352.577 367.955L300.566 327.575C286.155 337.231 267.72 342.937 246.067 342.937C204.151 342.937 168.673 314.627 156.017 276.588H102.25V318.285C128.732 370.881 183.157 406.945 246.067 406.945Z" fill="#34A853"/>
<path d="M156.017 276.589C152.798 266.933 150.97 256.618 150.97 246.011C150.97 235.404 152.798 225.09 156.017 215.434V173.737H102.25C90.985 196.163 85.1229 220.914 85.1328 246.011C85.1328 271.98 91.3508 296.559 102.25 318.285L156.017 276.589Z" fill="#FBBC05"/>
<path d="M246.067 149.084C269.696 149.084 290.91 157.204 307.588 173.152L353.747 126.993C325.876 101.024 289.447 85.0764 246.067 85.0764C183.157 85.0764 128.732 121.14 102.25 173.737L156.017 215.433C168.673 177.394 204.151 149.084 246.067 149.084Z" fill="#EA4335"/>
</g>
<g filter="url(#filter42_f_2002_1311)">
<path d="M400.565 249.668C400.565 238.257 399.54 227.284 397.638 216.75H246.067V279.002H332.679C328.949 299.119 317.61 316.164 300.566 327.575V367.955H352.577C383.008 339.938 400.565 298.68 400.565 249.668Z" fill="#4285F4"/>
<path d="M246.067 406.945C289.52 406.945 325.95 392.534 352.577 367.955L300.566 327.575C286.155 337.231 267.72 342.937 246.067 342.937C204.151 342.937 168.673 314.627 156.017 276.588H102.25V318.285C128.732 370.881 183.157 406.945 246.067 406.945Z" fill="#34A853"/>
<path d="M156.017 276.589C152.798 266.933 150.97 256.618 150.97 246.011C150.97 235.404 152.798 225.09 156.017 215.434V173.737H102.25C90.985 196.163 85.1229 220.914 85.1328 246.011C85.1328 271.98 91.3508 296.559 102.25 318.285L156.017 276.589Z" fill="#FBBC05"/>
<path d="M246.067 149.084C269.696 149.084 290.91 157.204 307.588 173.152L353.747 126.993C325.876 101.024 289.447 85.0764 246.067 85.0764C183.157 85.0764 128.732 121.14 102.25 173.737L156.017 215.433C168.673 177.394 204.151 149.084 246.067 149.084Z" fill="#EA4335"/>
</g>
<g filter="url(#filter43_f_2002_1311)">
<path d="M400.565 249.668C400.565 238.257 399.54 227.284 397.638 216.75H246.067V279.002H332.679C328.949 299.119 317.61 316.164 300.566 327.575V367.955H352.577C383.008 339.938 400.565 298.68 400.565 249.668Z" fill="#4285F4"/>
<path d="M246.067 406.945C289.52 406.945 325.95 392.534 352.577 367.955L300.566 327.575C286.155 337.231 267.72 342.937 246.067 342.937C204.151 342.937 168.673 314.627 156.017 276.588H102.25V318.285C128.732 370.881 183.157 406.945 246.067 406.945Z" fill="#34A853"/>
<path d="M156.017 276.589C152.798 266.933 150.97 256.618 150.97 246.011C150.97 235.404 152.798 225.09 156.017 215.434V173.737H102.25C90.985 196.163 85.1229 220.914 85.1328 246.011C85.1328 271.98 91.3508 296.559 102.25 318.285L156.017 276.589Z" fill="#FBBC05"/>
<path d="M246.067 149.084C269.696 149.084 290.91 157.204 307.588 173.152L353.747 126.993C325.876 101.024 289.447 85.0764 246.067 85.0764C183.157 85.0764 128.732 121.14 102.25 173.737L156.017 215.433C168.673 177.394 204.151 149.084 246.067 149.084Z" fill="#EA4335"/>
</g>
</g>
<defs>
<filter id="filter0_f_2002_1311" x="14.9068" y="14.8504" width="455.884" height="462.321" filterUnits="userSpaceOnUse" color-interpolation-filters="sRGB">
<feFlood flood-opacity="0" result="BackgroundImageFix"/>
<feBlend mode="normal" in="SourceGraphic" in2="BackgroundImageFix" result="shape"/>
<feGaussianBlur stdDeviation="35.113" result="effect1_foregroundBlur_2002_1311"/>
</filter>
<filter id="filter1_f_2002_1311" x="14.9068" y="14.8504" width="455.884" height="462.321" filterUnits="userSpaceOnUse" color-interpolation-filters="sRGB">
<feFlood flood-opacity="0" result="BackgroundImageFix"/>
<feBlend mode="normal" in="SourceGraphic" in2="BackgroundImageFix" result="shape"/>
<feGaussianBlur stdDeviation="35.113" result="effect1_foregroundBlur_2002_1311"/>
</filter>
<filter id="filter2_f_2002_1311" x="14.9068" y="14.8504" width="455.884" height="462.321" filterUnits="userSpaceOnUse" color-interpolation-filters="sRGB">
<feFlood flood-opacity="0" result="BackgroundImageFix"/>
<feBlend mode="normal" in="SourceGraphic" in2="BackgroundImageFix" result="shape"/>
<feGaussianBlur stdDeviation="35.113" result="effect1_foregroundBlur_2002_1311"/>
</filter>
<filter id="filter3_f_2002_1311" x="14.9068" y="14.8504" width="455.884" height="462.321" filterUnits="userSpaceOnUse" color-interpolation-filters="sRGB">
<feFlood flood-opacity="0" result="BackgroundImageFix"/>
<feBlend mode="normal" in="SourceGraphic" in2="BackgroundImageFix" result="shape"/>
<feGaussianBlur stdDeviation="35.113" result="effect1_foregroundBlur_2002_1311"/>
</filter>
<filter id="filter4_f_2002_1311" x="14.9068" y="14.8504" width="455.884" height="462.321" filterUnits="userSpaceOnUse" color-interpolation-filters="sRGB">
<feFlood flood-opacity="0" result="BackgroundImageFix"/>
<feBlend mode="normal" in="SourceGraphic" in2="BackgroundImageFix" result="shape"/>
<feGaussianBlur stdDeviation="35.113" result="effect1_foregroundBlur_2002_1311"/>
</filter>
<filter id="filter5_f_2002_1311" x="14.9068" y="14.8504" width="455.884" height="462.321" filterUnits="userSpaceOnUse" color-interpolation-filters="sRGB">
<feFlood flood-opacity="0" result="BackgroundImageFix"/>
<feBlend mode="normal" in="SourceGraphic" in2="BackgroundImageFix" result="shape"/>
<feGaussianBlur stdDeviation="35.113" result="effect1_foregroundBlur_2002_1311"/>
</filter>
<filter id="filter6_f_2002_1311" x="14.9068" y="14.8504" width="455.884" height="462.321" filterUnits="userSpaceOnUse" color-interpolation-filters="sRGB">
<feFlood flood-opacity="0" result="BackgroundImageFix"/>
<feBlend mode="normal" in="SourceGraphic" in2="BackgroundImageFix" result="shape"/>
<feGaussianBlur stdDeviation="35.113" result="effect1_foregroundBlur_2002_1311"/>
</filter>
<filter id="filter7_f_2002_1311" x="14.9068" y="14.8504" width="455.884" height="462.321" filterUnits="userSpaceOnUse" color-interpolation-filters="sRGB">
<feFlood flood-opacity="0" result="BackgroundImageFix"/>
<feBlend mode="normal" in="SourceGraphic" in2="BackgroundImageFix" result="shape"/>
<feGaussianBlur stdDeviation="35.113" result="effect1_foregroundBlur_2002_1311"/>
</filter>
<filter id="filter8_f_2002_1311" x="14.9068" y="14.8504" width="455.884" height="462.321" filterUnits="userSpaceOnUse" color-interpolation-filters="sRGB">
<feFlood flood-opacity="0" result="BackgroundImageFix"/>
<feBlend mode="normal" in="SourceGraphic" in2="BackgroundImageFix" result="shape"/>
<feGaussianBlur stdDeviation="35.113" result="effect1_foregroundBlur_2002_1311"/>
</filter>
<filter id="filter9_f_2002_1311" x="14.9068" y="14.8504" width="455.884" height="462.321" filterUnits="userSpaceOnUse" color-interpolation-filters="sRGB">
<feFlood flood-opacity="0" result="BackgroundImageFix"/>
<feBlend mode="normal" in="SourceGraphic" in2="BackgroundImageFix" result="shape"/>
<feGaussianBlur stdDeviation="35.113" result="effect1_foregroundBlur_2002_1311"/>
</filter>
<filter id="filter10_f_2002_1311" x="14.9068" y="14.8504" width="455.884" height="462.321" filterUnits="userSpaceOnUse" color-interpolation-filters="sRGB">
<feFlood flood-opacity="0" result="BackgroundImageFix"/>
<feBlend mode="normal" in="SourceGraphic" in2="BackgroundImageFix" result="shape"/>
<feGaussianBlur stdDeviation="35.113" result="effect1_foregroundBlur_2002_1311"/>
</filter>
<filter id="filter11_f_2002_1311" x="14.9068" y="14.8504" width="455.884" height="462.321" filterUnits="userSpaceOnUse" color-interpolation-filters="sRGB">
<feFlood flood-opacity="0" result="BackgroundImageFix"/>
<feBlend mode="normal" in="SourceGraphic" in2="BackgroundImageFix" result="shape"/>
<feGaussianBlur stdDeviation="35.113" result="effect1_foregroundBlur_2002_1311"/>
</filter>
<filter id="filter12_f_2002_1311" x="14.9068" y="14.8504" width="455.884" height="462.321" filterUnits="userSpaceOnUse" color-interpolation-filters="sRGB">
<feFlood flood-opacity="0" result="BackgroundImageFix"/>
<feBlend mode="normal" in="SourceGraphic" in2="BackgroundImageFix" result="shape"/>
<feGaussianBlur stdDeviation="35.113" result="effect1_foregroundBlur_2002_1311"/>
</filter>
<filter id="filter13_f_2002_1311" x="14.9068" y="14.8504" width="455.884" height="462.321" filterUnits="userSpaceOnUse" color-interpolation-filters="sRGB">
<feFlood flood-opacity="0" result="BackgroundImageFix"/>
<feBlend mode="normal" in="SourceGraphic" in2="BackgroundImageFix" result="shape"/>
<feGaussianBlur stdDeviation="35.113" result="effect1_foregroundBlur_2002_1311"/>
</filter>
<filter id="filter14_f_2002_1311" x="14.9068" y="14.8504" width="455.884" height="462.321" filterUnits="userSpaceOnUse" color-interpolation-filters="sRGB">
<feFlood flood-opacity="0" result="BackgroundImageFix"/>
<feBlend mode="normal" in="SourceGraphic" in2="BackgroundImageFix" result="shape"/>
<feGaussianBlur stdDeviation="35.113" result="effect1_foregroundBlur_2002_1311"/>
</filter>
<filter id="filter15_f_2002_1311" x="14.9068" y="14.8504" width="455.884" height="462.321" filterUnits="userSpaceOnUse" color-interpolation-filters="sRGB">
<feFlood flood-opacity="0" result="BackgroundImageFix"/>
<feBlend mode="normal" in="SourceGraphic" in2="BackgroundImageFix" result="shape"/>
<feGaussianBlur stdDeviation="35.113" result="effect1_foregroundBlur_2002_1311"/>
</filter>
<filter id="filter16_f_2002_1311" x="14.9068" y="14.8504" width="455.884" height="462.321" filterUnits="userSpaceOnUse" color-interpolation-filters="sRGB">
<feFlood flood-opacity="0" result="BackgroundImageFix"/>
<feBlend mode="normal" in="SourceGraphic" in2="BackgroundImageFix" result="shape"/>
<feGaussianBlur stdDeviation="35.113" result="effect1_foregroundBlur_2002_1311"/>
</filter>
<filter id="filter17_f_2002_1311" x="14.9068" y="14.8504" width="455.884" height="462.321" filterUnits="userSpaceOnUse" color-interpolation-filters="sRGB">
<feFlood flood-opacity="0" result="BackgroundImageFix"/>
<feBlend mode="normal" in="SourceGraphic" in2="BackgroundImageFix" result="shape"/>
<feGaussianBlur stdDeviation="35.113" result="effect1_foregroundBlur_2002_1311"/>
</filter>
<filter id="filter18_f_2002_1311" x="14.9068" y="14.8504" width="455.884" height="462.321" filterUnits="userSpaceOnUse" color-interpolation-filters="sRGB">
<feFlood flood-opacity="0" result="BackgroundImageFix"/>
<feBlend mode="normal" in="SourceGraphic" in2="BackgroundImageFix" result="shape"/>
<feGaussianBlur stdDeviation="35.113" result="effect1_foregroundBlur_2002_1311"/>
</filter>
<filter id="filter19_f_2002_1311" x="14.9068" y="14.8504" width="455.884" height="462.321" filterUnits="userSpaceOnUse" color-interpolation-filters="sRGB">
<feFlood flood-opacity="0" result="BackgroundImageFix"/>
<feBlend mode="normal" in="SourceGraphic" in2="BackgroundImageFix" result="shape"/>
<feGaussianBlur stdDeviation="35.113" result="effect1_foregroundBlur_2002_1311"/>
</filter>
<filter id="filter20_f_2002_1311" x="14.9068" y="14.8504" width="455.884" height="462.321" filterUnits="userSpaceOnUse" color-interpolation-filters="sRGB">
<feFlood flood-opacity="0" result="BackgroundImageFix"/>
<feBlend mode="normal" in="SourceGraphic" in2="BackgroundImageFix" result="shape"/>
<feGaussianBlur stdDeviation="35.113" result="effect1_foregroundBlur_2002_1311"/>
</filter>
<filter id="filter21_f_2002_1311" x="14.9068" y="14.8504" width="455.884" height="462.321" filterUnits="userSpaceOnUse" color-interpolation-filters="sRGB">
<feFlood flood-opacity="0" result="BackgroundImageFix"/>
<feBlend mode="normal" in="SourceGraphic" in2="BackgroundImageFix" result="shape"/>
<feGaussianBlur stdDeviation="35.113" result="effect1_foregroundBlur_2002_1311"/>
</filter>
<filter id="filter22_f_2002_1311" x="14.9068" y="14.8504" width="455.884" height="462.321" filterUnits="userSpaceOnUse" color-interpolation-filters="sRGB">
<feFlood flood-opacity="0" result="BackgroundImageFix"/>
<feBlend mode="normal" in="SourceGraphic" in2="BackgroundImageFix" result="shape"/>
<feGaussianBlur stdDeviation="35.113" result="effect1_foregroundBlur_2002_1311"/>
</filter>
<filter id="filter23_f_2002_1311" x="14.9068" y="14.8504" width="455.884" height="462.321" filterUnits="userSpaceOnUse" color-interpolation-filters="sRGB">
<feFlood flood-opacity="0" result="BackgroundImageFix"/>
<feBlend mode="normal" in="SourceGraphic" in2="BackgroundImageFix" result="shape"/>
<feGaussianBlur stdDeviation="35.113" result="effect1_foregroundBlur_2002_1311"/>
</filter>
<filter id="filter24_f_2002_1311" x="14.9068" y="14.8504" width="455.884" height="462.321" filterUnits="userSpaceOnUse" color-interpolation-filters="sRGB">
<feFlood flood-opacity="0" result="BackgroundImageFix"/>
<feBlend mode="normal" in="SourceGraphic" in2="BackgroundImageFix" result="shape"/>
<feGaussianBlur stdDeviation="35.113" result="effect1_foregroundBlur_2002_1311"/>
</filter>
<filter id="filter25_f_2002_1311" x="14.9068" y="14.8504" width="455.884" height="462.321" filterUnits="userSpaceOnUse" color-interpolation-filters="sRGB">
<feFlood flood-opacity="0" result="BackgroundImageFix"/>
<feBlend mode="normal" in="SourceGraphic" in2="BackgroundImageFix" result="shape"/>
<feGaussianBlur stdDeviation="35.113" result="effect1_foregroundBlur_2002_1311"/>
</filter>
<filter id="filter26_f_2002_1311" x="14.9068" y="14.8504" width="455.884" height="462.321" filterUnits="userSpaceOnUse" color-interpolation-filters="sRGB">
<feFlood flood-opacity="0" result="BackgroundImageFix"/>
<feBlend mode="normal" in="SourceGraphic" in2="BackgroundImageFix" result="shape"/>
<feGaussianBlur stdDeviation="35.113" result="effect1_foregroundBlur_2002_1311"/>
</filter>
<filter id="filter27_f_2002_1311" x="14.9068" y="14.8504" width="455.884" height="462.321" filterUnits="userSpaceOnUse" color-interpolation-filters="sRGB">
<feFlood flood-opacity="0" result="BackgroundImageFix"/>
<feBlend mode="normal" in="SourceGraphic" in2="BackgroundImageFix" result="shape"/>
<feGaussianBlur stdDeviation="35.113" result="effect1_foregroundBlur_2002_1311"/>
</filter>
<filter id="filter28_f_2002_1311" x="14.9068" y="14.8504" width="455.884" height="462.321" filterUnits="userSpaceOnUse" color-interpolation-filters="sRGB">
<feFlood flood-opacity="0" result="BackgroundImageFix"/>
<feBlend mode="normal" in="SourceGraphic" in2="BackgroundImageFix" result="shape"/>
<feGaussianBlur stdDeviation="35.113" result="effect1_foregroundBlur_2002_1311"/>
</filter>
<filter id="filter29_f_2002_1311" x="14.9068" y="14.8504" width="455.884" height="462.321" filterUnits="userSpaceOnUse" color-interpolation-filters="sRGB">
<feFlood flood-opacity="0" result="BackgroundImageFix"/>
<feBlend mode="normal" in="SourceGraphic" in2="BackgroundImageFix" result="shape"/>
<feGaussianBlur stdDeviation="35.113" result="effect1_foregroundBlur_2002_1311"/>
</filter>
<filter id="filter30_f_2002_1311" x="14.9068" y="14.8504" width="455.884" height="462.321" filterUnits="userSpaceOnUse" color-interpolation-filters="sRGB">
<feFlood flood-opacity="0" result="BackgroundImageFix"/>
<feBlend mode="normal" in="SourceGraphic" in2="BackgroundImageFix" result="shape"/>
<feGaussianBlur stdDeviation="35.113" result="effect1_foregroundBlur_2002_1311"/>
</filter>
<filter id="filter31_f_2002_1311" x="14.9068" y="14.8504" width="455.884" height="462.321" filterUnits="userSpaceOnUse" color-interpolation-filters="sRGB">
<feFlood flood-opacity="0" result="BackgroundImageFix"/>
<feBlend mode="normal" in="SourceGraphic" in2="BackgroundImageFix" result="shape"/>
<feGaussianBlur stdDeviation="35.113" result="effect1_foregroundBlur_2002_1311"/>
</filter>
<filter id="filter32_f_2002_1311" x="14.9068" y="14.8504" width="455.884" height="462.321" filterUnits="userSpaceOnUse" color-interpolation-filters="sRGB">
<feFlood flood-opacity="0" result="BackgroundImageFix"/>
<feBlend mode="normal" in="SourceGraphic" in2="BackgroundImageFix" result="shape"/>
<feGaussianBlur stdDeviation="35.113" result="effect1_foregroundBlur_2002_1311"/>
</filter>
<filter id="filter33_f_2002_1311" x="14.9068" y="14.8504" width="455.884" height="462.321" filterUnits="userSpaceOnUse" color-interpolation-filters="sRGB">
<feFlood flood-opacity="0" result="BackgroundImageFix"/>
<feBlend mode="normal" in="SourceGraphic" in2="BackgroundImageFix" result="shape"/>
<feGaussianBlur stdDeviation="35.113" result="effect1_foregroundBlur_2002_1311"/>
</filter>
<filter id="filter34_f_2002_1311" x="14.9068" y="14.8504" width="455.884" height="462.321" filterUnits="userSpaceOnUse" color-interpolation-filters="sRGB">
<feFlood flood-opacity="0" result="BackgroundImageFix"/>
<feBlend mode="normal" in="SourceGraphic" in2="BackgroundImageFix" result="shape"/>
<feGaussianBlur stdDeviation="35.113" result="effect1_foregroundBlur_2002_1311"/>
</filter>
<filter id="filter35_f_2002_1311" x="14.9068" y="14.8504" width="455.884" height="462.321" filterUnits="userSpaceOnUse" color-interpolation-filters="sRGB">
<feFlood flood-opacity="0" result="BackgroundImageFix"/>
<feBlend mode="normal" in="SourceGraphic" in2="BackgroundImageFix" result="shape"/>
<feGaussianBlur stdDeviation="35.113" result="effect1_foregroundBlur_2002_1311"/>
</filter>
<filter id="filter36_f_2002_1311" x="14.9068" y="14.8504" width="455.884" height="462.321" filterUnits="userSpaceOnUse" color-interpolation-filters="sRGB">
<feFlood flood-opacity="0" result="BackgroundImageFix"/>
<feBlend mode="normal" in="SourceGraphic" in2="BackgroundImageFix" result="shape"/>
<feGaussianBlur stdDeviation="35.113" result="effect1_foregroundBlur_2002_1311"/>
</filter>
<filter id="filter37_f_2002_1311" x="14.9068" y="14.8504" width="455.884" height="462.321" filterUnits="userSpaceOnUse" color-interpolation-filters="sRGB">
<feFlood flood-opacity="0" result="BackgroundImageFix"/>
<feBlend mode="normal" in="SourceGraphic" in2="BackgroundImageFix" result="shape"/>
<feGaussianBlur stdDeviation="35.113" result="effect1_foregroundBlur_2002_1311"/>
</filter>
<filter id="filter38_f_2002_1311" x="14.9068" y="14.8504" width="455.884" height="462.321" filterUnits="userSpaceOnUse" color-interpolation-filters="sRGB">
<feFlood flood-opacity="0" result="BackgroundImageFix"/>
<feBlend mode="normal" in="SourceGraphic" in2="BackgroundImageFix" result="shape"/>
<feGaussianBlur stdDeviation="35.113" result="effect1_foregroundBlur_2002_1311"/>
</filter>
<filter id="filter39_f_2002_1311" x="14.9068" y="14.8504" width="455.884" height="462.321" filterUnits="userSpaceOnUse" color-interpolation-filters="sRGB">
<feFlood flood-opacity="0" result="BackgroundImageFix"/>
<feBlend mode="normal" in="SourceGraphic" in2="BackgroundImageFix" result="shape"/>
<feGaussianBlur stdDeviation="35.113" result="effect1_foregroundBlur_2002_1311"/>
</filter>
<filter id="filter40_f_2002_1311" x="14.9068" y="14.8504" width="455.884" height="462.321" filterUnits="userSpaceOnUse" color-interpolation-filters="sRGB">
<feFlood flood-opacity="0" result="BackgroundImageFix"/>
<feBlend mode="normal" in="SourceGraphic" in2="BackgroundImageFix" result="shape"/>
<feGaussianBlur stdDeviation="35.113" result="effect1_foregroundBlur_2002_1311"/>
</filter>
<filter id="filter41_f_2002_1311" x="14.9068" y="14.8504" width="455.884" height="462.321" filterUnits="userSpaceOnUse" color-interpolation-filters="sRGB">
<feFlood flood-opacity="0" result="BackgroundImageFix"/>
<feBlend mode="normal" in="SourceGraphic" in2="BackgroundImageFix" result="shape"/>
<feGaussianBlur stdDeviation="35.113" result="effect1_foregroundBlur_2002_1311"/>
</filter>
<filter id="filter42_f_2002_1311" x="14.9068" y="14.8504" width="455.884" height="462.321" filterUnits="userSpaceOnUse" color-interpolation-filters="sRGB">
<feFlood flood-opacity="0" result="BackgroundImageFix"/>
<feBlend mode="normal" in="SourceGraphic" in2="BackgroundImageFix" result="shape"/>
<feGaussianBlur stdDeviation="35.113" result="effect1_foregroundBlur_2002_1311"/>
</filter>
<filter id="filter43_f_2002_1311" x="14.9068" y="14.8504" width="455.884" height="462.321" filterUnits="userSpaceOnUse" color-interpolation-filters="sRGB">
<feFlood flood-opacity="0" result="BackgroundImageFix"/>
<feBlend mode="normal" in="SourceGraphic" in2="BackgroundImageFix" result="shape"/>
<feGaussianBlur stdDeviation="35.113" result="effect1_foregroundBlur_2002_1311"/>
</filter>
</defs>
</svg>
