<svg width="400" height="400" viewBox="0 0 400 400" fill="none" xmlns="http://www.w3.org/2000/svg">
<path fill-rule="evenodd" clip-rule="evenodd" d="M167.834 60.2438C146.478 64.6658 127.254 75.9128 115.516 90.8528C106.403 102.453 99.0934 119.106 97.4934 131.915C97.1114 134.973 96.4674 138.012 96.0624 138.666C95.6574 139.321 90.5334 140.94 84.6764 142.264C55.1424 148.937 36.7754 165.85 31.5984 191.14C28.3674 206.925 30.1094 224.403 36.1474 236.783C40.4374 245.578 52.0314 257.096 61.5754 262.045C67.5134 265.124 78.0884 268.399 91.1574 271.206C93.4184 271.692 94.0064 272.577 95.0264 277.031C97.7224 288.804 97.3564 320.886 94.3264 338.533C93.5864 342.838 94.6074 342.759 105.6 337.659C117.858 331.972 123.459 330.15 137.428 327.304C156.163 323.486 169.891 322.44 192.908 323.077C221.509 323.867 243.849 327.801 262.24 335.285C265.939 336.79 263.735 333.765 257.646 328.98C244.697 318.804 228.533 311.445 210.708 307.609C202.193 305.777 197.157 305.401 180.49 305.347C157.644 305.274 138.234 307.691 120.997 312.756C119.075 313.321 117.007 313.783 116.401 313.783C115.688 313.783 115.08 309.279 114.679 301.033C114.338 294.021 113.557 284.702 112.942 280.324C111.795 272.149 107.566 257.258 105.76 255.033C105.202 254.346 102.888 253.78 100.618 253.775C86.4514 253.75 68.0284 247.5 59.6404 239.874C50.8714 231.901 46.7424 221.427 46.7414 207.151C46.7404 182.497 58.1464 167.359 82.3454 159.897C86.1164 158.734 90.6824 157.783 92.4934 157.783C95.7664 157.783 95.7914 157.82 96.9334 164.374C99.6434 179.937 106.005 194.208 113.61 201.783L117.123 205.283L113.574 198.149C108.488 187.926 106.874 180.977 106.27 166.71C105.867 157.19 106.143 152.132 107.409 145.887C114.044 113.143 132.348 91.2638 160.968 81.8678C170.748 78.6578 188.76 77.2608 201.772 78.7048C221.677 80.9138 235.343 87.1588 248.128 99.8868C261.508 113.208 269.61 133.14 270.71 155.443L271.261 166.603L288.376 166.468C308.197 166.311 315.813 167.635 327.529 173.27C346.563 182.425 355.106 200.714 352.135 225.947C349.767 246.062 340.374 257.228 321.49 262.379C314.368 264.322 296.477 265.38 295.569 263.912C295.179 263.28 296.107 259.731 297.631 256.024C300.072 250.085 300.405 247.975 300.43 238.283C300.448 231.715 299.994 226.483 299.303 225.297C298.217 223.432 298.107 223.493 297.492 226.297C294.293 240.892 287.325 253.744 276.287 265.409C270.888 271.114 259.49 278.855 253.74 280.721C244.598 283.688 254.403 284.953 265.771 282.272C269.226 281.458 273.821 279.89 275.982 278.787C278.142 277.685 280.206 276.783 280.568 276.783C280.93 276.783 280.937 280.495 280.584 285.033C279.917 293.597 280.937 308.376 283 320.029C284.299 327.367 285.979 328.175 286.008 321.474C286.044 313.121 289.069 296.618 292.562 285.725L294.023 281.168L306.756 281.225C321.531 281.292 327.224 280.134 338.49 274.768C352.923 267.894 362.222 256.913 367.693 240.283C370.071 233.054 370.327 230.789 370.351 216.783C370.375 202.719 370.137 200.562 367.781 193.505C360.85 172.741 345.995 158.306 324.49 151.434C317.72 149.271 302.877 146.786 296.609 146.768C293.794 146.759 290.952 146.411 290.295 145.993C289.638 145.575 288.363 141.644 287.462 137.258C279.459 98.2988 255.152 71.3328 219.274 61.6088C209.233 58.8878 178.345 58.0678 167.834 60.2438ZM228.17 160.281C225.927 163.133 225.204 167.783 227.004 167.783C227.561 167.783 228.803 167.292 229.764 166.692C231.846 165.392 245.153 166.725 245.642 168.283C245.814 168.833 242.872 173.408 239.103 178.45C235.335 183.493 231.067 189.993 229.621 192.897C224.821 202.528 226.838 210.783 233.99 210.783H236.99V204.321C236.99 196.111 239.112 190.42 247.88 175.116C251.655 168.527 255.054 162.157 255.434 160.96C256.063 158.977 255.776 158.783 252.211 158.783C250.058 158.783 244.259 158.496 239.324 158.146C230.387 157.512 230.342 157.52 228.17 160.281ZM138.49 181.673C133.354 184.044 130.48 187.265 128.99 192.323C126.417 201.055 131.501 208.44 138.306 205.853C141.319 204.708 141.57 203.421 139.49 199.783C138.704 198.408 138.045 195.371 138.025 193.033C137.981 187.657 140.573 184.783 145.467 184.783C150.456 184.783 152.409 188.144 152.376 196.672C152.337 206.67 149.16 212.053 133.172 229.205C128.597 234.113 123.96 239.881 122.868 242.022C120.477 246.708 120.557 254.495 122.99 253.942C128.564 252.675 135.21 252.764 140.634 254.18C150.347 256.714 156.331 256.343 160.103 252.974C162.659 250.689 163.34 249.194 163.746 244.974C164.295 239.261 163.595 238.685 159.425 241.418C156.867 243.093 156.781 243.092 138.74 241.153C134.981 240.749 132.99 240.082 132.99 239.225C132.99 238.505 136.703 234.623 141.24 230.599C158.287 215.482 163.786 209.291 165.546 203.24C166.88 198.648 166.961 196.832 166.008 192.858C164.751 187.618 160.484 182.658 155.675 180.844C151.346 179.212 142.944 179.617 138.49 181.673ZM194.99 185.815C194.99 195.095 190.604 205.084 179.502 221.082C176.467 225.456 174.334 229.517 174.646 230.329C175.091 231.488 176.571 231.65 182.059 231.14C190.487 230.357 197.99 232.109 197.99 234.861C197.99 235.861 196.833 240.344 195.418 244.822C194.003 249.3 193.089 253.599 193.386 254.374C194.111 256.263 202.375 256.255 204.266 254.364C205.046 253.584 206.522 248.822 207.545 243.783C209.251 235.376 209.656 234.493 212.447 233.081C217.783 230.382 218.99 228.761 218.99 224.295C218.99 219.139 218.391 218.474 215.468 220.389C214.207 221.216 212.948 221.524 212.67 221.074C212.392 220.624 213.065 215.824 214.165 210.408C216.26 200.098 215.907 198.04 212.244 199.202C210.818 199.655 209.349 202.688 206.748 210.552L203.199 221.283L195.094 221.573C189.5 221.774 186.99 221.509 186.99 220.718C186.99 220.087 190.027 216.302 193.74 212.306C202.688 202.675 207.273 194.962 207.395 189.333C207.525 183.368 205.089 180.783 199.335 180.783H194.99V185.815Z" fill="#FF5200"/>
</svg>
