<svg width="970" height="158" viewBox="0 0 970 158" fill="none" xmlns="http://www.w3.org/2000/svg">
<path fill-rule="evenodd" clip-rule="evenodd" d="M538 0.392866C525.981 2.42287 513.357 14.8889 492.41 45.4099C489.984 48.9439 487.438 52.0189 486.75 52.2439C485.78 52.5599 485.5 48.3989 485.5 33.6329C485.5 23.1729 485.052 13.4359 484.504 11.9959C483.85 10.2749 481.895 8.66189 478.808 7.29689C474.697 5.47889 472.847 5.28988 464.054 5.79588C437.782 7.30788 420.336 20.4849 420.202 38.9169C420.153 45.5479 421.71 49.4899 425.937 53.4399C428.009 55.3759 429.899 55.9789 434.876 56.2959C440.808 56.6739 441.406 56.5069 444.813 53.5149C449.019 49.8219 450.374 45.0089 448.488 40.4559C446.856 36.5159 443.673 35.7999 439.393 38.4089C435.089 41.0329 433.037 41.0219 430.375 38.3599C428.576 36.5609 428.341 35.4729 428.842 31.2489C429.199 28.2279 430.394 25.0019 431.873 23.0629C437.399 15.8169 455.05 9.82988 458.53 14.0199C459.77 15.5129 460.078 24.4079 460.5 70.8879C460.775 101.191 461.366 126.551 461.813 127.242C463.641 130.067 468.774 131.71 474.332 131.249C478.953 130.866 480.29 130.284 482.668 127.623L485.5 124.453L485.514 96.7189C485.521 81.4649 485.804 67.9509 486.143 66.6869C487.529 61.5119 489.919 65.2159 497.954 84.9849C510.952 116.964 517.466 129.802 527.249 142.718C535.192 153.206 546.15 158.349 557.755 157.036C565.558 156.153 577.5 151.741 577.5 149.741C577.5 148.552 576.693 148.358 573.712 148.835C567.867 149.77 563.44 148.017 558.345 142.751C549.723 133.84 542.265 121.189 531.661 97.4849C523.659 79.5979 506.5 38.8129 506.5 37.6789C506.5 35.9549 516.917 22.9259 523.55 16.3549C527.512 12.4299 531.758 9.22488 533.957 8.49888C537.398 7.36388 538.14 7.51087 544.006 10.4879C547.489 12.2559 550.808 13.4129 551.381 13.0589C553.01 12.0519 553.801 5.91588 552.593 3.65788C550.987 0.656882 544.727 -0.743134 538 0.392866ZM90 2.88487C87.25 4.19487 84.1 5.97589 83 6.84389C81.081 8.35789 81.15 8.42286 84.693 8.45286C91.766 8.51386 91.5 6.14087 91.5 69.1519V125.373L93.831 128.083C98.265 133.238 111.411 132.256 114.47 126.54C115.142 125.285 115.5 104.767 115.5 67.5189C115.5 6.18087 115.46 5.67189 110.383 2.11589C106.716 -0.45311 96.174 -0.0541286 90 2.88487ZM321.494 1.37288C314.563 3.60988 306.5 9.41689 306.5 12.1719C306.5 14.0439 307.646 13.8219 312.783 10.9499C325.587 3.79387 340.34 12.0739 347.399 30.3789C351.22 40.2889 352.347 46.4849 350.328 46.4849C349.543 46.4849 348.338 45.9229 347.65 45.2349C345.484 43.0689 331.772 43.6729 326.304 46.1759C312.81 52.3509 304.486 68.3059 304.512 87.9449C304.532 103.506 308.7 114.677 317.539 122.86C322.228 127.202 324.562 128.55 329.878 129.989C347.052 134.638 362.461 127.562 370.334 111.41C375.976 99.8369 376.94 94.1399 376.834 72.9849C376.746 55.2159 376.542 53.2259 373.697 42.2709C370.012 28.0779 365.839 19.9209 358.34 12.2479C350.411 4.13488 343.53 1.08387 332.5 0.78987C327.825 0.66587 322.872 0.927877 321.494 1.37288ZM738.207 2.01787C733.835 3.62187 728.5 7.20088 728.5 8.52788C728.5 9.02688 729.849 9.16488 731.498 8.83488C737.754 7.58388 737.5 5.14188 737.5 66.6399C737.5 128.541 737.471 128.233 743.542 130.35C747.558 131.75 753.508 131.813 756.983 130.491C761.995 128.586 762.5 125.26 762.5 94.1649C762.5 66.3019 762.542 65.7189 764.773 62.4089C767.945 57.7019 771.621 55.7899 775.129 57.0239C781.81 59.3729 783.981 70.3389 783.237 97.9849C782.521 124.615 779.781 135.142 772.485 139.293C767.885 141.911 768.583 143.848 773.909 143.248C787.793 141.683 800.184 128.86 805.084 110.985C807.637 101.673 808.168 76.8909 806.04 66.3699C802.825 50.4739 797.034 43.9819 786.073 43.9889C778.863 43.9929 772.698 47.0989 767.238 53.4779C765.352 55.6819 763.543 57.4849 763.218 57.4849C762.894 57.4849 762.483 46.5719 762.305 33.2349C761.954 7.01788 761.608 5.16189 756.51 2.14989C753.051 0.106885 743.6 0.0388669 738.207 2.01787ZM39.118 6.53486C22.315 10.7479 8.475 27.2559 2.27 50.4849C0.268997 57.9779 0 61.3539 0 78.9849C0 96.7849 0.259002 99.9749 2.358 107.985C7.497 127.605 16.361 140.337 29.32 146.717C35.7 149.858 36.424 149.985 47.979 149.985C59.349 149.985 60.321 149.823 65.939 146.985C72.331 143.756 82.5 135.134 82.5 132.944C82.5 130.189 80.229 130.368 76.427 133.423C63.953 143.447 50.469 144.091 40.65 135.13C34.775 129.768 29.18 113.754 27.548 97.6289C23.954 62.1149 30.195 26.8939 41.85 16.9179C48.898 10.8839 57.273 10.2109 59.987 15.4609C60.758 16.9499 61.69 21.7279 62.058 26.0769C63.052 37.8029 66.111 41.2259 72.724 38.0109C77.847 35.5209 79.933 31.9009 79.969 25.4369C80.016 16.9019 75.653 11.5459 65.5 7.67589C61.059 5.98289 44.224 5.25486 39.118 6.53486ZM568.5 14.0659C563.682 16.1339 561.549 19.2019 561.522 24.0999C561.494 29.3859 564.364 33.1019 569.554 34.4989C581.39 37.6869 591.17 26.1889 583.936 17.5909C582.525 15.9149 579.713 14.0829 577.686 13.5199C573.039 12.2289 572.736 12.2469 568.5 14.0659ZM626.102 23.8579C622.366 33.6389 614.132 41.2699 604.75 43.6459C601.007 44.5939 600.5 45.0599 600.5 47.5459C600.5 50.1529 600.826 50.3939 604.75 50.6779L609 50.9849L609.5 86.0649L610 121.144L612.733 124.725C618.001 131.628 629.039 133.325 638.182 128.638C642.891 126.223 645.905 123.066 648.401 117.934C651.1 112.385 650.035 111.838 645.603 116.497C641.382 120.935 638.514 121.499 635.5 118.485C633.581 116.566 633.5 115.152 633.5 83.6069V50.7299L642.64 50.2929C651.424 49.8729 651.891 49.7309 654.64 46.6549C659.496 41.2199 658.123 31.4849 652.5 31.4849C650.315 31.4849 647.5 34.0359 647.5 36.0159C647.5 36.7789 648.681 38.4989 650.125 39.8379C654.091 43.5149 652.494 44.4849 642.472 44.4849H633.562L633.281 32.2349L633 19.9849L630.405 19.6839C628.155 19.4219 627.584 19.9759 626.102 23.8579ZM157.363 44.9869C151.189 46.9739 143.727 52.2119 139.834 57.2899C133.501 65.5519 129.844 79.8629 130.992 91.8889C132.897 111.834 141.987 125.145 156.768 129.635C175.516 135.329 193.023 126.104 200.13 106.786C202.747 99.6729 202.999 97.8389 202.986 85.9849C202.974 74.2119 202.724 72.3909 200.334 66.6899C198.883 63.2279 196.705 58.9529 195.494 57.1899C192.534 52.8799 185.829 47.8709 180.425 45.9309C174.024 43.6329 162.975 43.1809 157.363 44.9869ZM224.644 44.5799C220.239 45.9149 213.981 50.1009 212.101 52.9709C210.443 55.5009 211.09 57.0699 213.103 55.3999C213.811 54.8119 215.427 54.4789 216.695 54.6579L219 54.9849L219.506 85.9849L220.012 116.985L222.62 121.985C226.115 128.685 231.15 131.703 238 131.205C244.315 130.746 248.602 128.692 256.452 122.366C259.883 119.602 262.881 117.533 263.116 117.768C263.351 118.002 264.103 120.129 264.788 122.494C266.368 127.953 269.916 130.626 276.409 131.25C282.739 131.858 290.603 128.318 294.848 122.949C297.698 119.343 297.844 117.125 295.079 119.419C294.271 120.09 292.573 120.491 291.305 120.312L289 119.985L288.5 85.9849C288.132 60.9819 287.661 51.3919 286.72 49.7449C283.636 44.3469 272.458 42.3009 265.321 45.8279C260.844 48.0399 254.248 54.2679 255.034 55.5399C255.35 56.0519 256.721 55.7309 258.112 54.8199C260.444 53.2919 260.738 53.2949 262.31 54.8649C263.786 56.3409 264.043 59.6949 264.338 81.3989C264.721 109.531 264.574 110.246 257.314 115.505C252.562 118.947 248.561 119.315 246.05 116.54C244.456 114.779 244.276 111.642 244.141 83.2899C244.035 60.9349 243.648 51.3819 242.787 49.8769C239.984 44.9749 231.508 42.4999 224.644 44.5799ZM565.472 44.8119C560.775 46.3739 553.5 50.6169 553.5 51.7939C553.5 52.3119 554.859 52.4629 556.521 52.1309C558.759 51.6829 560.054 52.0389 561.521 53.5059C563.417 55.4019 563.5 56.9399 563.5 90.0509C563.5 111.846 563.88 125.327 564.53 126.54C567.589 132.256 580.735 133.238 585.169 128.083L587.5 125.373V88.8799C587.5 48.4299 587.454 48.1149 581.143 45.1199C577.184 43.2409 570.585 43.1119 565.472 44.8119ZM691.118 44.5349C680.398 47.2239 667.736 57.5649 662.708 67.7359C657.2 78.8779 656.29 95.5029 660.563 106.924C668.4 127.869 690.039 136.972 709.899 127.679C717.228 124.249 727.499 115.084 725.855 113.44C725.141 112.726 723.23 113.475 719.7 115.85C704.32 126.2 687.962 117.758 683.533 97.1859C681.99 90.0169 682.251 72.6859 683.991 66.8279C686.606 58.0229 691.822 52.1299 698.086 50.9039C702.821 49.9779 704.5 52.3159 704.5 59.8339C704.5 69.2379 708.752 73.6879 715.493 71.3379C719.305 70.0089 721.5 65.9319 721.5 60.1829C721.5 51.0729 713.732 44.6839 701.786 43.9669C698.054 43.7439 693.253 43.9989 691.118 44.5349ZM853.124 44.5349C842.916 47.0929 832.971 54.1419 827.391 62.7749C822.084 70.9859 820.137 78.0839 820.062 89.4849C819.942 107.933 826.881 121.101 840.172 127.645C846.345 130.684 847.771 130.985 855.979 130.985C864.025 130.985 865.719 130.644 871.651 127.834C879.656 124.041 889.522 115.107 887.709 113.294C886.799 112.384 886.005 112.589 884.263 114.181C875.904 121.826 865.18 122.252 856.372 115.29C851.207 111.207 846.405 102.911 845.17 95.9379C844.521 92.2659 844.877 91.7089 850 88.3799C859.276 82.3519 868.3 76.7009 872.613 74.2169C875.15 72.7569 878.637 69.9539 880.363 67.9879C882.972 65.0169 883.5 63.5849 883.5 59.4849C883.5 50.6309 875.871 44.8289 863.101 43.9729C859.745 43.7479 855.256 44.0009 853.124 44.5349ZM900.224 45.9069C897.048 47.2139 893.785 48.8329 892.974 49.5059C890.59 51.4849 891.267 52.6949 894.376 52.0119C896.363 51.5759 897.755 51.8829 898.876 53.0039C900.312 54.4389 900.5 58.6159 900.5 88.9909C900.5 108.452 900.915 124.446 901.457 125.872C904.06 132.717 919.24 133.515 923.735 127.043C924.139 126.461 924.476 112.664 924.485 96.3829C924.5 67.3429 924.543 66.7179 926.75 63.4749C933.621 53.3789 941.648 54.8909 944.639 66.8449C946.238 73.2349 946.16 109.839 944.526 119.985C942.994 129.497 939.493 136.92 935.588 138.94C931.91 140.841 931.476 143.485 934.841 143.485C943.136 143.485 955.227 135.934 960.943 127.186C962.811 124.325 965.589 118.16 967.116 113.485C969.734 105.472 969.896 103.925 969.946 86.4849C969.994 69.9749 969.757 67.2119 967.741 60.8019C966.499 56.8509 964.268 52.1739 962.783 50.4089C959.534 46.5479 953.286 43.5329 948.5 43.5169C943.448 43.4989 935.684 47.5419 930.542 52.8679C928.09 55.4069 925.785 57.4849 925.42 57.4849C925.054 57.4849 924.482 55.7709 924.147 53.6769C922.67 44.4389 912.124 41.0139 900.224 45.9069ZM171.66 52.5709C176.902 55.3759 180.17 73.2709 179.133 93.4849C178.124 113.165 176.215 119.319 170.209 122.266C163.765 125.428 158.298 119.513 156.409 107.334C155.027 98.4299 155.76 66.5969 157.474 61.0639C159.835 53.4419 166.185 49.6399 171.66 52.5709ZM859.686 53.4169C863.426 56.3579 865.827 66.8639 863.904 71.8739C863.051 74.0959 845.54 84.9329 844.525 83.8669C843.302 82.5829 845.177 64.7129 847.055 59.7459C848.749 55.2639 852.612 51.4849 855.5 51.4849C856.452 51.4849 858.336 52.3539 859.686 53.4169ZM347.202 54.7349C349.309 56.1599 350.872 58.2679 351.464 60.4849C353.153 66.7979 353.711 85.7449 352.584 98.4849C351.681 108.688 350.975 111.995 348.739 116.483C346.54 120.897 345.35 122.16 342.701 122.891C337.844 124.233 334.58 121.389 331.786 113.384C329.781 107.637 329.55 105.034 329.527 87.8399C329.504 71.3799 329.785 67.7739 331.529 62.1269C334.525 52.4279 339.985 49.8529 347.202 54.7349Z" fill="#FF5200"/>
</svg>
