<svg width="320" height="320" viewBox="0 0 320 320" fill="none" xmlns="http://www.w3.org/2000/svg">
<path d="M299.784 233.547C292.694 248.207 280.214 254.997 274.754 257.867C240.804 275.707 200.344 258.287 191.054 254.287C188.934 253.377 187.024 252.487 185.294 251.627C184.604 251.277 183.944 250.937 183.304 250.597C167.614 242.297 167.764 236.337 152.424 232.827C123.384 226.177 112.334 245.127 82.3142 241.407C79.6542 241.077 47.2841 236.557 29.3841 209.217C17.1041 190.467 15.0641 166.247 21.7941 145.347C21.9141 144.987 22.0341 144.627 22.1541 144.267C24.9141 136.107 29.0141 128.497 34.3841 121.947C55.4941 96.1972 89.6442 94.8172 91.6142 94.7672C113.834 94.1972 122.634 104.847 138.114 98.3372C153.664 91.8072 150.584 78.6472 166.734 67.5772C168.534 66.3472 170.444 65.2272 172.434 64.2372C172.994 63.9472 173.554 63.6772 174.124 63.4272C192.464 55.0172 217.454 56.1872 234.694 68.2972C252.094 80.5172 257.264 100.837 260.444 113.367C262.264 120.527 262.824 125.967 262.914 130.507C262.914 130.987 262.934 131.457 262.934 131.917C262.934 136.367 262.564 139.957 262.664 143.517C262.684 144.297 262.724 145.067 262.804 145.857C263.114 149.197 264.004 152.687 266.164 156.997C268.494 161.637 271.184 165.027 274.044 167.717C274.464 168.127 274.894 168.507 275.334 168.887C284.634 176.907 295.434 178.817 301.574 193.487C309.574 212.577 300.664 231.737 299.784 233.547Z" fill="#D0E0F9"/>
<path d="M262.804 145.86C259.974 144.56 257.194 143.15 254.474 141.66C245.364 136.69 236.804 130.83 228.564 124.52H228.554C227.864 124 227.184 123.48 226.504 122.95C226.404 122.87 226.314 122.8 226.214 122.72C217.224 115.74 208.454 108.38 200.134 100.61C191.544 92.6097 183.484 83.8397 177.394 73.7497C175.534 70.6797 173.864 67.5097 172.434 64.2397C172.994 63.9497 173.554 63.6797 174.124 63.4297C176.244 67.9997 178.784 72.3696 181.614 76.5096C188.194 86.1496 196.494 94.5097 205.144 102.3C213.244 109.59 221.624 116.64 230.314 123.23H230.324C230.604 123.46 230.894 123.67 231.184 123.89C231.704 124.29 232.234 124.68 232.764 125.07H232.774C241.134 131.3 249.874 137.04 259.154 141.78C260.314 142.37 261.484 142.95 262.664 143.52C262.684 144.3 262.724 145.07 262.804 145.86Z" fill="white"/>
<path d="M262.935 131.916C257.515 130.096 251.965 128.626 246.375 127.446C241.865 126.496 237.335 125.706 232.775 125.066H232.765C231.365 124.866 229.965 124.686 228.565 124.516H228.555C214.225 122.776 199.745 122.376 185.335 122.546C165.525 122.766 145.685 123.776 125.935 125.206C106.575 126.606 87.255 128.726 68.205 132.456C52.445 135.546 36.8649 139.776 21.7949 145.346C21.9149 144.986 22.0349 144.626 22.1549 144.266C39.2449 137.256 57.295 132.756 75.455 129.566C94.645 126.206 114.065 124.366 133.495 123.126C153.695 121.836 173.985 120.746 194.225 120.926C204.875 121.016 215.595 121.506 226.215 122.716C227.585 122.876 228.955 123.036 230.315 123.226H230.325C238.355 124.286 246.305 125.776 254.125 127.856C257.085 128.646 260.015 129.516 262.915 130.506C262.915 130.986 262.935 131.456 262.935 131.916Z" fill="white"/>
<path d="M275.335 168.889C274.385 169.109 273.445 169.349 272.505 169.599C267.155 171.009 261.865 172.719 256.805 174.959C251.665 177.239 246.845 180.099 242.325 183.449C237.845 186.769 233.635 190.449 229.555 194.239C221.845 201.399 214.645 209.119 208.035 217.309C201.455 225.459 195.505 234.089 190.145 243.089C188.465 245.899 186.845 248.749 185.295 251.629C184.605 251.279 183.945 250.939 183.305 250.599C185.475 246.499 187.805 242.479 190.255 238.529C195.885 229.489 202.165 220.849 209.035 212.699C215.885 204.569 223.335 196.949 231.305 189.909C235.615 186.109 240.075 182.449 244.905 179.319C249.645 176.249 254.745 173.799 260.035 171.849C264.605 170.159 269.305 168.829 274.045 167.719C274.465 168.129 274.895 168.509 275.335 168.889Z" fill="white"/>
<path d="M139.321 168.125C138.961 167.875 136.411 166.135 133.261 166.995C130.661 167.705 128.661 169.925 128.111 172.695C127.981 172.515 125.271 168.515 120.591 168.745C117.041 168.915 114.921 171.405 114.551 171.825C112.821 169.535 110.001 168.365 107.251 168.805C103.581 169.405 101.901 172.585 101.731 172.905C102.541 178.745 103.701 183.465 104.641 186.745C107.011 195.055 108.861 201.295 113.991 207.105C117.201 210.735 120.591 212.945 122.811 214.205C117.201 214.215 111.571 214.225 105.961 214.225C86.091 214.275 66.2211 214.305 46.3511 214.335C44.1011 212.925 41.0611 210.705 38.1211 207.355C30.5111 198.725 29.1111 188.955 28.2611 182.335C28.2411 182.175 28.221 182.025 28.201 181.855C28.201 181.845 28.2011 181.815 28.1911 181.805C27.2711 174.645 25.2311 156.655 36.1711 146.475C37.6511 145.085 39.0711 144.145 40.0111 143.575C63.8511 136.805 87.7111 130.035 111.551 123.275C112.421 123.025 113.721 122.715 115.301 122.735C115.301 122.735 119.911 122.775 124.861 126.615C129.771 130.415 136.091 145.995 139.331 168.145L139.321 168.125Z" fill="#D0E0F9"/>
<path d="M101.962 172.443C100.272 162.383 100.502 153.993 101.072 148.113C101.992 138.703 102.932 130.183 109.352 125.133C110.602 124.153 113.372 122.043 116.982 122.153C122.672 122.323 126.492 127.863 129.732 132.563C135.092 140.323 136.432 147.213 138.952 160.123C139.912 165.043 140.042 167.123 139.172 169.453C136.372 176.933 126.232 178.953 124.842 179.233C113.152 181.563 103.642 173.873 101.952 172.453L101.962 172.443Z" fill="#A4A5F4"/>
<path d="M43.8105 152.296C63.7005 146.866 83.5905 141.446 103.48 136.016C102.78 138.506 102.12 141.326 101.62 144.446C101.13 147.466 100.87 150.266 100.75 152.786C81.0205 155.996 61.2905 159.206 41.5605 162.416C42.3105 159.036 43.0605 155.656 43.8105 152.286V152.296Z" fill="#F4CF70"/>
<path d="M41.3108 175.454C61.2708 173.104 81.2308 170.754 101.191 168.414C101.971 173.564 102.761 178.714 103.541 183.864C83.7008 184.934 63.8608 186.004 44.0208 187.074C43.1108 183.204 42.2108 179.334 41.3008 175.464L41.3108 175.454Z" fill="#F4CF70"/>
<path d="M49.9805 203.266C70.7905 203.796 91.5905 204.316 112.401 204.836C113.241 206.316 114.64 208.386 116.85 210.376C119.31 212.596 121.771 213.836 123.441 214.516C102.661 214.546 81.8905 214.576 61.1105 214.606C58.7705 213.366 55.4005 211.146 52.5305 207.366C51.4405 205.936 50.6205 204.536 49.9905 203.266H49.9805Z" fill="#F4CF70"/>
<path d="M101.732 172.903C101.872 172.583 103.312 169.393 106.712 168.693C109.642 168.083 112.792 169.583 114.402 172.453C114.882 171.753 116.362 169.793 118.962 169.143C122.202 168.333 125.852 169.883 128.082 173.073C128.452 170.173 130.092 167.663 132.462 166.723C136.372 165.183 141.022 168.483 142.652 172.263C144.352 176.203 142.522 180.023 142.202 180.673C142.502 180.633 143.782 180.503 144.612 181.303C145.662 182.313 145.672 184.503 144.162 186.223C144.542 186.193 146.212 186.113 147.562 187.293C148.942 188.503 149.442 190.553 148.812 192.483C149.042 192.233 150.682 190.523 152.742 190.783C155.062 191.073 157.132 193.733 156.852 197.133C158.822 193.783 162.552 192.043 165.972 192.753C170.222 193.633 173.352 198.183 172.502 203.123C178.052 201.033 183.172 201.173 185.472 203.843C185.742 204.153 186.812 205.473 186.632 207.063C186.342 209.643 182.922 211.643 179.922 211.533C178.222 211.473 176.932 210.743 176.252 210.283C176.082 210.793 175.452 212.453 173.842 213.233C171.752 214.243 168.802 213.383 166.952 210.913C166.052 211.823 164.642 212.993 162.662 213.773C157.462 215.833 152.592 213.563 151.572 213.053C151.872 212.573 152.172 212.103 152.462 211.623C152.072 212.263 151.402 213.173 150.312 213.943C147.962 215.603 145.362 215.393 144.052 215.283C140.772 215.013 138.452 213.413 137.432 212.603C136.862 213.313 135.962 214.203 134.662 214.843C134.072 215.133 131.902 216.033 126.152 214.383C124.192 213.823 120.872 212.873 117.832 210.853C111.652 206.753 109.402 200.073 105.762 188.763C104.502 184.843 102.962 179.473 101.682 172.913L101.732 172.903Z" fill="white"/>
<path d="M125.95 214.404C125.5 214.444 125.05 214.444 124.61 214.414C114.52 213.694 104.35 194.784 101.43 170.584C98.5904 147.174 103.51 126.964 112.55 122.864C113.35 122.494 114.18 122.264 115.04 122.154C125.64 120.864 136.73 140.464 139.82 165.934C139.92 166.764 140.01 167.594 140.09 168.414" stroke="black" stroke-width="1.6" stroke-linecap="round" stroke-linejoin="round"/>
<path d="M63.8716 214.432H50.0715C39.9915 214.212 30.3216 199.732 28.0516 180.892C25.8816 162.952 31.1516 147.252 40.0616 143.532C40.8816 143.302 41.7016 143.062 42.5216 142.832C46.1316 141.802 49.7316 140.772 53.3416 139.742C51.5516 140.532 49.9216 141.832 48.4816 143.572C42.7316 150.402 39.8216 163.922 41.6516 178.962C43.5116 194.302 49.7616 206.932 57.1516 212.012C59.3216 213.522 61.5916 214.352 63.8716 214.422V214.432Z" stroke="black" stroke-width="1.6" stroke-linecap="round" stroke-linejoin="round"/>
<path d="M42.5304 142.844C41.7104 143.074 40.8903 143.314 40.0703 143.544C40.8503 143.204 41.6804 142.974 42.5304 142.844Z" stroke="black" stroke-width="1.6" stroke-linecap="round" stroke-linejoin="round"/>
<path d="M124.611 214.417C104.691 214.427 84.7709 214.427 64.8509 214.437H63.8709C61.5909 214.367 59.3209 213.527 57.1509 212.027C49.7609 206.947 43.5109 194.317 41.6509 178.977C39.8309 163.937 42.7409 150.417 48.4809 143.587C49.9309 141.847 51.5609 140.547 53.3409 139.757C54.2809 139.487 55.241 139.217 56.181 138.947C74.961 133.587 93.7609 128.227 112.541 122.867C103.501 126.967 98.591 147.177 101.421 170.587C104.341 194.787 114.511 213.697 124.601 214.417H124.611Z" stroke="black" stroke-width="1.6" stroke-linecap="round" stroke-linejoin="round"/>
<path d="M53.3516 139.747C54.2616 139.337 55.2117 139.067 56.1917 138.938C55.2517 139.208 54.2916 139.477 53.3516 139.747Z" stroke="black" stroke-width="1.6" stroke-linecap="round" stroke-linejoin="round"/>
<path d="M114.431 122.312L112.551 122.853" stroke="black" stroke-width="1.6" stroke-linecap="round" stroke-linejoin="round"/>
<path d="M40.0719 143.547C40.0719 143.547 40.022 143.557 40.002 143.567" stroke="black" stroke-width="1.6" stroke-linecap="round" stroke-linejoin="round"/>
<path d="M124.801 214.414H124.611" stroke="black" stroke-width="1.6" stroke-linecap="round" stroke-linejoin="round"/>
<path d="M50.0811 214.438H49.8711" stroke="black" stroke-width="1.6" stroke-linecap="round" stroke-linejoin="round"/>
<path d="M44.5215 151.616C64.1715 146.416 83.8214 141.216 103.471 136.016" stroke="black" stroke-width="1.6" stroke-linecap="round" stroke-linejoin="round"/>
<path d="M41.6602 161.637C61.3602 158.687 81.0501 155.747 100.75 152.797" stroke="black" stroke-width="1.6" stroke-linecap="round" stroke-linejoin="round"/>
<path d="M41.3105 175.454C61.2705 173.104 81.2306 170.754 101.191 168.414" stroke="black" stroke-width="1.6" stroke-linecap="round" stroke-linejoin="round"/>
<path d="M43.0703 186.982C63.2303 185.942 83.3904 184.892 103.54 183.852" stroke="black" stroke-width="1.6" stroke-linecap="round" stroke-linejoin="round"/>
<path d="M49.9805 203.266C70.7905 203.796 91.5905 204.316 112.401 204.836" stroke="black" stroke-width="1.6" stroke-linecap="round" stroke-linejoin="round"/>
<path d="M101.73 172.903C101.87 172.583 103.31 169.393 106.71 168.693C109.64 168.083 112.791 169.583 114.401 172.453C114.881 171.753 116.36 169.793 118.96 169.143C122.2 168.333 125.85 169.883 128.08 173.073C128.45 170.173 130.09 167.663 132.46 166.723C136.37 165.183 141.021 168.483 142.651 172.263C144.351 176.203 142.52 180.023 142.2 180.673C142.5 180.633 143.78 180.503 144.61 181.303C145.66 182.313 145.671 184.503 144.161 186.223C144.541 186.193 146.211 186.113 147.561 187.293C148.941 188.503 149.441 190.553 148.811 192.483C149.041 192.233 150.68 190.523 152.74 190.783C155.06 191.073 157.13 193.733 156.85 197.133C158.82 193.783 162.55 192.043 165.97 192.753C170.22 193.633 173.35 198.183 172.5 203.123C178.05 201.033 183.17 201.173 185.47 203.843C185.74 204.153 186.81 205.473 186.63 207.063C186.34 209.643 182.921 211.643 179.921 211.533C178.221 211.473 176.93 210.743 176.25 210.283C176.08 210.793 175.45 212.453 173.84 213.233C171.75 214.243 168.8 213.383 166.95 210.913C166.05 211.823 164.641 212.993 162.661 213.773C157.461 215.833 152.59 213.563 151.57 213.053C151.87 212.573 152.17 212.103 152.46 211.623C152.07 212.263 151.401 213.173 150.311 213.943C147.961 215.603 145.361 215.393 144.051 215.283C140.771 215.013 138.451 213.413 137.431 212.603C136.861 213.313 135.961 214.203 134.661 214.843C130.761 216.743 126.721 214.683 126.151 214.383" stroke="black" stroke-width="1.6" stroke-linecap="round" stroke-linejoin="round"/>
<path d="M120.541 190.441C119.651 189.241 119.281 187.761 119.811 186.721C120.601 185.171 123.461 184.401 126.061 186.091C126.031 185.921 125.841 184.771 126.551 184.061C127.421 183.191 129.091 183.531 129.971 184.411C130.711 185.151 130.751 186.151 130.751 186.431" stroke="black" stroke-width="1.6" stroke-linecap="round" stroke-linejoin="round"/>
<path d="M145.531 201.698C145.921 200.658 146.841 199.948 147.851 199.908C149.201 199.858 150.251 201.038 150.441 202.228C150.651 203.538 149.761 204.518 149.641 204.638C150.041 203.658 151.211 203.278 152.051 203.748C152.891 204.218 153.181 205.388 152.591 206.248" stroke="black" stroke-width="1.6" stroke-linecap="round" stroke-linejoin="round"/>
<path d="M202.442 202.814C201.892 200.794 202.332 198.724 203.652 197.444C205.692 195.484 209.102 196.124 211.032 197.714C213.212 199.514 213.882 202.844 212.512 205.764C213.892 201.874 217.542 200.464 219.482 201.474C220.902 202.214 221.672 204.384 221.362 206.704C221.942 206.784 224.092 207.124 224.452 208.314C224.882 209.764 222.412 211.704 220.432 212.474C217.982 213.414 215.702 212.784 214.802 212.474C214.602 213.274 214.132 214.694 212.922 215.964C212.762 216.124 209.422 219.534 205.412 218.114C203.092 217.294 201.412 215.164 200.982 212.614C198.372 214.494 195.292 214.314 193.872 212.744C192.022 210.704 193.782 207.154 193.872 206.974C195.282 204.234 198.632 202.664 202.452 202.814H202.442Z" fill="#F4CF70" stroke="black" stroke-width="1.6" stroke-linecap="round" stroke-linejoin="round"/>
<path d="M130.781 198.77C129.761 197.48 127.871 197.25 126.591 198.24C125.321 199.21 125.051 201.06 125.991 202.37C122.871 204.42 122.541 208.52 124.451 210.58C126.071 212.32 129.331 212.6 131.751 210.7C132.321 212.11 133.961 212.63 135.041 212.02C135.941 211.51 136.391 210.24 135.931 209.09C136.071 209.02 137.692 208.17 137.942 206.29C138.112 204.98 137.541 203.66 136.461 202.87C136.651 202.75 138.121 201.85 138.351 200.07C138.551 198.51 137.701 197.12 136.591 196.38C136.371 196.24 134.851 195.27 133.101 195.95C131.221 196.68 130.811 198.64 130.781 198.77Z" fill="#F4CF70"/>
<path d="M278.332 206.576C276.932 210.106 279.022 213.866 282.082 214.586C284.782 215.226 287.942 213.426 288.852 210.236C290.122 210.816 291.642 210.286 292.282 209.056C292.902 207.846 292.482 206.326 291.302 205.616C292.552 205.906 293.822 205.466 294.522 204.516C295.072 203.766 295.192 202.796 294.932 201.996C294.332 200.126 291.842 199.816 291.422 199.776C289.522 199.576 288.112 200.606 287.722 200.916C288.282 199.156 287.272 197.636 286.262 197.496C285.412 197.376 284.302 198.176 283.922 199.536C283.292 198.976 281.522 197.566 279.282 197.756C278.592 197.816 277.442 197.916 276.962 198.796C276.562 199.516 276.732 200.506 277.352 201.366C277.042 201.366 274.432 201.356 273.102 203.326C272.892 203.646 272.202 204.656 272.512 205.486C272.952 206.676 275.302 207.256 278.352 206.586L278.332 206.576Z" fill="#F4CF70"/>
<path d="M233.891 206.987C234.211 207.267 236.301 209.037 239.171 208.617C241.651 208.257 243.951 206.367 244.451 203.827C245.051 200.797 243.001 197.467 239.511 196.467C239.681 194.827 238.821 193.357 237.531 192.907C236.351 192.497 235.271 193.087 235.061 193.207C234.071 190.637 231.201 189.777 229.531 190.787C228.161 191.617 227.491 193.747 228.341 195.727C228.111 195.847 227.291 196.297 226.861 197.307C226.371 198.437 226.731 199.457 226.811 199.677C224.761 200.897 223.931 203.447 224.831 205.557C225.671 207.527 227.841 208.677 230.011 208.277C230.091 208.367 230.801 209.197 231.841 209.117C232.841 209.037 233.721 208.167 233.861 206.997L233.891 206.987Z" fill="white"/>
<path d="M250.182 205.631C249.882 205.141 248.332 202.461 249.382 199.861C250.722 196.531 255.372 195.781 258.392 196.551C259.202 196.761 261.652 197.391 262.902 199.781C264.172 202.201 263.282 204.641 263.122 205.051C264.102 204.791 265.112 205.131 265.632 205.861C266.302 206.801 266.082 208.271 265.002 209.091C266.972 210.311 268.372 212.131 268.172 213.841C267.842 216.691 263.112 218.551 259.922 217.331C258.782 216.891 257.992 216.121 257.492 215.491C257.382 215.791 256.332 218.591 253.512 219.321C253.072 219.431 250.422 220.121 248.832 218.291C247.782 217.071 247.612 215.211 248.412 213.591C247.562 214.721 246.072 215.141 244.822 214.641C243.692 214.181 242.822 212.991 242.982 211.651C243.142 210.311 244.292 209.231 245.712 209.141C245.592 209.121 243.902 208.751 243.612 207.651C243.292 206.431 244.912 205.141 246.212 204.731C248.202 204.121 249.952 205.441 250.172 205.611L250.182 205.631Z" fill="white"/>
<path d="M281.213 204.328C280.573 204.548 279.323 205.088 278.473 206.348C277.043 208.478 277.183 212.078 279.773 213.978C282.213 215.768 285.663 215.188 287.403 212.968C288.733 211.278 288.913 208.838 287.833 206.778" stroke="black" stroke-width="1.6" stroke-linecap="round" stroke-linejoin="round"/>
<path d="M289.052 210.168C290.062 210.538 291.142 210.418 291.792 209.808C292.742 208.908 292.732 206.928 291.292 205.628C292.952 205.858 294.402 205.108 294.822 203.968C295.252 202.798 294.472 201.538 293.812 200.948C292.312 199.598 289.402 199.798 286.612 201.598C287.512 200.838 287.872 199.728 287.552 198.788C287.372 198.258 286.882 197.548 286.252 197.488C285.392 197.408 284.292 198.538 284.022 200.438C283.872 200.128 282.952 198.258 280.922 197.778C279.482 197.428 277.242 197.718 276.822 199.078C276.452 200.268 277.712 201.548 277.832 201.668C277.652 201.608 275.812 201.038 274.162 202.248C273.122 203.008 272.112 204.478 272.502 205.488C272.962 206.678 275.402 207.278 278.482 206.348" stroke="black" stroke-width="1.6" stroke-linecap="round" stroke-linejoin="round"/>
<path d="M250.692 206.24C250.242 205.75 248.652 203.91 248.882 201.55C249.202 198.27 252.822 196.17 255.822 195.97C258.672 195.78 262.572 197.19 263.512 200.65C264.162 203.07 263.182 205.81 261.012 207.63" stroke="black" stroke-width="1.6" stroke-linecap="round" stroke-linejoin="round"/>
<path d="M263.593 204.727C264.703 204.727 265.683 205.487 265.943 206.547C266.213 207.647 265.663 208.797 264.643 209.287C264.913 209.337 267.263 209.827 268.043 211.737C268.933 213.927 267.123 216.447 265.323 217.407C262.973 218.657 259.593 217.847 257.353 215.157C257.143 215.787 256.543 217.297 255.013 218.367C254.683 218.597 251.833 220.556 249.693 219.126C248.123 218.086 247.513 215.606 248.553 213.326C247.593 214.516 246.113 215.016 244.843 214.626C244.063 214.386 243.093 213.736 242.913 212.806C242.653 211.486 244.003 209.706 246.413 209.196C244.843 209.176 243.593 208.407 243.413 207.487C243.163 206.257 244.863 205.037 246.233 204.727C248.303 204.267 249.943 205.796 250.113 205.956" stroke="black" stroke-width="1.6" stroke-linecap="round" stroke-linejoin="round"/>
<path d="M125.892 202.517C125.392 202.777 124.322 203.407 123.662 204.677C122.672 206.557 122.972 209.057 124.452 210.577C126.292 212.467 129.682 212.597 132.012 210.507C132.392 211.677 133.602 212.257 134.532 211.947C135.552 211.607 136.172 210.207 135.542 208.997C135.792 208.977 137.172 208.827 137.842 207.777C138.632 206.537 138.172 204.447 136.402 203.167C136.732 202.937 138.192 201.897 138.342 200.217C138.562 197.727 135.782 195.087 133.442 195.677C131.512 196.167 130.822 198.617 130.782 198.777C130.502 198.537 129.642 197.857 128.402 197.837C128.272 197.837 125.992 197.837 125.302 199.567C124.922 200.517 125.162 201.647 125.882 202.517H125.892Z" stroke="black" stroke-width="1.6" stroke-linecap="round" stroke-linejoin="round"/>
<path d="M128.121 201.578C128.371 201.648 130.211 202.178 131.071 204.098C131.941 206.018 131.111 207.758 131.001 207.988" stroke="black" stroke-width="1.6" stroke-linecap="round" stroke-linejoin="round"/>
<path d="M130.611 202.848C130.851 202.848 131.231 202.828 131.611 202.628C132.651 202.088 132.741 200.778 132.741 200.688" stroke="black" stroke-width="1.6" stroke-linecap="round" stroke-linejoin="round"/>
<path d="M230.022 207.068C229.932 208.028 230.222 208.948 230.832 209.278C231.692 209.748 233.352 209.148 234.072 207.388C233.782 206.888 233.492 206.378 233.212 205.878C233.532 206.408 234.212 207.358 235.422 207.988C238.212 209.438 241.092 207.768 241.252 207.668C243.382 206.378 244.692 203.778 244.222 201.188C243.702 198.268 241.062 196.028 237.902 195.948C238.392 196.028 238.882 196.118 239.382 196.198C239.692 195.078 239.352 193.898 238.522 193.188C237.502 192.328 235.922 192.308 234.782 193.228C234.262 191.658 232.962 190.548 231.492 190.438C229.572 190.298 227.572 191.888 227.662 193.518C227.712 194.508 228.522 195.208 228.852 195.458C228.672 195.488 227.572 195.718 226.962 196.758C226.432 197.658 226.482 198.808 227.072 199.728C225.622 200.498 224.682 201.968 224.642 203.558C224.582 205.948 226.552 207.298 226.852 207.498C228.072 208.298 229.312 208.328 229.822 208.308C229.892 207.898 229.962 207.478 230.032 207.068H230.022Z" stroke="black" stroke-width="1.6" stroke-linecap="round" stroke-linejoin="round"/>
<path d="M228.902 201.775C229.082 201.555 230.082 200.365 231.762 200.265C233.272 200.175 234.732 200.995 235.542 202.375" stroke="black" stroke-width="1.6" stroke-linecap="round" stroke-linejoin="round"/>
<path d="M234.952 195.125C234.602 195.515 234.122 196.125 233.762 196.965C233.512 197.545 232.652 199.555 233.582 200.595C233.752 200.785 234.082 201.055 234.712 201.155" stroke="black" stroke-width="1.6" stroke-linecap="round" stroke-linejoin="round"/>
<path d="M105.952 214.222C86.082 214.272 66.212 214.302 46.342 214.332C44.092 212.922 41.0521 210.702 38.1121 207.352C34.2621 202.982 29.8921 193.802 28.2521 182.332C27.9821 180.442 27.642 177.542 27.582 173.922C28.402 181.062 31.3021 197.312 44.0321 205.482C48.7021 208.472 53.1221 209.382 59.6821 210.402C70.8221 212.132 86.462 213.942 105.962 214.222H105.952Z" fill="black"/>
<path d="M97.5413 129.474C97.5013 128.994 101.281 127.374 102.421 128.824C103.281 129.914 102.281 132.314 101.661 132.334C101.261 132.344 101.271 131.384 100.321 130.544C99.0912 129.464 97.5713 129.774 97.5513 129.474H97.5413Z" fill="black"/>
<path d="M115.07 127.423C121.35 126.303 126.85 133.473 126.34 134.313C125.94 134.963 122.051 131.523 116.411 132.163C110.801 132.803 107.84 136.993 107.2 136.363C106.43 135.623 109.39 128.433 115.07 127.423Z" fill="black"/>
</svg>
