<svg width="320" height="320" viewBox="0 0 320 320" fill="none" xmlns="http://www.w3.org/2000/svg">
<path d="M29.549 164.61C39.1691 149.68 54.279 150.55 59.849 135.22C63.239 125.88 58.9991 121.27 58.9391 110.62C58.8091 88.4797 76.5091 62.6797 101.899 52.0697C136.749 37.4897 171.809 57.4998 183.789 71.9798C184.699 73.0798 185.129 73.7598 186.389 75.0798C203.739 93.3098 234.079 88.9897 235.589 88.7497C239.019 88.2097 238.819 87.9498 242.599 87.2298C247.889 86.2198 286.449 78.8798 303.589 100.14C315.569 115 312.829 138.58 305.409 152.99C297.389 168.56 286.949 167.52 281.259 183.06C275.449 198.94 284.079 206.23 280.669 222.76C275.499 247.82 249.329 261.74 246.869 263.01C213.879 279.99 167.809 266.24 148.799 241.82C143.719 235.29 141.759 229.54 133.769 225.08C120.659 217.76 109.389 224 88.9591 225.47C76.9491 226.33 41.869 228.86 28.539 210.23C19.709 197.89 21.2691 177.45 29.549 164.6V164.61Z" fill="#EBEBEB"/>
<path d="M60.3585 121.677C63.1085 118.767 66.0186 116.037 68.9686 113.477C75.5786 107.757 82.7385 102.677 90.1785 98.0372C91.1785 97.3972 92.1885 96.7872 93.1985 96.1672H93.2186C97.3786 93.6372 101.599 91.2472 105.849 88.9572C119.289 81.6872 133.299 75.4672 147.699 70.3772C156.179 67.3772 164.789 64.7672 173.499 62.5572L173.279 62.3972L171.779 61.3372L171.459 61.1172C164.879 62.8372 158.349 64.7772 151.889 66.9272C137.249 71.8372 122.979 77.8772 109.289 85.0172C102.509 88.5472 95.7885 92.3172 89.2885 96.4172C88.3185 97.0272 87.3586 97.6472 86.3986 98.2772C81.1986 101.667 76.1585 105.307 71.3685 109.227C67.3485 112.497 63.5285 116.007 59.9785 119.787L60.3585 121.677Z" fill="white"/>
<path d="M59.8086 101.679C68.5486 99.899 77.4686 98.889 86.3986 98.279C87.6586 98.189 88.9186 98.1091 90.1786 98.0391C93.3986 97.8491 96.6286 97.709 99.8386 97.589C120.019 96.859 140.259 97.799 160.309 100.119C180.549 102.459 200.609 106.219 220.399 111.009C240.319 115.849 259.979 121.749 279.359 128.429C289.719 131.999 299.959 135.859 310.169 139.809L310.629 137.679C302.769 134.599 294.849 131.699 286.909 128.879C267.399 121.959 247.619 115.789 227.549 110.679C207.809 105.649 187.799 101.669 167.589 99.0391C147.289 96.3991 126.799 95.129 106.329 95.619C101.959 95.719 97.5886 95.8991 93.2186 96.1591L93.2086 96.1691C91.8986 96.2391 90.6086 96.3191 89.2986 96.4191C84.7386 96.7391 80.1886 97.169 75.6486 97.699C70.4486 98.309 65.2486 99.0991 60.1286 100.219L59.8186 101.679H59.8086Z" fill="white"/>
<path d="M154.42 247.999C159.69 246.049 165.08 244.429 170.53 243.039C181.8 240.159 193.29 238.249 204.78 236.479C215.96 234.759 227.16 233.139 238.42 232.139C249.68 231.139 261.02 230.769 272.29 231.629C274.07 231.769 275.84 231.929 277.62 232.129L276.89 233.689L276.79 233.889C273.79 233.559 270.78 233.329 267.76 233.179C256.64 232.649 245.5 233.229 234.44 234.329C223.31 235.439 212.25 237.109 201.19 238.809C189.86 240.549 178.52 242.459 167.43 245.429C163.43 246.489 159.45 247.669 155.55 249.049L154.42 247.999Z" fill="white"/>
<path d="M233.359 218.514C185.749 215.174 138.139 211.844 90.5287 208.504C90.3187 208.494 87.7787 208.284 86.4987 206.054C85.5287 204.374 85.9386 202.684 86.0386 202.324C88.4386 183.794 93.7087 160.774 105.279 136.394C108.819 128.934 112.589 122.114 116.399 115.914C116.799 115.504 117.549 114.864 118.659 114.444C120.049 113.914 121.269 113.994 121.859 114.074C200.819 120.144 257.709 124.534 259.039 124.634C259.299 124.654 259.979 124.714 260.759 125.074C261.869 125.594 262.649 126.504 263.199 127.484C266.899 136.784 270.489 146.964 273.759 157.974C278.859 175.164 282.209 191.204 284.429 205.594C284.529 205.914 284.639 206.434 284.509 207.024C284.149 208.654 282.339 209.254 282.219 209.294C276.269 211.384 269.489 213.384 261.949 214.984C251.299 217.254 241.619 218.214 233.359 218.504C233.129 218.504 231.729 218.524 230.659 217.404C229.439 216.134 229.689 214.484 229.719 214.304C231.819 201.394 235.139 186.404 240.489 170.114C245.689 154.264 251.699 140.554 257.489 129.124C257.949 128.214 259.799 126.104 261.539 126.404C262.369 126.544 262.949 127.214 263.299 127.734" fill="white"/>
<path d="M230.659 217.41C236.979 217.82 244.569 217.79 253.059 216.69C265.759 215.04 276.179 211.55 283.799 208.29C282.859 199.05 281.389 189.05 279.179 178.47C275.009 158.56 269.189 141.3 263.239 126.96C262.789 126.71 261.709 126.18 260.499 126.48C259.829 126.65 259.299 127.02 258.429 127.96C257.629 128.83 256.559 130.18 255.579 132.09C249.339 145.48 243.069 161.27 237.829 179.33C234.209 191.79 231.609 203.53 229.719 214.29C229.219 215.13 229.209 216.11 229.699 216.75C230.009 217.15 230.419 217.32 230.659 217.39V217.41Z" fill="#EBEBEB"/>
<path d="M233.359 218.514C185.749 215.174 138.139 211.844 90.5287 208.504C90.3187 208.494 87.7787 208.284 86.4987 206.054C85.5287 204.374 85.9386 202.684 86.0386 202.324C88.4386 183.794 93.7087 160.774 105.279 136.394C108.819 128.934 112.589 122.114 116.399 115.914C116.799 115.504 117.549 114.864 118.659 114.444C120.049 113.914 121.269 113.994 121.859 114.074C200.819 120.144 257.709 124.534 259.039 124.634C259.299 124.654 259.979 124.714 260.759 125.074C261.869 125.594 262.649 126.504 263.199 127.484C266.899 136.784 270.489 146.964 273.759 157.974C278.859 175.164 282.209 191.204 284.429 205.594C284.529 205.914 284.639 206.434 284.509 207.024C284.149 208.654 282.339 209.254 282.219 209.294C276.269 211.384 269.489 213.384 261.949 214.984C251.299 217.254 241.619 218.214 233.359 218.504C233.129 218.504 231.729 218.524 230.659 217.404C229.439 216.134 229.689 214.484 229.719 214.304C231.819 201.394 235.139 186.404 240.489 170.114C245.689 154.264 251.699 140.554 257.489 129.124C257.949 128.214 259.799 126.104 261.539 126.404C262.369 126.544 262.949 127.214 263.299 127.734" stroke="black" stroke-width="1.6" stroke-linecap="round" stroke-linejoin="round"/>
<path d="M283.688 207.216C277.468 206.066 271.068 204.996 264.498 204.006C262.348 203.686 260.218 203.376 258.098 203.086" stroke="black" stroke-width="1.6" stroke-linecap="round" stroke-linejoin="round"/>
<path d="M253.949 202.523C252.949 202.393 251.949 202.263 250.949 202.133" stroke="black" stroke-width="1.6" stroke-linecap="round" stroke-linejoin="round"/>
<path d="M240.109 200.861C237.739 200.601 235.379 200.371 233.049 200.141" stroke="black" stroke-width="1.6" stroke-linecap="round" stroke-linejoin="round"/>
<path d="M205.529 147.116C209.399 151.856 215.239 151.866 215.989 151.856C214.209 156.736 212.479 162.116 210.919 167.946C209.309 173.976 208.099 179.666 207.189 184.936C206.129 184.726 198.009 183.276 191.349 188.926C186.249 193.266 185.249 199.016 185.039 200.536C170.489 199.326 155.939 198.116 141.389 196.906C142.869 190.536 140.899 184.006 136.229 180.006C131.269 175.766 125.309 176.136 124.029 176.246C124.649 171.796 125.489 167.016 126.659 161.966C128.159 155.466 129.929 149.576 131.769 144.336C132.879 144.596 138.889 145.876 144.649 142.136C151.529 137.676 152.149 129.876 152.199 129.016C169.419 130.416 186.649 131.816 203.869 133.216C201.779 137.896 202.409 143.296 205.529 147.106V147.116Z" fill="#EBEBEB" stroke="black" stroke-width="1.6" stroke-linecap="round" stroke-linejoin="round"/>
<path d="M238.799 127.634C238.959 127.164 240.779 127.274 244.439 127.494C244.909 127.524 245.849 127.584 247.019 127.934C248.099 128.264 248.959 128.514 249.429 129.184C249.749 129.644 249.899 130.314 249.259 132.664C248.849 134.184 248.199 136.064 246.159 139.914C245.139 141.834 244.899 142.144 244.719 142.094C243.989 141.904 246.539 136.104 244.009 131.994C242.159 128.994 238.539 128.404 238.799 127.624V127.634Z" fill="#EBEBEB"/>
<g opacity="0.49" clip-path="url(#clip0_1_4435)">
<path d="M189.936 148.057L177.749 146.345C177.21 146.269 176.663 146.41 176.229 146.738C175.794 147.065 175.508 147.552 175.432 148.09L173.719 160.278C173.643 160.816 173.785 161.363 174.112 161.798C174.44 162.232 174.926 162.519 175.465 162.594L177.496 162.88L176.925 166.942L180.988 167.513L181.559 163.451L185.621 164.022L185.05 168.084L189.113 168.655L191.682 150.374C191.758 149.835 191.616 149.289 191.289 148.854C190.961 148.42 190.475 148.133 189.936 148.057ZM182.13 159.388L178.067 158.817L179.209 150.692L187.334 151.834L186.192 159.959L182.13 159.388ZM151.09 159.169L163.278 160.882C163.816 160.957 164.363 160.816 164.797 160.488C165.232 160.161 165.519 159.674 165.594 159.136L167.307 146.948C167.383 146.41 167.241 145.863 166.914 145.429C166.587 144.994 166.1 144.707 165.561 144.632L153.374 142.919C152.835 142.843 152.289 142.985 151.854 143.312C151.42 143.639 151.133 144.126 151.057 144.665L149.344 156.852C149.269 157.391 149.41 157.937 149.738 158.372C150.065 158.806 150.552 159.093 151.09 159.169ZM154.834 147.267L162.959 148.409L161.817 156.534L153.692 155.392L154.834 147.267ZM153.44 171.927L152.869 175.989L148.806 175.419L149.377 171.356L153.44 171.927ZM148.236 179.481L152.298 180.052L151.727 184.114L147.665 183.543L148.236 179.481ZM156.931 176.56L156.36 180.623L152.298 180.052L152.869 175.989L156.931 176.56ZM157.502 172.498L153.44 171.927L154.011 167.865L158.073 168.435L158.644 164.373L162.707 164.944L161.565 173.069L157.502 172.498ZM154.582 163.802L154.011 167.865L149.948 167.294L150.519 163.231L154.582 163.802ZM172.006 172.465L171.721 174.496L169.69 174.211L170.261 170.148L166.198 169.577L165.056 177.702L171.15 178.559L170.294 184.652C170.218 185.191 170.359 185.738 170.687 186.172C171.014 186.607 171.501 186.893 172.039 186.969L184.227 188.682C184.765 188.758 185.312 188.616 185.747 188.289C186.181 187.961 186.468 187.475 186.543 186.936L188.256 174.749C188.332 174.21 188.191 173.663 187.863 173.229C187.536 172.794 187.049 172.508 186.51 172.432L176.354 171.005L176.925 166.942L172.863 166.371L172.006 172.465ZM183.908 176.209L182.766 184.334L174.641 183.192L175.783 175.067L183.908 176.209ZM160.994 177.131L165.056 177.702L164.485 181.765L166.517 182.05L165.946 186.113L155.789 184.685L156.36 180.623L160.423 181.194L160.994 177.131ZM172.544 153.898L168.482 153.328L169.053 149.265L173.115 149.836L172.544 153.898ZM167.911 157.39L171.973 157.961L170.832 166.086L166.769 165.515L167.911 157.39ZM156.58 149.584L160.642 150.154L160.072 154.217L156.009 153.646L156.58 149.584ZM180.955 153.009L185.017 153.58L184.446 157.643L180.384 157.072L180.955 153.009ZM181.021 182.017L176.958 181.446L177.529 177.384L181.592 177.955L181.021 182.017Z" fill="black"/>
</g>
<path d="M35.5792 221.908C34.9492 222.048 31.9092 222.788 30.2292 225.668C29.4492 226.998 29.2592 228.288 29.1992 229.088V238.318C29.1992 238.318 29.1992 238.358 29.1992 238.388C29.6392 245.508 54.0492 251.368 74.4092 251.078C91.0192 250.838 114.429 246.378 115.839 237.488C115.849 237.408 115.859 237.348 115.869 237.298C115.909 233.518 115.949 229.748 115.989 225.968C115.949 225.198 115.789 224.208 115.249 223.208C113.459 219.858 109.229 219.467 108.779 219.438" fill="#6E6E6E"/>
<path d="M35.5792 221.908C34.9492 222.048 31.9092 222.788 30.2292 225.668C29.4492 226.998 29.2592 228.288 29.1992 229.088V238.318C29.1992 238.318 29.1992 238.358 29.1992 238.388C29.6392 245.508 54.0492 251.368 74.4092 251.078C91.0192 250.838 114.429 246.378 115.839 237.488C115.849 237.408 115.859 237.348 115.869 237.298C115.909 233.518 115.949 229.748 115.989 225.968C115.949 225.198 115.789 224.208 115.249 223.208C113.459 219.858 109.229 219.467 108.779 219.438" stroke="black" stroke-width="1.6" stroke-linecap="round" stroke-linejoin="round"/>
<path d="M108.928 221.281C109.048 221.621 109.178 222.121 109.128 222.701C108.608 229.321 87.1283 234.351 69.0683 233.631C55.6883 233.101 36.8683 229.121 36.0383 222.241C35.9883 221.841 36.0083 221.501 36.0383 221.271C37.0283 201.981 53.1683 186.641 72.4883 186.641C91.8083 186.641 107.948 201.981 108.938 221.271L108.928 221.281Z" fill="#C9C8C8" stroke="black" stroke-width="1.6" stroke-linecap="round" stroke-linejoin="round"/>
<path d="M35.5792 221.908C34.9492 222.048 31.9092 222.788 30.2292 225.668C29.4492 226.998 29.2592 228.288 29.1992 229.088V238.318C29.1992 238.318 29.1992 238.358 29.1992 238.388C29.6392 245.508 54.0492 251.368 74.4092 251.078C91.0192 250.838 114.429 246.378 115.839 237.488C115.849 237.408 115.859 237.348 115.869 237.298C115.909 233.518 115.949 229.748 115.989 225.968C115.949 225.198 115.789 224.208 115.249 223.208C113.459 219.858 109.229 219.467 108.779 219.438" stroke="black" stroke-width="1.6" stroke-linecap="round" stroke-linejoin="round"/>
<path d="M35.0391 230.281C37.3891 231.491 39.6391 232.521 41.7691 233.391" stroke="black" stroke-width="1.6" stroke-linecap="round" stroke-linejoin="round"/>
<path d="M52.4785 236.964C52.7985 237.044 53.1085 237.124 53.4085 237.194C59.5185 238.704 81.4385 243.784 103.639 233.524C106.819 232.054 109.309 230.594 110.899 229.594" stroke="black" stroke-width="1.6" stroke-linecap="round" stroke-linejoin="round"/>
<path d="M68.0591 181.992C68.3591 182.722 68.9891 184.552 68.5591 186.862C68.0791 189.422 66.5891 190.992 66.0391 191.532C66.2991 191.852 68.3491 194.302 71.8391 194.312C75.3391 194.312 77.3991 191.862 77.6591 191.542C77.2391 191.222 75.1991 189.622 74.7891 186.722C74.4591 184.392 75.3691 182.622 75.6891 182.062" fill="#6E6E6E"/>
<path d="M68.0591 181.992C68.3591 182.722 68.9891 184.552 68.5591 186.862C68.0791 189.422 66.5891 190.992 66.0391 191.532C66.2991 191.852 68.3491 194.302 71.8391 194.312C75.3391 194.312 77.3991 191.862 77.6591 191.542C77.2391 191.222 75.1991 189.622 74.7891 186.722C74.4591 184.392 75.3691 182.622 75.6891 182.062" stroke="black" stroke-width="1.6" stroke-linecap="round" stroke-linejoin="round"/>
<path d="M83.3083 178.344C83.3083 180.514 78.3083 182.274 72.1483 182.274C65.9883 182.274 60.9883 180.514 60.9883 178.344C60.9883 176.174 65.9883 174.414 72.1483 174.414C78.3083 174.414 83.3083 176.174 83.3083 178.344Z" fill="#6E6E6E" stroke="black" stroke-width="1.6" stroke-linecap="round" stroke-linejoin="round"/>
<path d="M82.8101 194.137C83.3301 193.347 91.7801 196.387 97.9001 203.677C101.23 207.637 104.51 213.627 102.68 216.067C102.12 216.817 100.83 217.557 99.8601 217.947C98.6801 218.427 97.4401 218.927 96.5301 218.457C95.1401 217.747 95.5801 215.347 94.9901 212.217C94.5201 209.737 93.65 208.147 91.91 204.957C87.9 197.597 82.3601 194.797 82.8001 194.137H82.8101Z" fill="white"/>
<path d="M96.8789 221.524C97.1189 220.864 97.8688 220.974 100.039 220.074C102.359 219.114 102.949 218.394 103.569 218.734C104.309 219.144 104.379 220.654 104.049 221.694C103.419 223.684 100.909 225.344 98.9188 224.594C97.5888 224.094 96.5089 222.524 96.8689 221.514L96.8789 221.524Z" fill="white"/>
<defs>
<clipPath id="clip0_1_4435">
<rect width="49.2285" height="49.2285" fill="white" transform="translate(147.851 138) rotate(8)"/>
</clipPath>
</defs>
</svg>
