<svg width="235" height="237" viewBox="0 0 235 237" fill="none" xmlns="http://www.w3.org/2000/svg">
<path d="M119.553 212.209C99.8928 212.209 81.5447 206.283 66.2168 196.198L28.9479 208.105L41.0289 172.092C29.4047 156.135 22.5681 136.477 22.5681 115.279C22.5681 61.8279 66.0463 18.3498 119.497 18.3498C172.948 18.3498 216.426 61.8279 216.426 115.279C216.426 168.728 172.948 212.208 119.497 212.208H119.553V212.209ZM119.553 0C55.9 0 4.27464 51.6302 4.27464 115.28C4.27464 137.048 10.3151 157.448 20.7991 174.828L0 236.656L63.8237 216.199C80.8828 225.632 100.06 230.573 119.553 230.559C183.205 230.559 234.832 178.932 234.832 115.28C234.83 51.6302 183.205 0 119.553 0Z" fill="#FEFEFE"/>
<path d="M119.554 18.3497C66.1032 18.3497 22.625 61.8279 22.625 115.279C22.625 136.477 29.4631 156.135 41.0873 172.092L29.0064 208.105L66.2736 196.198C81.6016 206.341 99.8934 212.209 119.61 212.209C173.061 212.209 216.539 168.729 216.539 115.28C216.539 61.8295 173.061 18.3513 119.61 18.3513H119.554V18.3497Z" fill="url(#paint0_linear_4051_12)"/>
<path d="M92.4845 67.5853C90.6045 63.0839 89.1796 62.9134 86.3315 62.7976C85.25 62.728 84.1666 62.6904 83.0829 62.6851C79.3776 62.6851 75.5034 63.7674 73.1666 66.1604C70.3185 69.0665 63.252 75.8467 63.252 89.7514C63.252 103.656 73.395 117.104 74.762 118.986C76.1868 120.864 94.5366 149.812 123.028 161.61C145.308 170.841 151.919 169.985 156.99 168.903C164.398 167.308 173.687 161.835 176.023 155.227C178.36 148.615 178.36 142.974 177.675 141.777C176.992 140.581 175.11 139.899 172.262 138.472C169.414 137.047 155.565 130.209 152.944 129.297C150.379 128.329 147.929 128.672 145.993 131.407C143.258 135.225 140.58 139.101 138.414 141.436C136.704 143.26 133.911 143.488 131.575 142.519C128.441 141.21 119.667 138.13 108.839 128.5C100.461 121.036 94.7634 111.749 93.1117 108.957C91.4585 106.109 92.9413 104.454 94.2504 102.916C95.6752 101.149 97.0422 99.896 98.4671 98.2428C99.892 96.5911 100.69 95.7355 101.602 93.7976C102.571 91.9176 101.886 89.9797 101.203 88.5549C100.519 87.13 94.8213 73.2253 92.4845 67.5853Z" fill="#FEFEFE"/>
<defs>
<linearGradient id="paint0_linear_4051_12" x1="-705.969" y1="-306.401" x2="-705.969" y2="-299.289" gradientUnits="userSpaceOnUse">
<stop stop-color="#6EBF61"/>
<stop offset="0.231" stop-color="#50A557"/>
<stop offset="0.522" stop-color="#2A904F"/>
<stop offset="0.812" stop-color="#50A557"/>
<stop offset="1" stop-color="#6EBF63"/>
</linearGradient>
</defs>
</svg>
